%
M48
M72
T01C0.01300
T02C0.04000
T03C0.06299
T04C0.07087
T05C0.11811
%
T01
X17048Y50862
X11500Y64750
X6100Y70150
X8682Y73008
X27383Y64150
X37900Y70150
X42700Y65350
X45100Y67750
X48700Y71350
X52300Y70750
X56418Y76945
X52900Y78550
X58900Y84550
X63700Y85750
X67300Y83950
X68500Y88150
X78700Y95350
X84100Y93550
X83977Y88264
X89391Y82358
X86500Y79750
X79900Y70750
X76900Y65350
X69706Y62181
X63100Y53350
X54942Y55783
X57894Y63657
X47500Y58750
X44500Y52150
X38500Y56950
X37300Y52150
X50513Y88756
X73300Y117550
X85300Y113950
X88900Y112750
X96100Y115750
X97900Y112750
X100300Y116350
X102700Y113950
X90100Y101950
X90100Y98350
X111700Y86950
X122855Y91217
X127776Y75961
X138111Y80882
X131221Y59720
X108583Y54307
X102186Y56768
X95500Y53350
X87422Y58244
X89391Y68087
X95788Y71039
X98500Y68350
X108091Y71039
X108583Y46925
X91359Y41512
X76900Y50950
X54700Y121150
X52300Y138550
X39700Y145150
X63100Y153550
X87100Y153550
X87100Y145750
X96700Y138550
T02
X52560Y158657
X42560Y158657
X32560Y158657
X32442Y169287
X42442Y169287
X52442Y169287
X157009Y82161
X157009Y62161
X137048Y50941
X127048Y50941
X117048Y50941
X117166Y39760
X127166Y39760
X137166Y39760
X88465Y32752
X68465Y32752
T03
X140355Y141256
T04
X122639Y141256
T05
X163898Y28618
X11536Y176650
M30
