G75*
%MOIN*%
%OFA0B0*%
%FSLAX25Y25*%
%IPPOS*%
%LPD*%
%AMOC8*
5,1,8,0,0,1.08239X$1,22.5*
%
%ADD10C,0.00600*%
%ADD11C,0.00800*%
%ADD12C,0.00500*%
D10*
X0015788Y0025941D02*
X0018150Y0025941D01*
X0018150Y0030665D02*
X0015788Y0030665D01*
X0013190Y0037437D02*
X0013190Y0039799D01*
X0008465Y0039799D02*
X0008465Y0037437D01*
X0006733Y0052713D02*
X0006733Y0055075D01*
X0011457Y0055075D02*
X0011457Y0052713D01*
D11*
X0024725Y0042831D02*
X0024725Y0035744D01*
X0028662Y0035744D01*
X0040473Y0035744D02*
X0042048Y0035744D01*
X0042048Y0039287D01*
X0042048Y0095587D01*
X0043229Y0095587D01*
X0043229Y0096768D01*
X0045985Y0096768D01*
X0045985Y0038106D01*
X0043229Y0038106D01*
X0043229Y0039287D01*
X0042048Y0039287D01*
X0043229Y0089287D02*
X0043229Y0090862D01*
X0044804Y0090075D01*
X0043229Y0089287D01*
X0043229Y0089821D02*
X0044296Y0089821D01*
X0043715Y0090619D02*
X0043229Y0090619D01*
X0042048Y0095587D02*
X0042048Y0099130D01*
X0040473Y0099130D01*
X0028662Y0099130D02*
X0024725Y0099130D01*
X0024725Y0092043D01*
D12*
X0073072Y0119917D02*
X0153072Y0119917D01*
X0153072Y0179917D01*
X0153072Y0209917D01*
X0073072Y0209917D01*
X0073072Y0179917D01*
X0153072Y0179917D01*
X0073072Y0179917D02*
X0073072Y0119917D01*
M02*
