G75*
%MOIN*%
%OFA0B0*%
%FSLAX25Y25*%
%IPPOS*%
%LPD*%
%AMOC8*
5,1,8,0,0,1.08239X$1,22.5*
%
%ADD10R,0.03150X0.04724*%
%ADD11R,0.04724X0.03150*%
%ADD12C,0.07400*%
%ADD13R,0.05118X0.01181*%
%ADD14R,0.12205X0.09055*%
%ADD15C,0.07600*%
%ADD16C,0.03000*%
%ADD17C,0.00600*%
%ADD18C,0.02700*%
D10*
X0013426Y0028303D03*
X0020513Y0028303D03*
D11*
X0010828Y0035075D03*
X0010828Y0042161D03*
X0009095Y0050350D03*
X0009095Y0057437D03*
D12*
X0032560Y0158657D03*
X0042560Y0158657D03*
X0052560Y0158657D03*
X0052442Y0169287D03*
X0042442Y0169287D03*
X0032442Y0169287D03*
X0117048Y0050941D03*
X0127048Y0050941D03*
X0137048Y0050941D03*
X0137166Y0039760D03*
X0127166Y0039760D03*
X0117166Y0039760D03*
D13*
X0021772Y0044799D03*
X0021772Y0046768D03*
X0021772Y0048736D03*
X0021772Y0050705D03*
X0021772Y0052673D03*
X0021772Y0054642D03*
X0021772Y0056610D03*
X0021772Y0058579D03*
X0021772Y0060547D03*
X0021772Y0062516D03*
X0021772Y0064484D03*
X0021772Y0066453D03*
X0021772Y0068421D03*
X0021772Y0070390D03*
X0021772Y0072358D03*
X0021772Y0074327D03*
X0021772Y0076295D03*
X0021772Y0078264D03*
X0021772Y0080232D03*
X0021772Y0082201D03*
X0021772Y0084169D03*
X0021772Y0086138D03*
X0021772Y0088106D03*
X0021772Y0090075D03*
D14*
X0028465Y0096571D03*
X0028465Y0038303D03*
D15*
X0068465Y0032752D03*
X0088465Y0032752D03*
X0157009Y0062161D03*
X0157009Y0082161D03*
D16*
X0148072Y0119417D02*
X0148072Y0125417D01*
X0147572Y0124917D02*
X0153572Y0124917D01*
X0153572Y0129917D02*
X0147572Y0129917D01*
X0147572Y0134917D02*
X0153572Y0134917D01*
X0153572Y0139917D02*
X0147572Y0139917D01*
X0147572Y0144917D02*
X0153572Y0144917D01*
X0153572Y0149917D02*
X0147572Y0149917D01*
X0147572Y0154917D02*
X0153572Y0154917D01*
X0153572Y0159917D02*
X0147572Y0159917D01*
X0147572Y0164917D02*
X0153572Y0164917D01*
X0153572Y0169917D02*
X0147572Y0169917D01*
X0147572Y0174917D02*
X0153572Y0174917D01*
X0148072Y0174417D02*
X0148072Y0180417D01*
X0143072Y0180417D02*
X0143072Y0174417D01*
X0138072Y0174417D02*
X0138072Y0180417D01*
X0133072Y0180417D02*
X0133072Y0174417D01*
X0128072Y0174417D02*
X0128072Y0180417D01*
X0123072Y0180417D02*
X0123072Y0174417D01*
X0118072Y0174417D02*
X0118072Y0180417D01*
X0113072Y0180417D02*
X0113072Y0174417D01*
X0108072Y0174417D02*
X0108072Y0180417D01*
X0103072Y0180417D02*
X0103072Y0174417D01*
X0098072Y0174417D02*
X0098072Y0180417D01*
X0093072Y0180417D02*
X0093072Y0174417D01*
X0088072Y0174417D02*
X0088072Y0180417D01*
X0083072Y0180417D02*
X0083072Y0174417D01*
X0078072Y0174417D02*
X0078072Y0180417D01*
X0078572Y0174917D02*
X0072572Y0174917D01*
X0072572Y0169917D02*
X0078572Y0169917D01*
X0078572Y0164917D02*
X0072572Y0164917D01*
X0072572Y0159917D02*
X0078572Y0159917D01*
X0078572Y0154917D02*
X0072572Y0154917D01*
X0072572Y0149917D02*
X0078572Y0149917D01*
X0078572Y0144917D02*
X0072572Y0144917D01*
X0072572Y0139917D02*
X0078572Y0139917D01*
X0078572Y0134917D02*
X0072572Y0134917D01*
X0072572Y0129917D02*
X0078572Y0129917D01*
X0078572Y0124917D02*
X0072572Y0124917D01*
X0078072Y0125417D02*
X0078072Y0119417D01*
X0083072Y0119417D02*
X0083072Y0125417D01*
X0088072Y0125417D02*
X0088072Y0119417D01*
X0093072Y0119417D02*
X0093072Y0125417D01*
X0098072Y0125417D02*
X0098072Y0119417D01*
X0103072Y0119417D02*
X0103072Y0125417D01*
X0108072Y0125417D02*
X0108072Y0119417D01*
X0113072Y0119417D02*
X0113072Y0125417D01*
X0118072Y0125417D02*
X0118072Y0119417D01*
X0123072Y0119417D02*
X0123072Y0125417D01*
X0128072Y0125417D02*
X0128072Y0119417D01*
X0133072Y0119417D02*
X0133072Y0125417D01*
X0138072Y0125417D02*
X0138072Y0119417D01*
X0143072Y0119417D02*
X0143072Y0125417D01*
D17*
X0003100Y0184145D02*
X0003100Y0022150D01*
X0159469Y0022150D01*
X0157366Y0024253D01*
X0156193Y0027085D01*
X0156193Y0030151D01*
X0157366Y0032983D01*
X0159534Y0035151D01*
X0162366Y0036324D01*
X0165431Y0036324D01*
X0168263Y0035151D01*
X0170431Y0032983D01*
X0170771Y0032161D01*
X0170410Y0184531D01*
X0163372Y0184514D01*
X0163372Y0179793D01*
X0163196Y0179617D01*
X0150872Y0179617D01*
X0150872Y0177717D01*
X0153847Y0177717D01*
X0154388Y0177610D01*
X0154898Y0177399D01*
X0155357Y0177092D01*
X0155747Y0176702D01*
X0156053Y0176244D01*
X0156264Y0175734D01*
X0156367Y0175217D01*
X0150872Y0175217D01*
X0150872Y0174617D01*
X0156367Y0174617D01*
X0156264Y0174101D01*
X0156053Y0173591D01*
X0155747Y0173132D01*
X0155357Y0172742D01*
X0154898Y0172436D01*
X0154853Y0172417D01*
X0154898Y0172399D01*
X0155357Y0172092D01*
X0155747Y0171702D01*
X0156053Y0171244D01*
X0156264Y0170734D01*
X0156367Y0170217D01*
X0150872Y0170217D01*
X0150872Y0169617D01*
X0156367Y0169617D01*
X0156264Y0169101D01*
X0156053Y0168591D01*
X0155747Y0168132D01*
X0155357Y0167742D01*
X0154898Y0167436D01*
X0154388Y0167225D01*
X0154310Y0167209D01*
X0154931Y0166952D01*
X0155606Y0166277D01*
X0155827Y0165743D01*
X0156817Y0165743D01*
X0157520Y0165040D01*
X0157520Y0133534D01*
X0156817Y0132831D01*
X0155434Y0131449D01*
X0155606Y0131277D01*
X0155972Y0130395D01*
X0155972Y0129440D01*
X0155606Y0128558D01*
X0154931Y0127883D01*
X0154310Y0127625D01*
X0154388Y0127610D01*
X0154898Y0127399D01*
X0155357Y0127092D01*
X0155747Y0126702D01*
X0156053Y0126244D01*
X0156264Y0125734D01*
X0156367Y0125217D01*
X0150872Y0125217D01*
X0150872Y0124617D01*
X0156367Y0124617D01*
X0156264Y0124101D01*
X0156053Y0123591D01*
X0155747Y0123132D01*
X0155357Y0122742D01*
X0154898Y0122436D01*
X0154388Y0122225D01*
X0153847Y0122117D01*
X0150872Y0122117D01*
X0150872Y0119142D01*
X0150764Y0118601D01*
X0150553Y0118091D01*
X0150247Y0117632D01*
X0149857Y0117242D01*
X0149398Y0116936D01*
X0148888Y0116725D01*
X0148372Y0116622D01*
X0148372Y0122117D01*
X0147772Y0122117D01*
X0147772Y0116622D01*
X0147255Y0116725D01*
X0146745Y0116936D01*
X0146287Y0117242D01*
X0145897Y0117632D01*
X0145590Y0118091D01*
X0145379Y0118601D01*
X0145364Y0118679D01*
X0145106Y0118058D01*
X0144431Y0117383D01*
X0143549Y0117017D01*
X0142594Y0117017D01*
X0141712Y0117383D01*
X0141037Y0118058D01*
X0140672Y0118940D01*
X0140672Y0125895D01*
X0141037Y0126777D01*
X0141712Y0127452D01*
X0142594Y0127817D01*
X0143549Y0127817D01*
X0144431Y0127452D01*
X0145106Y0126777D01*
X0145237Y0126462D01*
X0145397Y0126702D01*
X0145787Y0127092D01*
X0145853Y0127136D01*
X0145897Y0127202D01*
X0146287Y0127592D01*
X0146527Y0127752D01*
X0146212Y0127883D01*
X0145537Y0128558D01*
X0145172Y0129440D01*
X0145172Y0130395D01*
X0145537Y0131277D01*
X0146212Y0131952D01*
X0147094Y0132317D01*
X0151432Y0132317D01*
X0151632Y0132517D01*
X0147094Y0132517D01*
X0146212Y0132883D01*
X0145537Y0133558D01*
X0145172Y0134440D01*
X0145172Y0135395D01*
X0145537Y0136277D01*
X0146212Y0136952D01*
X0147094Y0137317D01*
X0154049Y0137317D01*
X0154931Y0136952D01*
X0155120Y0136763D01*
X0155120Y0138071D01*
X0154931Y0137883D01*
X0154049Y0137517D01*
X0147094Y0137517D01*
X0146212Y0137883D01*
X0145537Y0138558D01*
X0145172Y0139440D01*
X0145172Y0139950D01*
X0144551Y0138452D01*
X0143159Y0137060D01*
X0146473Y0137060D01*
X0146753Y0137659D02*
X0143758Y0137659D01*
X0144356Y0138257D02*
X0145838Y0138257D01*
X0145414Y0138856D02*
X0144718Y0138856D01*
X0144966Y0139454D02*
X0145172Y0139454D01*
X0145305Y0140716D02*
X0145305Y0142240D01*
X0144551Y0144060D01*
X0143159Y0145452D01*
X0141340Y0146205D01*
X0139371Y0146205D01*
X0137551Y0145452D01*
X0136159Y0144060D01*
X0135406Y0142240D01*
X0135406Y0140271D01*
X0136159Y0138452D01*
X0137551Y0137060D01*
X0125999Y0137060D01*
X0125665Y0136726D02*
X0127168Y0138229D01*
X0127982Y0140193D01*
X0127982Y0142319D01*
X0127168Y0144283D01*
X0125665Y0145786D01*
X0123701Y0146599D01*
X0121576Y0146599D01*
X0119612Y0145786D01*
X0118109Y0144283D01*
X0117295Y0142319D01*
X0117295Y0140193D01*
X0118109Y0138229D01*
X0119612Y0136726D01*
X0121576Y0135913D01*
X0123701Y0135913D01*
X0125665Y0136726D01*
X0125027Y0136462D02*
X0138996Y0136462D01*
X0139371Y0136306D02*
X0141340Y0136306D01*
X0143159Y0137060D01*
X0141715Y0136462D02*
X0145722Y0136462D01*
X0145366Y0135863D02*
X0113084Y0135863D01*
X0112486Y0136462D02*
X0120250Y0136462D01*
X0119278Y0137060D02*
X0111887Y0137060D01*
X0111597Y0137350D02*
X0098682Y0137350D01*
X0098950Y0137618D01*
X0098950Y0139482D01*
X0097900Y0140532D01*
X0097900Y0163750D01*
X0145457Y0163750D01*
X0145537Y0163558D01*
X0146212Y0162883D01*
X0147094Y0162517D01*
X0154049Y0162517D01*
X0154931Y0162883D01*
X0155120Y0163071D01*
X0155120Y0161763D01*
X0154931Y0161952D01*
X0154049Y0162317D01*
X0147094Y0162317D01*
X0146212Y0161952D01*
X0145537Y0161277D01*
X0145172Y0160395D01*
X0145172Y0159440D01*
X0145537Y0158558D01*
X0146212Y0157883D01*
X0147094Y0157517D01*
X0154049Y0157517D01*
X0154931Y0157883D01*
X0155120Y0158071D01*
X0155120Y0156763D01*
X0154931Y0156952D01*
X0154049Y0157317D01*
X0147094Y0157317D01*
X0146212Y0156952D01*
X0145537Y0156277D01*
X0145172Y0155395D01*
X0145172Y0154440D01*
X0145537Y0153558D01*
X0146212Y0152883D01*
X0147094Y0152517D01*
X0154049Y0152517D01*
X0154931Y0152883D01*
X0155120Y0153071D01*
X0155120Y0151763D01*
X0154931Y0151952D01*
X0154049Y0152317D01*
X0147094Y0152317D01*
X0146212Y0151952D01*
X0145537Y0151277D01*
X0145172Y0150395D01*
X0145172Y0149440D01*
X0145537Y0148558D01*
X0146212Y0147883D01*
X0147094Y0147517D01*
X0154049Y0147517D01*
X0154931Y0147883D01*
X0155120Y0148071D01*
X0155120Y0146763D01*
X0154931Y0146952D01*
X0154049Y0147317D01*
X0147094Y0147317D01*
X0146212Y0146952D01*
X0145537Y0146277D01*
X0145172Y0145395D01*
X0145172Y0144440D01*
X0145537Y0143558D01*
X0146212Y0142883D01*
X0147094Y0142517D01*
X0154049Y0142517D01*
X0154931Y0142883D01*
X0155120Y0143071D01*
X0155120Y0141763D01*
X0154931Y0141952D01*
X0154049Y0142317D01*
X0147094Y0142317D01*
X0146212Y0141952D01*
X0145537Y0141277D01*
X0145305Y0140716D01*
X0145305Y0141250D02*
X0145526Y0141250D01*
X0145305Y0141848D02*
X0146108Y0141848D01*
X0145219Y0142447D02*
X0155120Y0142447D01*
X0155094Y0143045D02*
X0155120Y0143045D01*
X0155120Y0141848D02*
X0155035Y0141848D01*
X0157520Y0141848D02*
X0170511Y0141848D01*
X0170512Y0141250D02*
X0157520Y0141250D01*
X0157520Y0140651D02*
X0170514Y0140651D01*
X0170515Y0140053D02*
X0157520Y0140053D01*
X0157520Y0139454D02*
X0170517Y0139454D01*
X0170518Y0138856D02*
X0157520Y0138856D01*
X0157520Y0138257D02*
X0170520Y0138257D01*
X0170521Y0137659D02*
X0157520Y0137659D01*
X0157520Y0137060D02*
X0170522Y0137060D01*
X0170524Y0136462D02*
X0157520Y0136462D01*
X0157520Y0135863D02*
X0170525Y0135863D01*
X0170527Y0135265D02*
X0157520Y0135265D01*
X0157520Y0134666D02*
X0170528Y0134666D01*
X0170529Y0134068D02*
X0157520Y0134068D01*
X0157454Y0133469D02*
X0170531Y0133469D01*
X0170532Y0132871D02*
X0156856Y0132871D01*
X0156257Y0132272D02*
X0170534Y0132272D01*
X0170535Y0131673D02*
X0155659Y0131673D01*
X0155690Y0131075D02*
X0170537Y0131075D01*
X0170538Y0130476D02*
X0155938Y0130476D01*
X0155972Y0129878D02*
X0170539Y0129878D01*
X0170541Y0129279D02*
X0155905Y0129279D01*
X0155657Y0128681D02*
X0170542Y0128681D01*
X0170544Y0128082D02*
X0155131Y0128082D01*
X0154692Y0127484D02*
X0170545Y0127484D01*
X0170547Y0126885D02*
X0155563Y0126885D01*
X0156024Y0126287D02*
X0170548Y0126287D01*
X0170549Y0125688D02*
X0156273Y0125688D01*
X0156342Y0124491D02*
X0170552Y0124491D01*
X0170554Y0123893D02*
X0156178Y0123893D01*
X0155855Y0123294D02*
X0170555Y0123294D01*
X0170556Y0122696D02*
X0155287Y0122696D01*
X0150872Y0122097D02*
X0170558Y0122097D01*
X0170559Y0121499D02*
X0150872Y0121499D01*
X0150872Y0120900D02*
X0170561Y0120900D01*
X0170562Y0120302D02*
X0150872Y0120302D01*
X0150872Y0119703D02*
X0170564Y0119703D01*
X0170565Y0119105D02*
X0150864Y0119105D01*
X0150725Y0118506D02*
X0170566Y0118506D01*
X0170568Y0117908D02*
X0150430Y0117908D01*
X0149923Y0117309D02*
X0170569Y0117309D01*
X0170571Y0116711D02*
X0148817Y0116711D01*
X0148372Y0116711D02*
X0147772Y0116711D01*
X0147326Y0116711D02*
X0114100Y0116711D01*
X0114100Y0117246D02*
X0114100Y0115253D01*
X0113397Y0114550D01*
X0091263Y0092417D01*
X0120873Y0092417D01*
X0121923Y0093467D01*
X0123787Y0093467D01*
X0125105Y0092149D01*
X0125105Y0090285D01*
X0123787Y0088967D01*
X0121923Y0088967D01*
X0120873Y0090017D01*
X0115417Y0090017D01*
X0127223Y0078211D01*
X0128708Y0078211D01*
X0130026Y0076893D01*
X0130026Y0075029D01*
X0129698Y0074700D01*
X0152880Y0074700D01*
X0162230Y0065350D01*
X0162933Y0064647D01*
X0162933Y0039538D01*
X0162230Y0038835D01*
X0141762Y0038835D01*
X0141066Y0037154D01*
X0139772Y0035860D01*
X0138081Y0035160D01*
X0136251Y0035160D01*
X0134560Y0035860D01*
X0133266Y0037154D01*
X0133185Y0037350D01*
X0132703Y0036867D01*
X0119415Y0023580D01*
X0017535Y0023580D01*
X0016832Y0024282D01*
X0016832Y0032649D01*
X0014106Y0035375D01*
X0011128Y0035375D01*
X0011128Y0034775D01*
X0014490Y0034775D01*
X0014490Y0033329D01*
X0014401Y0032998D01*
X0014230Y0032702D01*
X0013988Y0032460D01*
X0013692Y0032289D01*
X0013361Y0032200D01*
X0011128Y0032200D01*
X0011128Y0034775D01*
X0010528Y0034775D01*
X0010528Y0032200D01*
X0008294Y0032200D01*
X0007964Y0032289D01*
X0007667Y0032460D01*
X0007425Y0032702D01*
X0007254Y0032998D01*
X0007165Y0033329D01*
X0007165Y0034775D01*
X0010528Y0034775D01*
X0010528Y0035375D01*
X0007165Y0035375D01*
X0007165Y0036375D01*
X0005232Y0036375D01*
X0004529Y0037078D01*
X0004529Y0060218D01*
X0005232Y0060920D01*
X0005724Y0061413D01*
X0013141Y0061413D01*
X0012053Y0062500D01*
X0010568Y0062500D01*
X0009250Y0063818D01*
X0009250Y0065682D01*
X0010568Y0067000D01*
X0012432Y0067000D01*
X0013750Y0065682D01*
X0013750Y0064197D01*
X0016197Y0061750D01*
X0018242Y0061750D01*
X0009235Y0070758D01*
X0008350Y0070758D01*
X0008350Y0069218D01*
X0007032Y0067900D01*
X0005168Y0067900D01*
X0003850Y0069218D01*
X0003850Y0071082D01*
X0004900Y0072132D01*
X0004900Y0088647D01*
X0027100Y0110847D01*
X0027100Y0110847D01*
X0027803Y0111550D01*
X0086918Y0111550D01*
X0086650Y0111818D01*
X0086650Y0112118D01*
X0086232Y0111700D01*
X0084368Y0111700D01*
X0083050Y0113018D01*
X0083050Y0114882D01*
X0084100Y0115932D01*
X0084100Y0117246D01*
X0083549Y0117017D01*
X0082594Y0117017D01*
X0081712Y0117383D01*
X0081037Y0118058D01*
X0080780Y0118679D01*
X0080764Y0118601D01*
X0080553Y0118091D01*
X0080247Y0117632D01*
X0079857Y0117242D01*
X0079398Y0116936D01*
X0078888Y0116725D01*
X0078372Y0116622D01*
X0078372Y0122117D01*
X0077772Y0122117D01*
X0077772Y0116622D01*
X0077255Y0116725D01*
X0076745Y0116936D01*
X0076287Y0117242D01*
X0075897Y0117632D01*
X0075590Y0118091D01*
X0075379Y0118601D01*
X0075272Y0119142D01*
X0075272Y0122117D01*
X0072296Y0122117D01*
X0071755Y0122225D01*
X0071245Y0122436D01*
X0070787Y0122742D01*
X0070397Y0123132D01*
X0070090Y0123591D01*
X0069879Y0124101D01*
X0069824Y0124378D01*
X0065397Y0119950D01*
X0056682Y0119950D01*
X0055632Y0118900D01*
X0053768Y0118900D01*
X0052450Y0120218D01*
X0052450Y0122082D01*
X0053768Y0123400D01*
X0055632Y0123400D01*
X0056682Y0122350D01*
X0064403Y0122350D01*
X0070574Y0128521D01*
X0070537Y0128558D01*
X0070172Y0129440D01*
X0070172Y0130395D01*
X0070537Y0131277D01*
X0071212Y0131952D01*
X0072094Y0132317D01*
X0079049Y0132317D01*
X0079931Y0131952D01*
X0080606Y0131277D01*
X0080972Y0130395D01*
X0080972Y0129440D01*
X0080606Y0128558D01*
X0079931Y0127883D01*
X0079617Y0127752D01*
X0079857Y0127592D01*
X0080247Y0127202D01*
X0080291Y0127136D01*
X0080357Y0127092D01*
X0080747Y0126702D01*
X0080907Y0126462D01*
X0081037Y0126777D01*
X0081712Y0127452D01*
X0082594Y0127817D01*
X0083549Y0127817D01*
X0084431Y0127452D01*
X0085106Y0126777D01*
X0085472Y0125895D01*
X0085472Y0120019D01*
X0085672Y0120219D01*
X0085672Y0125895D01*
X0086037Y0126777D01*
X0086712Y0127452D01*
X0087594Y0127817D01*
X0088549Y0127817D01*
X0089431Y0127452D01*
X0090106Y0126777D01*
X0090472Y0125895D01*
X0090472Y0119619D01*
X0090672Y0119819D01*
X0090672Y0125895D01*
X0091037Y0126777D01*
X0091712Y0127452D01*
X0092594Y0127817D01*
X0093549Y0127817D01*
X0094431Y0127452D01*
X0095106Y0126777D01*
X0095472Y0125895D01*
X0095472Y0118940D01*
X0095106Y0118058D01*
X0094431Y0117383D01*
X0093549Y0117017D01*
X0092594Y0117017D01*
X0091712Y0117383D01*
X0091671Y0117424D01*
X0090100Y0115853D01*
X0090100Y0114732D01*
X0091150Y0113682D01*
X0091150Y0112497D01*
X0093850Y0115197D01*
X0093850Y0116682D01*
X0095168Y0118000D01*
X0096094Y0118000D01*
X0096037Y0118058D01*
X0095672Y0118940D01*
X0095672Y0125895D01*
X0096037Y0126777D01*
X0096712Y0127452D01*
X0097594Y0127817D01*
X0097936Y0127817D01*
X0097900Y0127853D01*
X0089603Y0136150D01*
X0080659Y0136150D01*
X0080972Y0135395D01*
X0080972Y0134440D01*
X0080606Y0133558D01*
X0079931Y0132883D01*
X0079049Y0132517D01*
X0072094Y0132517D01*
X0071212Y0132883D01*
X0070537Y0133558D01*
X0070205Y0134359D01*
X0069597Y0133750D01*
X0045803Y0133750D01*
X0045100Y0134453D01*
X0036100Y0143453D01*
X0036100Y0146847D01*
X0036803Y0147550D01*
X0040900Y0151647D01*
X0040900Y0154366D01*
X0039954Y0154758D01*
X0038660Y0156052D01*
X0037960Y0157742D01*
X0037960Y0159572D01*
X0038660Y0161263D01*
X0039954Y0162557D01*
X0041386Y0163150D01*
X0036803Y0163150D01*
X0034707Y0165247D01*
X0033357Y0164687D01*
X0031527Y0164687D01*
X0029836Y0165388D01*
X0028542Y0166682D01*
X0027842Y0168372D01*
X0027842Y0170202D01*
X0028542Y0171893D01*
X0029836Y0173187D01*
X0031527Y0173887D01*
X0033357Y0173887D01*
X0035047Y0173187D01*
X0036341Y0171893D01*
X0037042Y0170202D01*
X0037042Y0168372D01*
X0036436Y0166911D01*
X0037797Y0165550D01*
X0039673Y0165550D01*
X0038542Y0166682D01*
X0037842Y0168372D01*
X0037842Y0170202D01*
X0038542Y0171893D01*
X0039836Y0173187D01*
X0041527Y0173887D01*
X0043357Y0173887D01*
X0045047Y0173187D01*
X0046341Y0171893D01*
X0047042Y0170202D01*
X0047042Y0168372D01*
X0046495Y0167052D01*
X0047997Y0165550D01*
X0049108Y0165550D01*
X0048628Y0166030D01*
X0048165Y0166667D01*
X0047808Y0167368D01*
X0047565Y0168117D01*
X0047442Y0168894D01*
X0047442Y0168987D01*
X0052142Y0168987D01*
X0052142Y0169587D01*
X0047442Y0169587D01*
X0047442Y0169681D01*
X0047565Y0170458D01*
X0047808Y0171207D01*
X0048165Y0171908D01*
X0048628Y0172545D01*
X0049184Y0173101D01*
X0049821Y0173564D01*
X0050522Y0173921D01*
X0051271Y0174164D01*
X0052048Y0174287D01*
X0052142Y0174287D01*
X0052142Y0169587D01*
X0052742Y0169587D01*
X0057442Y0169587D01*
X0057442Y0169681D01*
X0057319Y0170458D01*
X0057075Y0171207D01*
X0056718Y0171908D01*
X0056256Y0172545D01*
X0055699Y0173101D01*
X0055062Y0173564D01*
X0054361Y0173921D01*
X0053613Y0174164D01*
X0052835Y0174287D01*
X0052742Y0174287D01*
X0052742Y0169587D01*
X0052742Y0168987D01*
X0057442Y0168987D01*
X0057442Y0168894D01*
X0057319Y0168117D01*
X0057075Y0167368D01*
X0056718Y0166667D01*
X0056256Y0166030D01*
X0055776Y0165550D01*
X0070236Y0165550D01*
X0070537Y0166277D01*
X0071212Y0166952D01*
X0071834Y0167209D01*
X0071755Y0167225D01*
X0071245Y0167436D01*
X0070787Y0167742D01*
X0070397Y0168132D01*
X0070090Y0168591D01*
X0069879Y0169101D01*
X0069776Y0169617D01*
X0075272Y0169617D01*
X0075272Y0170217D01*
X0075272Y0174142D01*
X0075379Y0173601D01*
X0075590Y0173091D01*
X0075872Y0172670D01*
X0075872Y0170217D01*
X0081367Y0170217D01*
X0081264Y0170734D01*
X0081053Y0171244D01*
X0080747Y0171702D01*
X0080357Y0172092D01*
X0079967Y0172353D01*
X0080247Y0172632D01*
X0080291Y0172698D01*
X0080357Y0172742D01*
X0080636Y0173022D01*
X0080897Y0172632D01*
X0081287Y0172242D01*
X0081745Y0171936D01*
X0082255Y0171725D01*
X0082772Y0171622D01*
X0082772Y0177117D01*
X0083372Y0177117D01*
X0083372Y0177717D01*
X0085872Y0177717D01*
X0087772Y0177717D01*
X0087772Y0177117D01*
X0088372Y0177117D01*
X0088372Y0177717D01*
X0090872Y0177717D01*
X0092772Y0177717D01*
X0092772Y0177117D01*
X0093372Y0177117D01*
X0093372Y0177717D01*
X0095872Y0177717D01*
X0097772Y0177717D01*
X0097772Y0177117D01*
X0098372Y0177117D01*
X0098372Y0177717D01*
X0100872Y0177717D01*
X0102772Y0177717D01*
X0102772Y0177117D01*
X0103372Y0177117D01*
X0103372Y0177717D01*
X0105872Y0177717D01*
X0107772Y0177717D01*
X0107772Y0177117D01*
X0108372Y0177117D01*
X0108372Y0177717D01*
X0110872Y0177717D01*
X0112772Y0177717D01*
X0112772Y0177117D01*
X0113372Y0177117D01*
X0113372Y0177717D01*
X0117772Y0177717D01*
X0117772Y0179617D01*
X0118372Y0179617D01*
X0118372Y0177717D01*
X0120872Y0177717D01*
X0122772Y0177717D01*
X0122772Y0177117D01*
X0123372Y0177117D01*
X0123372Y0177717D01*
X0125872Y0177717D01*
X0127772Y0177717D01*
X0127772Y0177117D01*
X0128372Y0177117D01*
X0128372Y0177717D01*
X0130872Y0177717D01*
X0132772Y0177717D01*
X0132772Y0177117D01*
X0133372Y0177117D01*
X0133372Y0177717D01*
X0135872Y0177717D01*
X0137772Y0177717D01*
X0137772Y0177117D01*
X0138372Y0177117D01*
X0138372Y0177717D01*
X0140872Y0177717D01*
X0142772Y0177717D01*
X0142772Y0177117D01*
X0143372Y0177117D01*
X0143372Y0177717D01*
X0145872Y0177717D01*
X0147296Y0177717D01*
X0146755Y0177610D01*
X0146245Y0177399D01*
X0145824Y0177117D01*
X0143372Y0177117D01*
X0143372Y0171622D01*
X0143888Y0171725D01*
X0144398Y0171936D01*
X0144857Y0172242D01*
X0145247Y0172632D01*
X0145507Y0173022D01*
X0145787Y0172742D01*
X0145853Y0172698D01*
X0145897Y0172632D01*
X0146177Y0172353D01*
X0145787Y0172092D01*
X0145397Y0171702D01*
X0145090Y0171244D01*
X0144879Y0170734D01*
X0144776Y0170217D01*
X0150272Y0170217D01*
X0150272Y0172117D01*
X0150272Y0172670D01*
X0150553Y0173091D01*
X0150764Y0173601D01*
X0150872Y0174141D01*
X0150872Y0170217D01*
X0150272Y0170217D01*
X0150272Y0169617D01*
X0144776Y0169617D01*
X0144879Y0169101D01*
X0145090Y0168591D01*
X0145397Y0168132D01*
X0145787Y0167742D01*
X0146245Y0167436D01*
X0146755Y0167225D01*
X0146834Y0167209D01*
X0146212Y0166952D01*
X0145537Y0166277D01*
X0145485Y0166150D01*
X0080659Y0166150D01*
X0080606Y0166277D01*
X0079931Y0166952D01*
X0079310Y0167209D01*
X0079388Y0167225D01*
X0079898Y0167436D01*
X0080357Y0167742D01*
X0080747Y0168132D01*
X0081053Y0168591D01*
X0081264Y0169101D01*
X0081367Y0169617D01*
X0075872Y0169617D01*
X0075872Y0170217D01*
X0075272Y0170217D01*
X0069776Y0170217D01*
X0069879Y0170734D01*
X0070090Y0171244D01*
X0070397Y0171702D01*
X0070787Y0172092D01*
X0071245Y0172399D01*
X0071290Y0172417D01*
X0071245Y0172436D01*
X0070787Y0172742D01*
X0070397Y0173132D01*
X0070090Y0173591D01*
X0069879Y0174101D01*
X0069776Y0174617D01*
X0075272Y0174617D01*
X0075272Y0175217D01*
X0069776Y0175217D01*
X0069879Y0175734D01*
X0070090Y0176244D01*
X0070397Y0176702D01*
X0070787Y0177092D01*
X0071245Y0177399D01*
X0071755Y0177610D01*
X0072296Y0177717D01*
X0075272Y0177717D01*
X0075272Y0179617D01*
X0062947Y0179617D01*
X0062772Y0179793D01*
X0062772Y0184283D01*
X0013518Y0184169D01*
X0015901Y0183182D01*
X0018069Y0181014D01*
X0019242Y0178182D01*
X0019242Y0175117D01*
X0018069Y0172285D01*
X0015901Y0170117D01*
X0013069Y0168944D01*
X0010003Y0168944D01*
X0007171Y0170117D01*
X0005004Y0172285D01*
X0003831Y0175117D01*
X0003831Y0178182D01*
X0005004Y0181014D01*
X0007171Y0183182D01*
X0009532Y0184160D01*
X0003100Y0184145D01*
X0003100Y0183744D02*
X0008528Y0183744D01*
X0007135Y0183145D02*
X0003100Y0183145D01*
X0003100Y0182547D02*
X0006536Y0182547D01*
X0005938Y0181948D02*
X0003100Y0181948D01*
X0003100Y0181350D02*
X0005339Y0181350D01*
X0004895Y0180751D02*
X0003100Y0180751D01*
X0003100Y0180153D02*
X0004647Y0180153D01*
X0004399Y0179554D02*
X0003100Y0179554D01*
X0003100Y0178956D02*
X0004151Y0178956D01*
X0003903Y0178357D02*
X0003100Y0178357D01*
X0003100Y0177759D02*
X0003831Y0177759D01*
X0003831Y0177160D02*
X0003100Y0177160D01*
X0003100Y0176562D02*
X0003831Y0176562D01*
X0003831Y0175963D02*
X0003100Y0175963D01*
X0003100Y0175365D02*
X0003831Y0175365D01*
X0003976Y0174766D02*
X0003100Y0174766D01*
X0003100Y0174168D02*
X0004224Y0174168D01*
X0004472Y0173569D02*
X0003100Y0173569D01*
X0003100Y0172971D02*
X0004720Y0172971D01*
X0004968Y0172372D02*
X0003100Y0172372D01*
X0003100Y0171774D02*
X0005515Y0171774D01*
X0006113Y0171175D02*
X0003100Y0171175D01*
X0003100Y0170577D02*
X0006712Y0170577D01*
X0007507Y0169978D02*
X0003100Y0169978D01*
X0003100Y0169380D02*
X0008952Y0169380D01*
X0014121Y0169380D02*
X0027842Y0169380D01*
X0027842Y0169978D02*
X0015566Y0169978D01*
X0016361Y0170577D02*
X0027997Y0170577D01*
X0028245Y0171175D02*
X0016959Y0171175D01*
X0017558Y0171774D02*
X0028493Y0171774D01*
X0029021Y0172372D02*
X0018105Y0172372D01*
X0018353Y0172971D02*
X0029620Y0172971D01*
X0030100Y0173950D02*
X0027700Y0171550D01*
X0027700Y0144550D01*
X0027875Y0144366D01*
X0003761Y0144366D01*
X0003761Y0037575D01*
X0005237Y0036098D01*
X0009666Y0036098D01*
X0010650Y0035114D01*
X0010828Y0035075D01*
X0010900Y0034750D01*
X0013300Y0032350D01*
X0013300Y0028750D01*
X0013426Y0028303D01*
X0013726Y0028131D02*
X0016832Y0028131D01*
X0016301Y0028003D02*
X0013726Y0028003D01*
X0013726Y0024641D01*
X0015172Y0024641D01*
X0015503Y0024730D01*
X0015799Y0024901D01*
X0016041Y0025143D01*
X0016212Y0025439D01*
X0016301Y0025770D01*
X0016301Y0028003D01*
X0016301Y0027533D02*
X0016832Y0027533D01*
X0016832Y0026934D02*
X0016301Y0026934D01*
X0016301Y0026336D02*
X0016832Y0026336D01*
X0016832Y0025737D02*
X0016292Y0025737D01*
X0016037Y0025138D02*
X0016832Y0025138D01*
X0016832Y0024540D02*
X0003100Y0024540D01*
X0003100Y0025138D02*
X0010815Y0025138D01*
X0010811Y0025143D02*
X0011053Y0024901D01*
X0011349Y0024730D01*
X0011680Y0024641D01*
X0013126Y0024641D01*
X0013126Y0028003D01*
X0013726Y0028003D01*
X0013726Y0028603D01*
X0016301Y0028603D01*
X0016301Y0030837D01*
X0016212Y0031167D01*
X0016041Y0031464D01*
X0015799Y0031706D01*
X0015503Y0031877D01*
X0015172Y0031965D01*
X0013726Y0031965D01*
X0013726Y0028603D01*
X0013126Y0028603D01*
X0013126Y0028003D01*
X0010551Y0028003D01*
X0010551Y0025770D01*
X0010640Y0025439D01*
X0010811Y0025143D01*
X0010560Y0025737D02*
X0003100Y0025737D01*
X0003100Y0026336D02*
X0010551Y0026336D01*
X0010551Y0026934D02*
X0003100Y0026934D01*
X0003100Y0027533D02*
X0010551Y0027533D01*
X0010551Y0028603D02*
X0013126Y0028603D01*
X0013126Y0031965D01*
X0011680Y0031965D01*
X0011349Y0031877D01*
X0011053Y0031706D01*
X0010811Y0031464D01*
X0010640Y0031167D01*
X0010551Y0030837D01*
X0010551Y0028603D01*
X0010551Y0028730D02*
X0003100Y0028730D01*
X0003100Y0029328D02*
X0010551Y0029328D01*
X0010551Y0029927D02*
X0003100Y0029927D01*
X0003100Y0030525D02*
X0010551Y0030525D01*
X0010628Y0031124D02*
X0003100Y0031124D01*
X0003100Y0031722D02*
X0011082Y0031722D01*
X0011128Y0032321D02*
X0010528Y0032321D01*
X0010528Y0032919D02*
X0011128Y0032919D01*
X0011128Y0033518D02*
X0010528Y0033518D01*
X0010528Y0034116D02*
X0011128Y0034116D01*
X0011128Y0034715D02*
X0010528Y0034715D01*
X0010528Y0035313D02*
X0003100Y0035313D01*
X0003100Y0034715D02*
X0007165Y0034715D01*
X0007165Y0034116D02*
X0003100Y0034116D01*
X0003100Y0033518D02*
X0007165Y0033518D01*
X0007300Y0032919D02*
X0003100Y0032919D01*
X0003100Y0032321D02*
X0007908Y0032321D01*
X0007165Y0035912D02*
X0003100Y0035912D01*
X0003100Y0036510D02*
X0005097Y0036510D01*
X0004529Y0037109D02*
X0003100Y0037109D01*
X0003100Y0037707D02*
X0004529Y0037707D01*
X0004529Y0038306D02*
X0003100Y0038306D01*
X0003100Y0038904D02*
X0004529Y0038904D01*
X0004529Y0039503D02*
X0003100Y0039503D01*
X0003100Y0040101D02*
X0004529Y0040101D01*
X0004529Y0040700D02*
X0003100Y0040700D01*
X0003100Y0041298D02*
X0004529Y0041298D01*
X0004529Y0041897D02*
X0003100Y0041897D01*
X0003100Y0042495D02*
X0004529Y0042495D01*
X0004529Y0043094D02*
X0003100Y0043094D01*
X0003100Y0043692D02*
X0004529Y0043692D01*
X0004529Y0044291D02*
X0003100Y0044291D01*
X0003100Y0044889D02*
X0004529Y0044889D01*
X0004529Y0045488D02*
X0003100Y0045488D01*
X0003100Y0046086D02*
X0004529Y0046086D01*
X0004529Y0046685D02*
X0003100Y0046685D01*
X0003100Y0047283D02*
X0004529Y0047283D01*
X0004529Y0047882D02*
X0003100Y0047882D01*
X0003100Y0048480D02*
X0004529Y0048480D01*
X0004529Y0049079D02*
X0003100Y0049079D01*
X0003100Y0049677D02*
X0004529Y0049677D01*
X0004529Y0050276D02*
X0003100Y0050276D01*
X0003100Y0050874D02*
X0004529Y0050874D01*
X0004529Y0051473D02*
X0003100Y0051473D01*
X0003100Y0052071D02*
X0004529Y0052071D01*
X0004529Y0052670D02*
X0003100Y0052670D01*
X0003100Y0053269D02*
X0004529Y0053269D01*
X0004529Y0053867D02*
X0003100Y0053867D01*
X0003100Y0054466D02*
X0004529Y0054466D01*
X0004529Y0055064D02*
X0003100Y0055064D01*
X0003100Y0055663D02*
X0004529Y0055663D01*
X0004529Y0056261D02*
X0003100Y0056261D01*
X0003100Y0056860D02*
X0004529Y0056860D01*
X0004529Y0057458D02*
X0003100Y0057458D01*
X0003100Y0058057D02*
X0004529Y0058057D01*
X0004529Y0058655D02*
X0003100Y0058655D01*
X0003100Y0059254D02*
X0004529Y0059254D01*
X0004529Y0059852D02*
X0003100Y0059852D01*
X0003100Y0060451D02*
X0004762Y0060451D01*
X0005361Y0061049D02*
X0003100Y0061049D01*
X0003100Y0061648D02*
X0012906Y0061648D01*
X0012307Y0062246D02*
X0003100Y0062246D01*
X0003100Y0062845D02*
X0010224Y0062845D01*
X0009625Y0063443D02*
X0003100Y0063443D01*
X0003100Y0064042D02*
X0009250Y0064042D01*
X0009250Y0064640D02*
X0003100Y0064640D01*
X0003100Y0065239D02*
X0009250Y0065239D01*
X0009405Y0065837D02*
X0003100Y0065837D01*
X0003100Y0066436D02*
X0010003Y0066436D01*
X0011500Y0064750D02*
X0015700Y0060550D01*
X0021700Y0060550D01*
X0021772Y0060547D01*
X0021772Y0062516D02*
X0021477Y0062673D01*
X0019017Y0062673D01*
X0008682Y0073008D01*
X0010932Y0073019D02*
X0017913Y0073019D01*
X0017913Y0073120D02*
X0017913Y0072358D01*
X0017913Y0071597D01*
X0018002Y0071266D01*
X0018173Y0070969D01*
X0018313Y0070829D01*
X0018313Y0069426D01*
X0018334Y0069406D01*
X0018313Y0069385D01*
X0018313Y0067458D01*
X0018334Y0067437D01*
X0018313Y0067416D01*
X0018313Y0065489D01*
X0018334Y0065469D01*
X0018313Y0065448D01*
X0018313Y0065073D01*
X0010932Y0072455D01*
X0010932Y0073940D01*
X0009614Y0075258D01*
X0007750Y0075258D01*
X0007300Y0074808D01*
X0007300Y0087653D01*
X0016900Y0097253D01*
X0016900Y0080453D01*
X0017603Y0079750D01*
X0018203Y0079150D01*
X0018313Y0079150D01*
X0018313Y0077300D01*
X0018334Y0077280D01*
X0018313Y0077259D01*
X0018313Y0075332D01*
X0018334Y0075311D01*
X0018313Y0075290D01*
X0018313Y0073887D01*
X0018173Y0073747D01*
X0018002Y0073451D01*
X0017913Y0073120D01*
X0018099Y0073618D02*
X0010932Y0073618D01*
X0010655Y0074216D02*
X0018313Y0074216D01*
X0018313Y0074815D02*
X0010057Y0074815D01*
X0010966Y0072421D02*
X0017913Y0072421D01*
X0017913Y0072358D02*
X0021772Y0072358D01*
X0017913Y0072358D01*
X0017913Y0071822D02*
X0011564Y0071822D01*
X0012163Y0071224D02*
X0018026Y0071224D01*
X0018313Y0070625D02*
X0012761Y0070625D01*
X0013360Y0070027D02*
X0018313Y0070027D01*
X0018313Y0069428D02*
X0013958Y0069428D01*
X0014557Y0068830D02*
X0018313Y0068830D01*
X0018313Y0068231D02*
X0015155Y0068231D01*
X0015754Y0067633D02*
X0018313Y0067633D01*
X0018313Y0067034D02*
X0016353Y0067034D01*
X0016951Y0066436D02*
X0018313Y0066436D01*
X0018313Y0065837D02*
X0017550Y0065837D01*
X0018148Y0065239D02*
X0018313Y0065239D01*
X0016549Y0063443D02*
X0014504Y0063443D01*
X0013906Y0064042D02*
X0015951Y0064042D01*
X0015352Y0064640D02*
X0013750Y0064640D01*
X0013750Y0065239D02*
X0014754Y0065239D01*
X0014155Y0065837D02*
X0013595Y0065837D01*
X0013557Y0066436D02*
X0012997Y0066436D01*
X0012958Y0067034D02*
X0003100Y0067034D01*
X0003100Y0067633D02*
X0012360Y0067633D01*
X0011761Y0068231D02*
X0007363Y0068231D01*
X0007961Y0068830D02*
X0011163Y0068830D01*
X0010564Y0069428D02*
X0008350Y0069428D01*
X0008350Y0070027D02*
X0009966Y0070027D01*
X0009367Y0070625D02*
X0008350Y0070625D01*
X0006100Y0070150D02*
X0006100Y0088150D01*
X0028300Y0110350D01*
X0090700Y0110350D01*
X0096100Y0115750D01*
X0094477Y0117309D02*
X0094254Y0117309D01*
X0093878Y0116711D02*
X0090957Y0116711D01*
X0090359Y0116112D02*
X0093850Y0116112D01*
X0093850Y0115514D02*
X0090100Y0115514D01*
X0090100Y0114915D02*
X0093568Y0114915D01*
X0092969Y0114317D02*
X0090516Y0114317D01*
X0091114Y0113718D02*
X0092371Y0113718D01*
X0091772Y0113120D02*
X0091150Y0113120D01*
X0091150Y0112521D02*
X0091174Y0112521D01*
X0088900Y0112750D02*
X0088900Y0116350D01*
X0092500Y0119950D01*
X0092500Y0122350D01*
X0093072Y0122417D01*
X0095472Y0122696D02*
X0095672Y0122696D01*
X0095672Y0123294D02*
X0095472Y0123294D01*
X0095472Y0123893D02*
X0095672Y0123893D01*
X0095672Y0124491D02*
X0095472Y0124491D01*
X0095472Y0125090D02*
X0095672Y0125090D01*
X0095672Y0125688D02*
X0095472Y0125688D01*
X0095309Y0126287D02*
X0095834Y0126287D01*
X0096146Y0126885D02*
X0094998Y0126885D01*
X0094354Y0127484D02*
X0096789Y0127484D01*
X0097671Y0128082D02*
X0080131Y0128082D01*
X0079965Y0127484D02*
X0081789Y0127484D01*
X0081146Y0126885D02*
X0080563Y0126885D01*
X0080657Y0128681D02*
X0097072Y0128681D01*
X0096474Y0129279D02*
X0080905Y0129279D01*
X0080972Y0129878D02*
X0095875Y0129878D01*
X0095277Y0130476D02*
X0080938Y0130476D01*
X0080690Y0131075D02*
X0094678Y0131075D01*
X0094080Y0131673D02*
X0080210Y0131673D01*
X0079158Y0132272D02*
X0093481Y0132272D01*
X0092883Y0132871D02*
X0079902Y0132871D01*
X0080517Y0133469D02*
X0092284Y0133469D01*
X0091686Y0134068D02*
X0080817Y0134068D01*
X0080972Y0134666D02*
X0091087Y0134666D01*
X0090489Y0135265D02*
X0080972Y0135265D01*
X0080778Y0135863D02*
X0089890Y0135863D01*
X0090100Y0137350D02*
X0099100Y0128350D01*
X0103900Y0128350D01*
X0107500Y0124750D01*
X0107500Y0122950D01*
X0108072Y0122417D01*
X0107500Y0122350D01*
X0107500Y0112150D01*
X0091300Y0095950D01*
X0082900Y0095950D01*
X0082300Y0095350D01*
X0078700Y0095350D01*
X0084100Y0093550D02*
X0090700Y0093550D01*
X0112900Y0115750D01*
X0112900Y0122350D01*
X0113072Y0122417D01*
X0115472Y0122696D02*
X0115672Y0122696D01*
X0115672Y0123294D02*
X0115472Y0123294D01*
X0115472Y0123893D02*
X0115672Y0123893D01*
X0115672Y0124491D02*
X0115472Y0124491D01*
X0115472Y0125090D02*
X0115663Y0125090D01*
X0115672Y0125082D02*
X0115672Y0118940D01*
X0116037Y0118058D01*
X0116712Y0117383D01*
X0117594Y0117017D01*
X0118549Y0117017D01*
X0119431Y0117383D01*
X0120106Y0118058D01*
X0120472Y0118940D01*
X0120472Y0125082D01*
X0120672Y0124882D01*
X0120672Y0118940D01*
X0121037Y0118058D01*
X0121712Y0117383D01*
X0122594Y0117017D01*
X0123549Y0117017D01*
X0124431Y0117383D01*
X0125106Y0118058D01*
X0125472Y0118940D01*
X0125472Y0125895D01*
X0125106Y0126777D01*
X0124431Y0127452D01*
X0123549Y0127817D01*
X0122594Y0127817D01*
X0121712Y0127452D01*
X0121604Y0127344D01*
X0112300Y0136647D01*
X0112300Y0136647D01*
X0111597Y0137350D01*
X0111100Y0136150D02*
X0095500Y0136150D01*
X0089500Y0142150D01*
X0089500Y0151150D01*
X0087100Y0153550D01*
X0087100Y0149950D02*
X0087100Y0145750D01*
X0087100Y0149950D02*
X0077500Y0159550D01*
X0075700Y0159550D01*
X0075572Y0159917D01*
X0075100Y0164350D02*
X0075572Y0164917D01*
X0075700Y0164950D01*
X0096700Y0164950D01*
X0096700Y0138550D01*
X0098380Y0140053D02*
X0117353Y0140053D01*
X0117295Y0140651D02*
X0097900Y0140651D01*
X0097900Y0141250D02*
X0117295Y0141250D01*
X0117295Y0141848D02*
X0097900Y0141848D01*
X0097900Y0142447D02*
X0117348Y0142447D01*
X0117596Y0143045D02*
X0097900Y0143045D01*
X0097900Y0143644D02*
X0117844Y0143644D01*
X0118092Y0144242D02*
X0097900Y0144242D01*
X0097900Y0144841D02*
X0118667Y0144841D01*
X0119265Y0145439D02*
X0097900Y0145439D01*
X0097900Y0146038D02*
X0120220Y0146038D01*
X0125057Y0146038D02*
X0138966Y0146038D01*
X0137539Y0145439D02*
X0126012Y0145439D01*
X0126610Y0144841D02*
X0136940Y0144841D01*
X0136342Y0144242D02*
X0127185Y0144242D01*
X0127433Y0143644D02*
X0135987Y0143644D01*
X0135739Y0143045D02*
X0127681Y0143045D01*
X0127929Y0142447D02*
X0135491Y0142447D01*
X0135406Y0141848D02*
X0127982Y0141848D01*
X0127982Y0141250D02*
X0135406Y0141250D01*
X0135406Y0140651D02*
X0127982Y0140651D01*
X0127924Y0140053D02*
X0135496Y0140053D01*
X0135744Y0139454D02*
X0127676Y0139454D01*
X0127428Y0138856D02*
X0135992Y0138856D01*
X0136354Y0138257D02*
X0127180Y0138257D01*
X0126598Y0137659D02*
X0136953Y0137659D01*
X0137551Y0137060D02*
X0139371Y0136306D01*
X0145172Y0135265D02*
X0113683Y0135265D01*
X0114281Y0134666D02*
X0145172Y0134666D01*
X0145326Y0134068D02*
X0114880Y0134068D01*
X0115478Y0133469D02*
X0145626Y0133469D01*
X0146242Y0132871D02*
X0116077Y0132871D01*
X0116675Y0132272D02*
X0146985Y0132272D01*
X0145934Y0131673D02*
X0117274Y0131673D01*
X0117872Y0131075D02*
X0145453Y0131075D01*
X0145206Y0130476D02*
X0118471Y0130476D01*
X0119069Y0129878D02*
X0145172Y0129878D01*
X0145238Y0129279D02*
X0119668Y0129279D01*
X0120266Y0128681D02*
X0145486Y0128681D01*
X0146012Y0128082D02*
X0120865Y0128082D01*
X0121463Y0127484D02*
X0121789Y0127484D01*
X0122500Y0124750D02*
X0111100Y0136150D01*
X0107500Y0134950D02*
X0094300Y0134950D01*
X0081100Y0148150D01*
X0081100Y0151150D01*
X0079900Y0152350D01*
X0067900Y0152350D01*
X0061900Y0158350D01*
X0052900Y0158350D01*
X0052560Y0158657D01*
X0047500Y0157150D02*
X0051100Y0153550D01*
X0063100Y0153550D01*
X0073300Y0144550D02*
X0075100Y0144550D01*
X0075572Y0144917D01*
X0073300Y0144550D02*
X0067300Y0138550D01*
X0052300Y0138550D01*
X0051100Y0136150D02*
X0068500Y0136150D01*
X0072100Y0139750D01*
X0075100Y0139750D01*
X0075572Y0139917D01*
X0071500Y0137350D02*
X0090100Y0137350D01*
X0098950Y0137659D02*
X0118679Y0137659D01*
X0118097Y0138257D02*
X0098950Y0138257D01*
X0098950Y0138856D02*
X0117849Y0138856D01*
X0117601Y0139454D02*
X0098950Y0139454D01*
X0097900Y0146636D02*
X0145897Y0146636D01*
X0145438Y0146038D02*
X0141745Y0146038D01*
X0143172Y0145439D02*
X0145190Y0145439D01*
X0145172Y0144841D02*
X0143770Y0144841D01*
X0144369Y0144242D02*
X0145254Y0144242D01*
X0145501Y0143644D02*
X0144723Y0143644D01*
X0144971Y0143045D02*
X0146050Y0143045D01*
X0146895Y0147235D02*
X0097900Y0147235D01*
X0097900Y0147833D02*
X0146331Y0147833D01*
X0145663Y0148432D02*
X0097900Y0148432D01*
X0097900Y0149030D02*
X0145341Y0149030D01*
X0145172Y0149629D02*
X0097900Y0149629D01*
X0097900Y0150227D02*
X0145172Y0150227D01*
X0145350Y0150826D02*
X0097900Y0150826D01*
X0097900Y0151424D02*
X0145685Y0151424D01*
X0146383Y0152023D02*
X0097900Y0152023D01*
X0097900Y0152621D02*
X0146843Y0152621D01*
X0145875Y0153220D02*
X0097900Y0153220D01*
X0097900Y0153818D02*
X0145429Y0153818D01*
X0145181Y0154417D02*
X0097900Y0154417D01*
X0097900Y0155015D02*
X0145172Y0155015D01*
X0145262Y0155614D02*
X0097900Y0155614D01*
X0097900Y0156212D02*
X0145510Y0156212D01*
X0146071Y0156811D02*
X0097900Y0156811D01*
X0097900Y0157409D02*
X0155120Y0157409D01*
X0155120Y0156811D02*
X0155072Y0156811D01*
X0155056Y0158008D02*
X0155120Y0158008D01*
X0157520Y0158008D02*
X0170473Y0158008D01*
X0170471Y0158607D02*
X0157520Y0158607D01*
X0157520Y0159205D02*
X0170470Y0159205D01*
X0170468Y0159804D02*
X0157520Y0159804D01*
X0157520Y0160402D02*
X0170467Y0160402D01*
X0170466Y0161001D02*
X0157520Y0161001D01*
X0157520Y0161599D02*
X0170464Y0161599D01*
X0170463Y0162198D02*
X0157520Y0162198D01*
X0157520Y0162796D02*
X0170461Y0162796D01*
X0170460Y0163395D02*
X0157520Y0163395D01*
X0157520Y0163993D02*
X0170459Y0163993D01*
X0170457Y0164592D02*
X0157520Y0164592D01*
X0157370Y0165190D02*
X0170456Y0165190D01*
X0170454Y0165789D02*
X0155808Y0165789D01*
X0155496Y0166387D02*
X0170453Y0166387D01*
X0170451Y0166986D02*
X0154850Y0166986D01*
X0155120Y0167584D02*
X0170450Y0167584D01*
X0170449Y0168183D02*
X0155780Y0168183D01*
X0156132Y0168781D02*
X0170447Y0168781D01*
X0170446Y0169380D02*
X0156320Y0169380D01*
X0156295Y0170577D02*
X0170443Y0170577D01*
X0170441Y0171175D02*
X0156081Y0171175D01*
X0155675Y0171774D02*
X0170440Y0171774D01*
X0170439Y0172372D02*
X0154937Y0172372D01*
X0155585Y0172971D02*
X0170437Y0172971D01*
X0170436Y0173569D02*
X0156038Y0173569D01*
X0156277Y0174168D02*
X0170434Y0174168D01*
X0170433Y0174766D02*
X0150872Y0174766D01*
X0150572Y0174917D02*
X0148072Y0177417D01*
X0143072Y0177417D01*
X0143372Y0177160D02*
X0145889Y0177160D01*
X0147772Y0177717D02*
X0147772Y0179617D01*
X0148372Y0179617D01*
X0148372Y0177717D01*
X0147772Y0177717D01*
X0147772Y0177759D02*
X0148372Y0177759D01*
X0147954Y0177831D02*
X0148072Y0177417D01*
X0147954Y0177831D02*
X0146969Y0178815D01*
X0131674Y0178815D01*
X0133072Y0177417D01*
X0138072Y0177417D01*
X0138372Y0177160D02*
X0142772Y0177160D01*
X0142772Y0177117D02*
X0138372Y0177117D01*
X0138372Y0171622D01*
X0138888Y0171725D01*
X0139398Y0171936D01*
X0139857Y0172242D01*
X0140247Y0172632D01*
X0140553Y0173091D01*
X0140572Y0173136D01*
X0140590Y0173091D01*
X0140897Y0172632D01*
X0141287Y0172242D01*
X0141745Y0171936D01*
X0142255Y0171725D01*
X0142772Y0171622D01*
X0142772Y0177117D01*
X0142772Y0176562D02*
X0143372Y0176562D01*
X0143372Y0175963D02*
X0142772Y0175963D01*
X0142772Y0175365D02*
X0143372Y0175365D01*
X0143372Y0174766D02*
X0142772Y0174766D01*
X0142772Y0174168D02*
X0143372Y0174168D01*
X0143372Y0173569D02*
X0142772Y0173569D01*
X0142772Y0172971D02*
X0143372Y0172971D01*
X0143372Y0172372D02*
X0142772Y0172372D01*
X0142772Y0171774D02*
X0143372Y0171774D01*
X0144006Y0171774D02*
X0145468Y0171774D01*
X0145062Y0171175D02*
X0081081Y0171175D01*
X0081295Y0170577D02*
X0144848Y0170577D01*
X0144824Y0169380D02*
X0081320Y0169380D01*
X0081132Y0168781D02*
X0145012Y0168781D01*
X0145363Y0168183D02*
X0080780Y0168183D01*
X0080120Y0167584D02*
X0146024Y0167584D01*
X0146294Y0166986D02*
X0079850Y0166986D01*
X0080496Y0166387D02*
X0145647Y0166387D01*
X0145700Y0163395D02*
X0097900Y0163395D01*
X0097900Y0162796D02*
X0146421Y0162796D01*
X0146805Y0162198D02*
X0097900Y0162198D01*
X0097900Y0161599D02*
X0145859Y0161599D01*
X0145423Y0161001D02*
X0097900Y0161001D01*
X0097900Y0160402D02*
X0145175Y0160402D01*
X0145172Y0159804D02*
X0097900Y0159804D01*
X0097900Y0159205D02*
X0145269Y0159205D01*
X0145517Y0158607D02*
X0097900Y0158607D01*
X0097900Y0158008D02*
X0146087Y0158008D01*
X0150100Y0164950D02*
X0150572Y0164917D01*
X0150906Y0164543D01*
X0156320Y0164543D01*
X0156320Y0134031D01*
X0154351Y0132063D01*
X0152875Y0132063D01*
X0150906Y0130094D01*
X0150572Y0129917D01*
X0150872Y0125090D02*
X0170551Y0125090D01*
X0170572Y0116112D02*
X0114100Y0116112D01*
X0114100Y0115514D02*
X0170573Y0115514D01*
X0170575Y0114915D02*
X0113762Y0114915D01*
X0113163Y0114317D02*
X0170576Y0114317D01*
X0170578Y0113718D02*
X0112565Y0113718D01*
X0111966Y0113120D02*
X0170579Y0113120D01*
X0170581Y0112521D02*
X0111368Y0112521D01*
X0110769Y0111923D02*
X0170582Y0111923D01*
X0170583Y0111324D02*
X0110171Y0111324D01*
X0109572Y0110726D02*
X0170585Y0110726D01*
X0170586Y0110127D02*
X0108974Y0110127D01*
X0108375Y0109529D02*
X0170588Y0109529D01*
X0170589Y0108930D02*
X0107777Y0108930D01*
X0107178Y0108332D02*
X0170591Y0108332D01*
X0170592Y0107733D02*
X0106580Y0107733D01*
X0105981Y0107135D02*
X0170593Y0107135D01*
X0170595Y0106536D02*
X0105383Y0106536D01*
X0104784Y0105938D02*
X0170596Y0105938D01*
X0170598Y0105339D02*
X0104186Y0105339D01*
X0103587Y0104740D02*
X0170599Y0104740D01*
X0170600Y0104142D02*
X0102989Y0104142D01*
X0102390Y0103543D02*
X0170602Y0103543D01*
X0170603Y0102945D02*
X0101792Y0102945D01*
X0101193Y0102346D02*
X0170605Y0102346D01*
X0170606Y0101748D02*
X0100595Y0101748D01*
X0099996Y0101149D02*
X0170608Y0101149D01*
X0170609Y0100551D02*
X0099398Y0100551D01*
X0098799Y0099952D02*
X0170610Y0099952D01*
X0170612Y0099354D02*
X0098201Y0099354D01*
X0097602Y0098755D02*
X0170613Y0098755D01*
X0170615Y0098157D02*
X0097004Y0098157D01*
X0096405Y0097558D02*
X0170616Y0097558D01*
X0170617Y0096960D02*
X0095806Y0096960D01*
X0095208Y0096361D02*
X0170619Y0096361D01*
X0170620Y0095763D02*
X0094609Y0095763D01*
X0094011Y0095164D02*
X0170622Y0095164D01*
X0170623Y0094566D02*
X0093412Y0094566D01*
X0092814Y0093967D02*
X0170625Y0093967D01*
X0170626Y0093369D02*
X0123885Y0093369D01*
X0124483Y0092770D02*
X0170627Y0092770D01*
X0170629Y0092172D02*
X0125082Y0092172D01*
X0125105Y0091573D02*
X0170630Y0091573D01*
X0170632Y0090975D02*
X0125105Y0090975D01*
X0125105Y0090376D02*
X0170633Y0090376D01*
X0170635Y0089778D02*
X0124598Y0089778D01*
X0124000Y0089179D02*
X0170636Y0089179D01*
X0170637Y0088581D02*
X0116853Y0088581D01*
X0116255Y0089179D02*
X0121710Y0089179D01*
X0121112Y0089778D02*
X0115656Y0089778D01*
X0114489Y0089248D02*
X0127776Y0075961D01*
X0129111Y0077807D02*
X0154325Y0077807D01*
X0154336Y0077800D02*
X0155051Y0077435D01*
X0155814Y0077187D01*
X0156607Y0077061D01*
X0156709Y0077061D01*
X0156709Y0081861D01*
X0157309Y0081861D01*
X0157309Y0082461D01*
X0162109Y0082461D01*
X0162109Y0082563D01*
X0161983Y0083356D01*
X0161735Y0084119D01*
X0161371Y0084834D01*
X0160899Y0085484D01*
X0160331Y0086051D01*
X0159682Y0086523D01*
X0158966Y0086888D01*
X0158203Y0087136D01*
X0157410Y0087261D01*
X0157309Y0087261D01*
X0157309Y0082461D01*
X0156709Y0082461D01*
X0156709Y0081861D01*
X0151909Y0081861D01*
X0151909Y0081760D01*
X0152034Y0080967D01*
X0152282Y0080204D01*
X0152647Y0079488D01*
X0153119Y0078839D01*
X0153686Y0078271D01*
X0154336Y0077800D01*
X0153552Y0078406D02*
X0127028Y0078406D01*
X0126430Y0079005D02*
X0152998Y0079005D01*
X0152588Y0079603D02*
X0125831Y0079603D01*
X0125233Y0080202D02*
X0152283Y0080202D01*
X0152089Y0080800D02*
X0124634Y0080800D01*
X0124035Y0081399D02*
X0151966Y0081399D01*
X0151909Y0082461D02*
X0156709Y0082461D01*
X0156709Y0087261D01*
X0156607Y0087261D01*
X0155814Y0087136D01*
X0155051Y0086888D01*
X0154336Y0086523D01*
X0153686Y0086051D01*
X0153119Y0085484D01*
X0152647Y0084834D01*
X0152282Y0084119D01*
X0152034Y0083356D01*
X0151909Y0082563D01*
X0151909Y0082461D01*
X0151914Y0082596D02*
X0122838Y0082596D01*
X0122240Y0083194D02*
X0152009Y0083194D01*
X0152176Y0083793D02*
X0121641Y0083793D01*
X0121043Y0084391D02*
X0152421Y0084391D01*
X0152760Y0084990D02*
X0120444Y0084990D01*
X0119846Y0085588D02*
X0153223Y0085588D01*
X0153872Y0086187D02*
X0119247Y0086187D01*
X0118649Y0086785D02*
X0154850Y0086785D01*
X0156709Y0086785D02*
X0157309Y0086785D01*
X0157309Y0086187D02*
X0156709Y0086187D01*
X0156709Y0085588D02*
X0157309Y0085588D01*
X0157309Y0084990D02*
X0156709Y0084990D01*
X0156709Y0084391D02*
X0157309Y0084391D01*
X0157309Y0083793D02*
X0156709Y0083793D01*
X0156709Y0083194D02*
X0157309Y0083194D01*
X0157309Y0082596D02*
X0156709Y0082596D01*
X0157009Y0082161D02*
X0156812Y0081866D01*
X0148446Y0081866D01*
X0148446Y0122220D01*
X0148072Y0122417D01*
X0148446Y0122713D01*
X0150414Y0124681D01*
X0150572Y0124917D01*
X0148372Y0122097D02*
X0147772Y0122097D01*
X0147772Y0121499D02*
X0148372Y0121499D01*
X0148372Y0120900D02*
X0147772Y0120900D01*
X0147772Y0120302D02*
X0148372Y0120302D01*
X0148372Y0119703D02*
X0147772Y0119703D01*
X0147772Y0119105D02*
X0148372Y0119105D01*
X0148372Y0118506D02*
X0147772Y0118506D01*
X0147772Y0117908D02*
X0148372Y0117908D01*
X0148372Y0117309D02*
X0147772Y0117309D01*
X0146220Y0117309D02*
X0144254Y0117309D01*
X0144956Y0117908D02*
X0145713Y0117908D01*
X0145418Y0118506D02*
X0145292Y0118506D01*
X0141890Y0117309D02*
X0139254Y0117309D01*
X0139431Y0117383D02*
X0140106Y0118058D01*
X0140472Y0118940D01*
X0140472Y0125895D01*
X0140106Y0126777D01*
X0139431Y0127452D01*
X0138549Y0127817D01*
X0137594Y0127817D01*
X0136712Y0127452D01*
X0136037Y0126777D01*
X0135672Y0125895D01*
X0135672Y0118940D01*
X0136037Y0118058D01*
X0136712Y0117383D01*
X0137594Y0117017D01*
X0138549Y0117017D01*
X0139431Y0117383D01*
X0139956Y0117908D02*
X0141187Y0117908D01*
X0140851Y0118506D02*
X0140292Y0118506D01*
X0140472Y0119105D02*
X0140672Y0119105D01*
X0140672Y0119703D02*
X0140472Y0119703D01*
X0140472Y0120302D02*
X0140672Y0120302D01*
X0140672Y0120900D02*
X0140472Y0120900D01*
X0140472Y0121499D02*
X0140672Y0121499D01*
X0140672Y0122097D02*
X0140472Y0122097D01*
X0140472Y0122696D02*
X0140672Y0122696D01*
X0140672Y0123294D02*
X0140472Y0123294D01*
X0140472Y0123893D02*
X0140672Y0123893D01*
X0140672Y0124491D02*
X0140472Y0124491D01*
X0140472Y0125090D02*
X0140672Y0125090D01*
X0140672Y0125688D02*
X0140472Y0125688D01*
X0140309Y0126287D02*
X0140834Y0126287D01*
X0141146Y0126885D02*
X0139998Y0126885D01*
X0139354Y0127484D02*
X0141789Y0127484D01*
X0144354Y0127484D02*
X0146178Y0127484D01*
X0145580Y0126885D02*
X0144998Y0126885D01*
X0136789Y0127484D02*
X0134354Y0127484D01*
X0134431Y0127452D02*
X0133549Y0127817D01*
X0132594Y0127817D01*
X0131712Y0127452D01*
X0131037Y0126777D01*
X0130672Y0125895D01*
X0130672Y0118940D01*
X0131037Y0118058D01*
X0131712Y0117383D01*
X0132594Y0117017D01*
X0133549Y0117017D01*
X0134431Y0117383D01*
X0135106Y0118058D01*
X0135472Y0118940D01*
X0135472Y0125895D01*
X0135106Y0126777D01*
X0134431Y0127452D01*
X0134998Y0126885D02*
X0136146Y0126885D01*
X0135834Y0126287D02*
X0135309Y0126287D01*
X0135472Y0125688D02*
X0135672Y0125688D01*
X0135672Y0125090D02*
X0135472Y0125090D01*
X0135472Y0124491D02*
X0135672Y0124491D01*
X0135672Y0123893D02*
X0135472Y0123893D01*
X0135472Y0123294D02*
X0135672Y0123294D01*
X0135672Y0122696D02*
X0135472Y0122696D01*
X0135472Y0122097D02*
X0135672Y0122097D01*
X0135672Y0121499D02*
X0135472Y0121499D01*
X0135472Y0120900D02*
X0135672Y0120900D01*
X0135672Y0120302D02*
X0135472Y0120302D01*
X0135472Y0119703D02*
X0135672Y0119703D01*
X0135672Y0119105D02*
X0135472Y0119105D01*
X0135292Y0118506D02*
X0135851Y0118506D01*
X0136187Y0117908D02*
X0134956Y0117908D01*
X0134254Y0117309D02*
X0136890Y0117309D01*
X0131890Y0117309D02*
X0129254Y0117309D01*
X0129431Y0117383D02*
X0130106Y0118058D01*
X0130472Y0118940D01*
X0130472Y0125895D01*
X0130106Y0126777D01*
X0129431Y0127452D01*
X0128549Y0127817D01*
X0127594Y0127817D01*
X0126712Y0127452D01*
X0126037Y0126777D01*
X0125672Y0125895D01*
X0125672Y0118940D01*
X0126037Y0118058D01*
X0126712Y0117383D01*
X0127594Y0117017D01*
X0128549Y0117017D01*
X0129431Y0117383D01*
X0129956Y0117908D02*
X0131187Y0117908D01*
X0130851Y0118506D02*
X0130292Y0118506D01*
X0130472Y0119105D02*
X0130672Y0119105D01*
X0130672Y0119703D02*
X0130472Y0119703D01*
X0130472Y0120302D02*
X0130672Y0120302D01*
X0130672Y0120900D02*
X0130472Y0120900D01*
X0130472Y0121499D02*
X0130672Y0121499D01*
X0130672Y0122097D02*
X0130472Y0122097D01*
X0130472Y0122696D02*
X0130672Y0122696D01*
X0130672Y0123294D02*
X0130472Y0123294D01*
X0130472Y0123893D02*
X0130672Y0123893D01*
X0130672Y0124491D02*
X0130472Y0124491D01*
X0130472Y0125090D02*
X0130672Y0125090D01*
X0130672Y0125688D02*
X0130472Y0125688D01*
X0130309Y0126287D02*
X0130834Y0126287D01*
X0131146Y0126885D02*
X0129998Y0126885D01*
X0129354Y0127484D02*
X0131789Y0127484D01*
X0126789Y0127484D02*
X0124354Y0127484D01*
X0124998Y0126885D02*
X0126146Y0126885D01*
X0125834Y0126287D02*
X0125309Y0126287D01*
X0125472Y0125688D02*
X0125672Y0125688D01*
X0125672Y0125090D02*
X0125472Y0125090D01*
X0125472Y0124491D02*
X0125672Y0124491D01*
X0125672Y0123893D02*
X0125472Y0123893D01*
X0125472Y0123294D02*
X0125672Y0123294D01*
X0125672Y0122696D02*
X0125472Y0122696D01*
X0125472Y0122097D02*
X0125672Y0122097D01*
X0125672Y0121499D02*
X0125472Y0121499D01*
X0125472Y0120900D02*
X0125672Y0120900D01*
X0125672Y0120302D02*
X0125472Y0120302D01*
X0125472Y0119703D02*
X0125672Y0119703D01*
X0125672Y0119105D02*
X0125472Y0119105D01*
X0125292Y0118506D02*
X0125851Y0118506D01*
X0126187Y0117908D02*
X0124956Y0117908D01*
X0124254Y0117309D02*
X0126890Y0117309D01*
X0123072Y0122417D02*
X0122500Y0122950D01*
X0122500Y0124750D01*
X0120672Y0124491D02*
X0120472Y0124491D01*
X0120472Y0123893D02*
X0120672Y0123893D01*
X0120672Y0123294D02*
X0120472Y0123294D01*
X0120472Y0122696D02*
X0120672Y0122696D01*
X0120672Y0122097D02*
X0120472Y0122097D01*
X0120472Y0121499D02*
X0120672Y0121499D01*
X0120672Y0120900D02*
X0120472Y0120900D01*
X0120472Y0120302D02*
X0120672Y0120302D01*
X0120672Y0119703D02*
X0120472Y0119703D01*
X0120472Y0119105D02*
X0120672Y0119105D01*
X0120851Y0118506D02*
X0120292Y0118506D01*
X0119956Y0117908D02*
X0121187Y0117908D01*
X0121890Y0117309D02*
X0119254Y0117309D01*
X0116890Y0117309D02*
X0114254Y0117309D01*
X0114100Y0117246D02*
X0114431Y0117383D01*
X0115106Y0118058D01*
X0115472Y0118940D01*
X0115472Y0125282D01*
X0115672Y0125082D01*
X0117700Y0124750D02*
X0117700Y0122950D01*
X0118072Y0122417D01*
X0117700Y0124750D02*
X0107500Y0134950D01*
X0103072Y0122417D02*
X0102700Y0122350D01*
X0102700Y0113950D01*
X0100300Y0116350D02*
X0100300Y0120550D01*
X0098500Y0122350D01*
X0098072Y0122417D01*
X0095672Y0122097D02*
X0095472Y0122097D01*
X0095472Y0121499D02*
X0095672Y0121499D01*
X0095672Y0120900D02*
X0095472Y0120900D01*
X0095472Y0120302D02*
X0095672Y0120302D01*
X0095672Y0119703D02*
X0095472Y0119703D01*
X0095472Y0119105D02*
X0095672Y0119105D01*
X0095851Y0118506D02*
X0095292Y0118506D01*
X0095075Y0117908D02*
X0094956Y0117908D01*
X0091890Y0117309D02*
X0091556Y0117309D01*
X0090556Y0119703D02*
X0090472Y0119703D01*
X0090472Y0120302D02*
X0090672Y0120302D01*
X0090672Y0120900D02*
X0090472Y0120900D01*
X0090472Y0121499D02*
X0090672Y0121499D01*
X0090672Y0122097D02*
X0090472Y0122097D01*
X0090472Y0122696D02*
X0090672Y0122696D01*
X0090672Y0123294D02*
X0090472Y0123294D01*
X0090472Y0123893D02*
X0090672Y0123893D01*
X0090672Y0124491D02*
X0090472Y0124491D01*
X0090472Y0125090D02*
X0090672Y0125090D01*
X0090672Y0125688D02*
X0090472Y0125688D01*
X0090309Y0126287D02*
X0090834Y0126287D01*
X0091146Y0126885D02*
X0089998Y0126885D01*
X0089354Y0127484D02*
X0091789Y0127484D01*
X0086789Y0127484D02*
X0084354Y0127484D01*
X0084998Y0126885D02*
X0086146Y0126885D01*
X0085834Y0126287D02*
X0085309Y0126287D01*
X0085472Y0125688D02*
X0085672Y0125688D01*
X0085672Y0125090D02*
X0085472Y0125090D01*
X0085472Y0124491D02*
X0085672Y0124491D01*
X0085672Y0123893D02*
X0085472Y0123893D01*
X0085472Y0123294D02*
X0085672Y0123294D01*
X0085672Y0122696D02*
X0085472Y0122696D01*
X0085472Y0122097D02*
X0085672Y0122097D01*
X0085672Y0121499D02*
X0085472Y0121499D01*
X0085472Y0120900D02*
X0085672Y0120900D01*
X0085672Y0120302D02*
X0085472Y0120302D01*
X0085300Y0118150D02*
X0087700Y0120550D01*
X0087700Y0122350D01*
X0088072Y0122417D01*
X0085300Y0118150D02*
X0085300Y0113950D01*
X0083681Y0115514D02*
X0003100Y0115514D01*
X0003100Y0116112D02*
X0084100Y0116112D01*
X0084100Y0116711D02*
X0078817Y0116711D01*
X0078372Y0116711D02*
X0077772Y0116711D01*
X0077326Y0116711D02*
X0003100Y0116711D01*
X0003100Y0117309D02*
X0076220Y0117309D01*
X0075713Y0117908D02*
X0003100Y0117908D01*
X0003100Y0118506D02*
X0075418Y0118506D01*
X0075279Y0119105D02*
X0055836Y0119105D01*
X0056435Y0119703D02*
X0075272Y0119703D01*
X0075272Y0120302D02*
X0065748Y0120302D01*
X0066347Y0120900D02*
X0075272Y0120900D01*
X0075272Y0121499D02*
X0066945Y0121499D01*
X0067544Y0122097D02*
X0075272Y0122097D01*
X0077772Y0122097D02*
X0078372Y0122097D01*
X0078100Y0122350D02*
X0078072Y0122417D01*
X0075572Y0124917D01*
X0078100Y0122350D02*
X0073300Y0117550D01*
X0054700Y0117550D01*
X0027700Y0144550D01*
X0031645Y0154057D02*
X0033475Y0154057D01*
X0035166Y0154758D01*
X0036460Y0156052D01*
X0037160Y0157742D01*
X0037160Y0159572D01*
X0036460Y0161263D01*
X0035166Y0162557D01*
X0033475Y0163257D01*
X0031645Y0163257D01*
X0029954Y0162557D01*
X0028660Y0161263D01*
X0027960Y0159572D01*
X0027960Y0157742D01*
X0028660Y0156052D01*
X0029954Y0154758D01*
X0031645Y0154057D01*
X0030777Y0154417D02*
X0003100Y0154417D01*
X0003100Y0155015D02*
X0029696Y0155015D01*
X0029098Y0155614D02*
X0003100Y0155614D01*
X0003100Y0156212D02*
X0028594Y0156212D01*
X0028346Y0156811D02*
X0003100Y0156811D01*
X0003100Y0157409D02*
X0028098Y0157409D01*
X0027960Y0158008D02*
X0003100Y0158008D01*
X0003100Y0158607D02*
X0027960Y0158607D01*
X0027960Y0159205D02*
X0003100Y0159205D01*
X0003100Y0159804D02*
X0028056Y0159804D01*
X0028303Y0160402D02*
X0003100Y0160402D01*
X0003100Y0161001D02*
X0028551Y0161001D01*
X0028996Y0161599D02*
X0003100Y0161599D01*
X0003100Y0162198D02*
X0029595Y0162198D01*
X0030531Y0162796D02*
X0003100Y0162796D01*
X0003100Y0163395D02*
X0036559Y0163395D01*
X0035960Y0163993D02*
X0003100Y0163993D01*
X0003100Y0164592D02*
X0035362Y0164592D01*
X0034763Y0165190D02*
X0034570Y0165190D01*
X0034589Y0162796D02*
X0040531Y0162796D01*
X0039595Y0162198D02*
X0035525Y0162198D01*
X0036124Y0161599D02*
X0038996Y0161599D01*
X0038551Y0161001D02*
X0036568Y0161001D01*
X0036816Y0160402D02*
X0038303Y0160402D01*
X0038056Y0159804D02*
X0037064Y0159804D01*
X0037160Y0159205D02*
X0037960Y0159205D01*
X0037960Y0158607D02*
X0037160Y0158607D01*
X0037160Y0158008D02*
X0037960Y0158008D01*
X0038098Y0157409D02*
X0037022Y0157409D01*
X0036774Y0156811D02*
X0038346Y0156811D01*
X0038594Y0156212D02*
X0036526Y0156212D01*
X0036022Y0155614D02*
X0039098Y0155614D01*
X0039696Y0155015D02*
X0035423Y0155015D01*
X0034343Y0154417D02*
X0040777Y0154417D01*
X0040900Y0153818D02*
X0003100Y0153818D01*
X0003100Y0153220D02*
X0040900Y0153220D01*
X0040900Y0152621D02*
X0003100Y0152621D01*
X0003100Y0152023D02*
X0040900Y0152023D01*
X0040677Y0151424D02*
X0003100Y0151424D01*
X0003100Y0150826D02*
X0040078Y0150826D01*
X0039480Y0150227D02*
X0003100Y0150227D01*
X0003100Y0149629D02*
X0038881Y0149629D01*
X0038283Y0149030D02*
X0003100Y0149030D01*
X0003100Y0148432D02*
X0037684Y0148432D01*
X0037086Y0147833D02*
X0003100Y0147833D01*
X0003100Y0147235D02*
X0036487Y0147235D01*
X0036100Y0146636D02*
X0003100Y0146636D01*
X0003100Y0146038D02*
X0036100Y0146038D01*
X0036100Y0145439D02*
X0003100Y0145439D01*
X0003100Y0144841D02*
X0036100Y0144841D01*
X0036100Y0144242D02*
X0003100Y0144242D01*
X0003100Y0143644D02*
X0036100Y0143644D01*
X0036508Y0143045D02*
X0003100Y0143045D01*
X0003100Y0142447D02*
X0037107Y0142447D01*
X0037705Y0141848D02*
X0003100Y0141848D01*
X0003100Y0141250D02*
X0038304Y0141250D01*
X0038902Y0140651D02*
X0003100Y0140651D01*
X0003100Y0140053D02*
X0039501Y0140053D01*
X0040099Y0139454D02*
X0003100Y0139454D01*
X0003100Y0138856D02*
X0040698Y0138856D01*
X0041296Y0138257D02*
X0003100Y0138257D01*
X0003100Y0137659D02*
X0041895Y0137659D01*
X0042493Y0137060D02*
X0003100Y0137060D01*
X0003100Y0136462D02*
X0043092Y0136462D01*
X0043690Y0135863D02*
X0003100Y0135863D01*
X0003100Y0135265D02*
X0044289Y0135265D01*
X0044887Y0134666D02*
X0003100Y0134666D01*
X0003100Y0134068D02*
X0045486Y0134068D01*
X0046300Y0134950D02*
X0069100Y0134950D01*
X0071500Y0137350D01*
X0070326Y0134068D02*
X0069914Y0134068D01*
X0070626Y0133469D02*
X0003100Y0133469D01*
X0003100Y0132871D02*
X0071242Y0132871D01*
X0071985Y0132272D02*
X0003100Y0132272D01*
X0003100Y0131673D02*
X0070934Y0131673D01*
X0070453Y0131075D02*
X0003100Y0131075D01*
X0003100Y0130476D02*
X0070206Y0130476D01*
X0070172Y0129878D02*
X0003100Y0129878D01*
X0003100Y0129279D02*
X0070238Y0129279D01*
X0070486Y0128681D02*
X0003100Y0128681D01*
X0003100Y0128082D02*
X0070135Y0128082D01*
X0069536Y0127484D02*
X0003100Y0127484D01*
X0003100Y0126885D02*
X0068938Y0126885D01*
X0068339Y0126287D02*
X0003100Y0126287D01*
X0003100Y0125688D02*
X0067741Y0125688D01*
X0067142Y0125090D02*
X0003100Y0125090D01*
X0003100Y0124491D02*
X0066544Y0124491D01*
X0065945Y0123893D02*
X0003100Y0123893D01*
X0003100Y0123294D02*
X0053662Y0123294D01*
X0053063Y0122696D02*
X0003100Y0122696D01*
X0003100Y0122097D02*
X0052465Y0122097D01*
X0052450Y0121499D02*
X0003100Y0121499D01*
X0003100Y0120900D02*
X0052450Y0120900D01*
X0052450Y0120302D02*
X0003100Y0120302D01*
X0003100Y0119703D02*
X0052965Y0119703D01*
X0053564Y0119105D02*
X0003100Y0119105D01*
X0003100Y0114915D02*
X0083083Y0114915D01*
X0083050Y0114317D02*
X0003100Y0114317D01*
X0003100Y0113718D02*
X0083050Y0113718D01*
X0083050Y0113120D02*
X0003100Y0113120D01*
X0003100Y0112521D02*
X0083547Y0112521D01*
X0084146Y0111923D02*
X0003100Y0111923D01*
X0003100Y0111324D02*
X0027577Y0111324D01*
X0026978Y0110726D02*
X0003100Y0110726D01*
X0003100Y0110127D02*
X0026380Y0110127D01*
X0025781Y0109529D02*
X0003100Y0109529D01*
X0003100Y0108930D02*
X0025183Y0108930D01*
X0024584Y0108332D02*
X0003100Y0108332D01*
X0003100Y0107733D02*
X0023986Y0107733D01*
X0023387Y0107135D02*
X0003100Y0107135D01*
X0003100Y0106536D02*
X0022789Y0106536D01*
X0022190Y0105938D02*
X0003100Y0105938D01*
X0003100Y0105339D02*
X0021592Y0105339D01*
X0020993Y0104740D02*
X0003100Y0104740D01*
X0003100Y0104142D02*
X0020395Y0104142D01*
X0019796Y0103543D02*
X0003100Y0103543D01*
X0003100Y0102945D02*
X0019198Y0102945D01*
X0018599Y0102346D02*
X0003100Y0102346D01*
X0003100Y0101748D02*
X0018001Y0101748D01*
X0017402Y0101149D02*
X0003100Y0101149D01*
X0003100Y0100551D02*
X0016803Y0100551D01*
X0016205Y0099952D02*
X0003100Y0099952D01*
X0003100Y0099354D02*
X0015606Y0099354D01*
X0015008Y0098755D02*
X0003100Y0098755D01*
X0003100Y0098157D02*
X0014409Y0098157D01*
X0013811Y0097558D02*
X0003100Y0097558D01*
X0003100Y0096960D02*
X0013212Y0096960D01*
X0012614Y0096361D02*
X0003100Y0096361D01*
X0003100Y0095763D02*
X0012015Y0095763D01*
X0011417Y0095164D02*
X0003100Y0095164D01*
X0003100Y0094566D02*
X0010818Y0094566D01*
X0010220Y0093967D02*
X0003100Y0093967D01*
X0003100Y0093369D02*
X0009621Y0093369D01*
X0009023Y0092770D02*
X0003100Y0092770D01*
X0003100Y0092172D02*
X0008424Y0092172D01*
X0007826Y0091573D02*
X0003100Y0091573D01*
X0003100Y0090975D02*
X0007227Y0090975D01*
X0006629Y0090376D02*
X0003100Y0090376D01*
X0003100Y0089778D02*
X0006030Y0089778D01*
X0005432Y0089179D02*
X0003100Y0089179D01*
X0003100Y0088581D02*
X0004900Y0088581D01*
X0004900Y0087982D02*
X0003100Y0087982D01*
X0003100Y0087384D02*
X0004900Y0087384D01*
X0004900Y0086785D02*
X0003100Y0086785D01*
X0003100Y0086187D02*
X0004900Y0086187D01*
X0004900Y0085588D02*
X0003100Y0085588D01*
X0003100Y0084990D02*
X0004900Y0084990D01*
X0004900Y0084391D02*
X0003100Y0084391D01*
X0003100Y0083793D02*
X0004900Y0083793D01*
X0004900Y0083194D02*
X0003100Y0083194D01*
X0003100Y0082596D02*
X0004900Y0082596D01*
X0004900Y0081997D02*
X0003100Y0081997D01*
X0003100Y0081399D02*
X0004900Y0081399D01*
X0004900Y0080800D02*
X0003100Y0080800D01*
X0003100Y0080202D02*
X0004900Y0080202D01*
X0004900Y0079603D02*
X0003100Y0079603D01*
X0003100Y0079005D02*
X0004900Y0079005D01*
X0004900Y0078406D02*
X0003100Y0078406D01*
X0003100Y0077807D02*
X0004900Y0077807D01*
X0004900Y0077209D02*
X0003100Y0077209D01*
X0003100Y0076610D02*
X0004900Y0076610D01*
X0004900Y0076012D02*
X0003100Y0076012D01*
X0003100Y0075413D02*
X0004900Y0075413D01*
X0004900Y0074815D02*
X0003100Y0074815D01*
X0003100Y0074216D02*
X0004900Y0074216D01*
X0004900Y0073618D02*
X0003100Y0073618D01*
X0003100Y0073019D02*
X0004900Y0073019D01*
X0004900Y0072421D02*
X0003100Y0072421D01*
X0003100Y0071822D02*
X0004590Y0071822D01*
X0003991Y0071224D02*
X0003100Y0071224D01*
X0003100Y0070625D02*
X0003850Y0070625D01*
X0003850Y0070027D02*
X0003100Y0070027D01*
X0003100Y0069428D02*
X0003850Y0069428D01*
X0004239Y0068830D02*
X0003100Y0068830D01*
X0003100Y0068231D02*
X0004837Y0068231D01*
X0007300Y0074815D02*
X0007307Y0074815D01*
X0007300Y0075413D02*
X0018313Y0075413D01*
X0018313Y0076012D02*
X0007300Y0076012D01*
X0007300Y0076610D02*
X0018313Y0076610D01*
X0018313Y0077209D02*
X0007300Y0077209D01*
X0007300Y0077807D02*
X0018313Y0077807D01*
X0018313Y0078406D02*
X0007300Y0078406D01*
X0007300Y0079005D02*
X0018313Y0079005D01*
X0017750Y0079603D02*
X0007300Y0079603D01*
X0007300Y0080202D02*
X0017152Y0080202D01*
X0016900Y0080800D02*
X0007300Y0080800D01*
X0007300Y0081399D02*
X0016900Y0081399D01*
X0016900Y0081997D02*
X0007300Y0081997D01*
X0007300Y0082596D02*
X0016900Y0082596D01*
X0016900Y0083194D02*
X0007300Y0083194D01*
X0007300Y0083793D02*
X0016900Y0083793D01*
X0016900Y0084391D02*
X0007300Y0084391D01*
X0007300Y0084990D02*
X0016900Y0084990D01*
X0016900Y0085588D02*
X0007300Y0085588D01*
X0007300Y0086187D02*
X0016900Y0086187D01*
X0016900Y0086785D02*
X0007300Y0086785D01*
X0007300Y0087384D02*
X0016900Y0087384D01*
X0016900Y0087982D02*
X0007629Y0087982D01*
X0008227Y0088581D02*
X0016900Y0088581D01*
X0016900Y0089179D02*
X0008826Y0089179D01*
X0009424Y0089778D02*
X0016900Y0089778D01*
X0016900Y0090376D02*
X0010023Y0090376D01*
X0010621Y0090975D02*
X0016900Y0090975D01*
X0016900Y0091573D02*
X0011220Y0091573D01*
X0011818Y0092172D02*
X0016900Y0092172D01*
X0016900Y0092770D02*
X0012417Y0092770D01*
X0013015Y0093369D02*
X0016900Y0093369D01*
X0016900Y0093967D02*
X0013614Y0093967D01*
X0014212Y0094566D02*
X0016900Y0094566D01*
X0016900Y0095164D02*
X0014811Y0095164D01*
X0015409Y0095763D02*
X0016900Y0095763D01*
X0016900Y0096361D02*
X0016008Y0096361D01*
X0016606Y0096960D02*
X0016900Y0096960D01*
X0018100Y0098350D02*
X0028900Y0109150D01*
X0094300Y0109150D01*
X0097900Y0112750D01*
X0086650Y0111923D02*
X0086454Y0111923D01*
X0081890Y0117309D02*
X0079923Y0117309D01*
X0080430Y0117908D02*
X0081187Y0117908D01*
X0080851Y0118506D02*
X0080725Y0118506D01*
X0078372Y0118506D02*
X0077772Y0118506D01*
X0077772Y0117908D02*
X0078372Y0117908D01*
X0078372Y0117309D02*
X0077772Y0117309D01*
X0077772Y0119105D02*
X0078372Y0119105D01*
X0078372Y0119703D02*
X0077772Y0119703D01*
X0077772Y0120302D02*
X0078372Y0120302D01*
X0078372Y0120900D02*
X0077772Y0120900D01*
X0077772Y0121499D02*
X0078372Y0121499D01*
X0070856Y0122696D02*
X0068142Y0122696D01*
X0068741Y0123294D02*
X0070289Y0123294D01*
X0069965Y0123893D02*
X0069340Y0123893D01*
X0065347Y0123294D02*
X0055738Y0123294D01*
X0056337Y0122696D02*
X0064748Y0122696D01*
X0064900Y0121150D02*
X0073300Y0129550D01*
X0075100Y0129550D01*
X0075572Y0129917D01*
X0064900Y0121150D02*
X0054700Y0121150D01*
X0051100Y0136150D02*
X0042100Y0145150D01*
X0039700Y0145150D01*
X0037300Y0143950D02*
X0037300Y0146350D01*
X0042100Y0151150D01*
X0042100Y0158350D01*
X0042560Y0158657D01*
X0047500Y0157150D02*
X0047500Y0160750D01*
X0043900Y0164350D01*
X0037300Y0164350D01*
X0032500Y0169150D01*
X0032442Y0169287D01*
X0036715Y0167584D02*
X0038168Y0167584D01*
X0038416Y0166986D02*
X0036467Y0166986D01*
X0036960Y0166387D02*
X0038837Y0166387D01*
X0039435Y0165789D02*
X0037559Y0165789D01*
X0037920Y0168183D02*
X0036963Y0168183D01*
X0037042Y0168781D02*
X0037842Y0168781D01*
X0037842Y0169380D02*
X0037042Y0169380D01*
X0037042Y0169978D02*
X0037842Y0169978D01*
X0037997Y0170577D02*
X0036887Y0170577D01*
X0036639Y0171175D02*
X0038245Y0171175D01*
X0038493Y0171774D02*
X0036391Y0171774D01*
X0035862Y0172372D02*
X0039021Y0172372D01*
X0039620Y0172971D02*
X0035264Y0172971D01*
X0034125Y0173569D02*
X0040759Y0173569D01*
X0044125Y0173569D02*
X0049832Y0173569D01*
X0049054Y0172971D02*
X0045264Y0172971D01*
X0045862Y0172372D02*
X0048503Y0172372D01*
X0048097Y0171774D02*
X0046391Y0171774D01*
X0046639Y0171175D02*
X0047798Y0171175D01*
X0047603Y0170577D02*
X0046887Y0170577D01*
X0047042Y0169978D02*
X0047489Y0169978D01*
X0047042Y0169380D02*
X0052142Y0169380D01*
X0052442Y0169287D02*
X0052900Y0169750D01*
X0075100Y0169750D01*
X0075572Y0169917D01*
X0075572Y0174917D01*
X0075611Y0175370D01*
X0076103Y0175370D01*
X0077333Y0176600D01*
X0082255Y0176600D01*
X0083072Y0177417D01*
X0083372Y0177160D02*
X0087772Y0177160D01*
X0087772Y0177117D02*
X0083372Y0177117D01*
X0083372Y0171622D01*
X0083888Y0171725D01*
X0084398Y0171936D01*
X0084857Y0172242D01*
X0085247Y0172632D01*
X0085553Y0173091D01*
X0085572Y0173136D01*
X0085590Y0173091D01*
X0085897Y0172632D01*
X0086287Y0172242D01*
X0086745Y0171936D01*
X0087255Y0171725D01*
X0087772Y0171622D01*
X0087772Y0177117D01*
X0087914Y0176846D02*
X0088072Y0177417D01*
X0093072Y0177417D01*
X0098072Y0177417D01*
X0103072Y0177417D01*
X0108072Y0177417D01*
X0113072Y0177417D01*
X0118072Y0177417D01*
X0118013Y0177417D02*
X0117442Y0176846D01*
X0087914Y0176846D01*
X0078564Y0176846D01*
X0078072Y0177339D01*
X0078072Y0177417D01*
X0078072Y0177339D02*
X0077333Y0176600D01*
X0078848Y0177717D02*
X0080872Y0177717D01*
X0082772Y0177717D01*
X0082772Y0177117D01*
X0080319Y0177117D01*
X0079898Y0177399D01*
X0079388Y0177610D01*
X0078848Y0177717D01*
X0080255Y0177160D02*
X0082772Y0177160D01*
X0082772Y0176562D02*
X0083372Y0176562D01*
X0083372Y0175963D02*
X0082772Y0175963D01*
X0082772Y0175365D02*
X0083372Y0175365D01*
X0083372Y0174766D02*
X0082772Y0174766D01*
X0082772Y0174168D02*
X0083372Y0174168D01*
X0083372Y0173569D02*
X0082772Y0173569D01*
X0082772Y0172971D02*
X0083372Y0172971D01*
X0083372Y0172372D02*
X0082772Y0172372D01*
X0082772Y0171774D02*
X0083372Y0171774D01*
X0084006Y0171774D02*
X0087137Y0171774D01*
X0087772Y0171774D02*
X0088372Y0171774D01*
X0088372Y0171622D02*
X0088888Y0171725D01*
X0089398Y0171936D01*
X0089857Y0172242D01*
X0090247Y0172632D01*
X0090553Y0173091D01*
X0090572Y0173136D01*
X0090590Y0173091D01*
X0090897Y0172632D01*
X0091287Y0172242D01*
X0091745Y0171936D01*
X0092255Y0171725D01*
X0092772Y0171622D01*
X0092772Y0177117D01*
X0088372Y0177117D01*
X0088372Y0171622D01*
X0089006Y0171774D02*
X0092137Y0171774D01*
X0092772Y0171774D02*
X0093372Y0171774D01*
X0093372Y0171622D02*
X0093888Y0171725D01*
X0094398Y0171936D01*
X0094857Y0172242D01*
X0095247Y0172632D01*
X0095553Y0173091D01*
X0095572Y0173136D01*
X0095590Y0173091D01*
X0095897Y0172632D01*
X0096287Y0172242D01*
X0096745Y0171936D01*
X0097255Y0171725D01*
X0097772Y0171622D01*
X0097772Y0177117D01*
X0093372Y0177117D01*
X0093372Y0171622D01*
X0094006Y0171774D02*
X0097137Y0171774D01*
X0097772Y0171774D02*
X0098372Y0171774D01*
X0098372Y0171622D02*
X0098888Y0171725D01*
X0099398Y0171936D01*
X0099857Y0172242D01*
X0100247Y0172632D01*
X0100553Y0173091D01*
X0100572Y0173136D01*
X0100590Y0173091D01*
X0100897Y0172632D01*
X0101287Y0172242D01*
X0101745Y0171936D01*
X0102255Y0171725D01*
X0102772Y0171622D01*
X0102772Y0177117D01*
X0098372Y0177117D01*
X0098372Y0171622D01*
X0099006Y0171774D02*
X0102137Y0171774D01*
X0102772Y0171774D02*
X0103372Y0171774D01*
X0103372Y0171622D02*
X0103888Y0171725D01*
X0104398Y0171936D01*
X0104857Y0172242D01*
X0105247Y0172632D01*
X0105553Y0173091D01*
X0105572Y0173136D01*
X0105590Y0173091D01*
X0105897Y0172632D01*
X0106287Y0172242D01*
X0106745Y0171936D01*
X0107255Y0171725D01*
X0107772Y0171622D01*
X0107772Y0177117D01*
X0103372Y0177117D01*
X0103372Y0171622D01*
X0104006Y0171774D02*
X0107137Y0171774D01*
X0107772Y0171774D02*
X0108372Y0171774D01*
X0108372Y0171622D02*
X0108888Y0171725D01*
X0109398Y0171936D01*
X0109857Y0172242D01*
X0110247Y0172632D01*
X0110553Y0173091D01*
X0110572Y0173136D01*
X0110590Y0173091D01*
X0110897Y0172632D01*
X0111287Y0172242D01*
X0111745Y0171936D01*
X0112255Y0171725D01*
X0112772Y0171622D01*
X0112772Y0177117D01*
X0108372Y0177117D01*
X0108372Y0171622D01*
X0109006Y0171774D02*
X0112137Y0171774D01*
X0112772Y0171774D02*
X0113372Y0171774D01*
X0113372Y0171622D02*
X0113888Y0171725D01*
X0114398Y0171936D01*
X0114857Y0172242D01*
X0115247Y0172632D01*
X0115553Y0173091D01*
X0115572Y0173136D01*
X0115590Y0173091D01*
X0115897Y0172632D01*
X0116287Y0172242D01*
X0116745Y0171936D01*
X0117255Y0171725D01*
X0117772Y0171622D01*
X0117772Y0177117D01*
X0118372Y0177117D01*
X0118372Y0177717D01*
X0117772Y0177717D01*
X0117772Y0177117D01*
X0115872Y0177117D01*
X0113372Y0177117D01*
X0113372Y0171622D01*
X0114006Y0171774D02*
X0117137Y0171774D01*
X0117772Y0171774D02*
X0118372Y0171774D01*
X0118372Y0171622D02*
X0118888Y0171725D01*
X0119398Y0171936D01*
X0119857Y0172242D01*
X0120247Y0172632D01*
X0120553Y0173091D01*
X0120572Y0173136D01*
X0120590Y0173091D01*
X0120897Y0172632D01*
X0121287Y0172242D01*
X0121745Y0171936D01*
X0122255Y0171725D01*
X0122772Y0171622D01*
X0122772Y0177117D01*
X0118372Y0177117D01*
X0118372Y0171622D01*
X0119006Y0171774D02*
X0122137Y0171774D01*
X0122772Y0171774D02*
X0123372Y0171774D01*
X0123372Y0171622D02*
X0123888Y0171725D01*
X0124398Y0171936D01*
X0124857Y0172242D01*
X0125247Y0172632D01*
X0125553Y0173091D01*
X0125572Y0173136D01*
X0125590Y0173091D01*
X0125897Y0172632D01*
X0126287Y0172242D01*
X0126745Y0171936D01*
X0127255Y0171725D01*
X0127772Y0171622D01*
X0127772Y0177117D01*
X0123372Y0177117D01*
X0123372Y0171622D01*
X0124006Y0171774D02*
X0127137Y0171774D01*
X0127772Y0171774D02*
X0128372Y0171774D01*
X0128372Y0171622D02*
X0128888Y0171725D01*
X0129398Y0171936D01*
X0129857Y0172242D01*
X0130247Y0172632D01*
X0130553Y0173091D01*
X0130572Y0173136D01*
X0130590Y0173091D01*
X0130897Y0172632D01*
X0131287Y0172242D01*
X0131745Y0171936D01*
X0132255Y0171725D01*
X0132772Y0171622D01*
X0132772Y0177117D01*
X0128372Y0177117D01*
X0128372Y0171622D01*
X0129006Y0171774D02*
X0132137Y0171774D01*
X0132772Y0171774D02*
X0133372Y0171774D01*
X0133372Y0171622D02*
X0133888Y0171725D01*
X0134398Y0171936D01*
X0134857Y0172242D01*
X0135247Y0172632D01*
X0135553Y0173091D01*
X0135572Y0173136D01*
X0135590Y0173091D01*
X0135897Y0172632D01*
X0136287Y0172242D01*
X0136745Y0171936D01*
X0137255Y0171725D01*
X0137772Y0171622D01*
X0137772Y0177117D01*
X0133372Y0177117D01*
X0133372Y0171622D01*
X0134006Y0171774D02*
X0137137Y0171774D01*
X0137772Y0171774D02*
X0138372Y0171774D01*
X0138372Y0172372D02*
X0137772Y0172372D01*
X0137772Y0172971D02*
X0138372Y0172971D01*
X0138372Y0173569D02*
X0137772Y0173569D01*
X0137772Y0174168D02*
X0138372Y0174168D01*
X0138372Y0174766D02*
X0137772Y0174766D01*
X0137772Y0175365D02*
X0138372Y0175365D01*
X0138372Y0175963D02*
X0137772Y0175963D01*
X0137772Y0176562D02*
X0138372Y0176562D01*
X0137772Y0177160D02*
X0133372Y0177160D01*
X0133372Y0176562D02*
X0132772Y0176562D01*
X0132772Y0177160D02*
X0128372Y0177160D01*
X0128072Y0177417D02*
X0127166Y0178323D01*
X0123839Y0178323D01*
X0117934Y0178323D01*
X0117934Y0178815D01*
X0131674Y0178815D01*
X0132772Y0175963D02*
X0133372Y0175963D01*
X0133372Y0175365D02*
X0132772Y0175365D01*
X0132772Y0174766D02*
X0133372Y0174766D01*
X0133372Y0174168D02*
X0132772Y0174168D01*
X0132772Y0173569D02*
X0133372Y0173569D01*
X0133372Y0172971D02*
X0132772Y0172971D01*
X0132772Y0172372D02*
X0133372Y0172372D01*
X0134986Y0172372D02*
X0136157Y0172372D01*
X0135671Y0172971D02*
X0135473Y0172971D01*
X0139006Y0171774D02*
X0142137Y0171774D01*
X0141157Y0172372D02*
X0139986Y0172372D01*
X0140473Y0172971D02*
X0140671Y0172971D01*
X0144986Y0172372D02*
X0146157Y0172372D01*
X0145558Y0172971D02*
X0145473Y0172971D01*
X0147772Y0178357D02*
X0148372Y0178357D01*
X0148372Y0178956D02*
X0147772Y0178956D01*
X0147772Y0179554D02*
X0148372Y0179554D01*
X0150872Y0179554D02*
X0170422Y0179554D01*
X0170423Y0178956D02*
X0150872Y0178956D01*
X0150872Y0178357D02*
X0170424Y0178357D01*
X0170426Y0177759D02*
X0150872Y0177759D01*
X0150572Y0174917D02*
X0150572Y0169917D01*
X0150872Y0169978D02*
X0170444Y0169978D01*
X0170432Y0175365D02*
X0156337Y0175365D01*
X0156169Y0175963D02*
X0170430Y0175963D01*
X0170429Y0176562D02*
X0155840Y0176562D01*
X0155255Y0177160D02*
X0170427Y0177160D01*
X0170420Y0180153D02*
X0163372Y0180153D01*
X0163372Y0180751D02*
X0170419Y0180751D01*
X0170417Y0181350D02*
X0163372Y0181350D01*
X0163372Y0181948D02*
X0170416Y0181948D01*
X0170414Y0182547D02*
X0163372Y0182547D01*
X0163372Y0183145D02*
X0170413Y0183145D01*
X0170412Y0183744D02*
X0163372Y0183744D01*
X0163372Y0184342D02*
X0170410Y0184342D01*
X0150872Y0173569D02*
X0150751Y0173569D01*
X0150872Y0172971D02*
X0150473Y0172971D01*
X0150272Y0172372D02*
X0150872Y0172372D01*
X0150872Y0171774D02*
X0150272Y0171774D01*
X0150272Y0171175D02*
X0150872Y0171175D01*
X0150872Y0170577D02*
X0150272Y0170577D01*
X0150272Y0169978D02*
X0075872Y0169978D01*
X0075872Y0170577D02*
X0075272Y0170577D01*
X0075272Y0171175D02*
X0075872Y0171175D01*
X0075872Y0171774D02*
X0075272Y0171774D01*
X0075272Y0172372D02*
X0075872Y0172372D01*
X0075671Y0172971D02*
X0075272Y0172971D01*
X0075272Y0173569D02*
X0075392Y0173569D01*
X0075272Y0174766D02*
X0019097Y0174766D01*
X0019242Y0175365D02*
X0069806Y0175365D01*
X0069974Y0175963D02*
X0019242Y0175963D01*
X0019242Y0176562D02*
X0070303Y0176562D01*
X0070889Y0177160D02*
X0019242Y0177160D01*
X0019242Y0177759D02*
X0075272Y0177759D01*
X0075272Y0178357D02*
X0019169Y0178357D01*
X0018921Y0178956D02*
X0075272Y0178956D01*
X0075272Y0179554D02*
X0018673Y0179554D01*
X0018425Y0180153D02*
X0062772Y0180153D01*
X0062772Y0180751D02*
X0018178Y0180751D01*
X0017733Y0181350D02*
X0062772Y0181350D01*
X0062772Y0181948D02*
X0017135Y0181948D01*
X0016536Y0182547D02*
X0062772Y0182547D01*
X0062772Y0183145D02*
X0015938Y0183145D01*
X0014544Y0183744D02*
X0062772Y0183744D01*
X0069866Y0174168D02*
X0053590Y0174168D01*
X0052742Y0174168D02*
X0052142Y0174168D01*
X0052142Y0173569D02*
X0052742Y0173569D01*
X0052742Y0172971D02*
X0052142Y0172971D01*
X0052142Y0172372D02*
X0052742Y0172372D01*
X0052742Y0171774D02*
X0052142Y0171774D01*
X0052142Y0171175D02*
X0052742Y0171175D01*
X0052742Y0170577D02*
X0052142Y0170577D01*
X0052142Y0169978D02*
X0052742Y0169978D01*
X0052300Y0169750D02*
X0052442Y0169287D01*
X0052742Y0169380D02*
X0069824Y0169380D01*
X0070012Y0168781D02*
X0057424Y0168781D01*
X0057329Y0168183D02*
X0070363Y0168183D01*
X0071024Y0167584D02*
X0057146Y0167584D01*
X0056881Y0166986D02*
X0071294Y0166986D01*
X0070647Y0166387D02*
X0056515Y0166387D01*
X0056014Y0165789D02*
X0070335Y0165789D01*
X0069848Y0170577D02*
X0057280Y0170577D01*
X0057395Y0169978D02*
X0075272Y0169978D01*
X0071206Y0172372D02*
X0056381Y0172372D01*
X0056787Y0171774D02*
X0070468Y0171774D01*
X0070062Y0171175D02*
X0057086Y0171175D01*
X0055829Y0172971D02*
X0070558Y0172971D01*
X0070105Y0173569D02*
X0055051Y0173569D01*
X0051293Y0174168D02*
X0018849Y0174168D01*
X0018601Y0173569D02*
X0030759Y0173569D01*
X0030100Y0173950D02*
X0048100Y0173950D01*
X0052300Y0169750D01*
X0048003Y0166986D02*
X0046562Y0166986D01*
X0046715Y0167584D02*
X0047738Y0167584D01*
X0047554Y0168183D02*
X0046963Y0168183D01*
X0047042Y0168781D02*
X0047460Y0168781D01*
X0047160Y0166387D02*
X0048369Y0166387D01*
X0048869Y0165789D02*
X0047759Y0165789D01*
X0047500Y0164350D02*
X0042700Y0169150D01*
X0042442Y0169287D01*
X0047500Y0164350D02*
X0075100Y0164350D01*
X0080675Y0171774D02*
X0082137Y0171774D01*
X0081157Y0172372D02*
X0079986Y0172372D01*
X0080585Y0172971D02*
X0080671Y0172971D01*
X0084986Y0172372D02*
X0086157Y0172372D01*
X0085671Y0172971D02*
X0085473Y0172971D01*
X0087772Y0172971D02*
X0088372Y0172971D01*
X0088372Y0173569D02*
X0087772Y0173569D01*
X0087772Y0174168D02*
X0088372Y0174168D01*
X0088372Y0174766D02*
X0087772Y0174766D01*
X0087772Y0175365D02*
X0088372Y0175365D01*
X0088372Y0175963D02*
X0087772Y0175963D01*
X0087772Y0176562D02*
X0088372Y0176562D01*
X0088372Y0177160D02*
X0092772Y0177160D01*
X0092772Y0176562D02*
X0093372Y0176562D01*
X0093372Y0177160D02*
X0097772Y0177160D01*
X0097772Y0176562D02*
X0098372Y0176562D01*
X0098372Y0177160D02*
X0102772Y0177160D01*
X0102772Y0176562D02*
X0103372Y0176562D01*
X0103372Y0177160D02*
X0107772Y0177160D01*
X0107772Y0176562D02*
X0108372Y0176562D01*
X0108372Y0177160D02*
X0112772Y0177160D01*
X0112772Y0176562D02*
X0113372Y0176562D01*
X0113372Y0177160D02*
X0117772Y0177160D01*
X0118013Y0177417D02*
X0123072Y0177417D01*
X0123372Y0177160D02*
X0127772Y0177160D01*
X0127772Y0176562D02*
X0128372Y0176562D01*
X0128372Y0175963D02*
X0127772Y0175963D01*
X0127772Y0175365D02*
X0128372Y0175365D01*
X0128372Y0174766D02*
X0127772Y0174766D01*
X0127772Y0174168D02*
X0128372Y0174168D01*
X0128372Y0173569D02*
X0127772Y0173569D01*
X0127772Y0172971D02*
X0128372Y0172971D01*
X0128372Y0172372D02*
X0127772Y0172372D01*
X0126157Y0172372D02*
X0124986Y0172372D01*
X0125473Y0172971D02*
X0125671Y0172971D01*
X0123372Y0172971D02*
X0122772Y0172971D01*
X0122772Y0173569D02*
X0123372Y0173569D01*
X0123372Y0174168D02*
X0122772Y0174168D01*
X0122772Y0174766D02*
X0123372Y0174766D01*
X0123372Y0175365D02*
X0122772Y0175365D01*
X0122772Y0175963D02*
X0123372Y0175963D01*
X0123347Y0176354D02*
X0123839Y0176846D01*
X0123839Y0178323D01*
X0122772Y0177160D02*
X0118372Y0177160D01*
X0117934Y0176846D02*
X0118426Y0176354D01*
X0123347Y0176354D01*
X0123372Y0176562D02*
X0122772Y0176562D01*
X0120671Y0172971D02*
X0120473Y0172971D01*
X0119986Y0172372D02*
X0121157Y0172372D01*
X0122772Y0172372D02*
X0123372Y0172372D01*
X0118372Y0172372D02*
X0117772Y0172372D01*
X0117772Y0172971D02*
X0118372Y0172971D01*
X0118372Y0173569D02*
X0117772Y0173569D01*
X0117772Y0174168D02*
X0118372Y0174168D01*
X0118372Y0174766D02*
X0117772Y0174766D01*
X0117772Y0175365D02*
X0118372Y0175365D01*
X0118372Y0175963D02*
X0117772Y0175963D01*
X0117772Y0176562D02*
X0118372Y0176562D01*
X0117934Y0176846D02*
X0117442Y0176846D01*
X0117772Y0177759D02*
X0118372Y0177759D01*
X0118372Y0178357D02*
X0117772Y0178357D01*
X0117772Y0178956D02*
X0118372Y0178956D01*
X0118372Y0179554D02*
X0117772Y0179554D01*
X0113372Y0175963D02*
X0112772Y0175963D01*
X0112772Y0175365D02*
X0113372Y0175365D01*
X0113372Y0174766D02*
X0112772Y0174766D01*
X0112772Y0174168D02*
X0113372Y0174168D01*
X0113372Y0173569D02*
X0112772Y0173569D01*
X0112772Y0172971D02*
X0113372Y0172971D01*
X0113372Y0172372D02*
X0112772Y0172372D01*
X0111157Y0172372D02*
X0109986Y0172372D01*
X0110473Y0172971D02*
X0110671Y0172971D01*
X0108372Y0172971D02*
X0107772Y0172971D01*
X0107772Y0173569D02*
X0108372Y0173569D01*
X0108372Y0174168D02*
X0107772Y0174168D01*
X0107772Y0174766D02*
X0108372Y0174766D01*
X0108372Y0175365D02*
X0107772Y0175365D01*
X0107772Y0175963D02*
X0108372Y0175963D01*
X0108372Y0172372D02*
X0107772Y0172372D01*
X0106157Y0172372D02*
X0104986Y0172372D01*
X0105473Y0172971D02*
X0105671Y0172971D01*
X0103372Y0172971D02*
X0102772Y0172971D01*
X0102772Y0173569D02*
X0103372Y0173569D01*
X0103372Y0174168D02*
X0102772Y0174168D01*
X0102772Y0174766D02*
X0103372Y0174766D01*
X0103372Y0175365D02*
X0102772Y0175365D01*
X0102772Y0175963D02*
X0103372Y0175963D01*
X0103372Y0172372D02*
X0102772Y0172372D01*
X0101157Y0172372D02*
X0099986Y0172372D01*
X0100473Y0172971D02*
X0100671Y0172971D01*
X0098372Y0172971D02*
X0097772Y0172971D01*
X0097772Y0173569D02*
X0098372Y0173569D01*
X0098372Y0174168D02*
X0097772Y0174168D01*
X0097772Y0174766D02*
X0098372Y0174766D01*
X0098372Y0175365D02*
X0097772Y0175365D01*
X0097772Y0175963D02*
X0098372Y0175963D01*
X0098372Y0172372D02*
X0097772Y0172372D01*
X0096157Y0172372D02*
X0094986Y0172372D01*
X0095473Y0172971D02*
X0095671Y0172971D01*
X0093372Y0172971D02*
X0092772Y0172971D01*
X0092772Y0173569D02*
X0093372Y0173569D01*
X0093372Y0174168D02*
X0092772Y0174168D01*
X0092772Y0174766D02*
X0093372Y0174766D01*
X0093372Y0175365D02*
X0092772Y0175365D01*
X0092772Y0175963D02*
X0093372Y0175963D01*
X0093372Y0172372D02*
X0092772Y0172372D01*
X0091157Y0172372D02*
X0089986Y0172372D01*
X0090473Y0172971D02*
X0090671Y0172971D01*
X0088372Y0172372D02*
X0087772Y0172372D01*
X0096700Y0164950D02*
X0150100Y0164950D01*
X0154338Y0162198D02*
X0155120Y0162198D01*
X0155120Y0162796D02*
X0154722Y0162796D01*
X0157520Y0157409D02*
X0170474Y0157409D01*
X0170476Y0156811D02*
X0157520Y0156811D01*
X0157520Y0156212D02*
X0170477Y0156212D01*
X0170478Y0155614D02*
X0157520Y0155614D01*
X0157520Y0155015D02*
X0170480Y0155015D01*
X0170481Y0154417D02*
X0157520Y0154417D01*
X0157520Y0153818D02*
X0170483Y0153818D01*
X0170484Y0153220D02*
X0157520Y0153220D01*
X0157520Y0152621D02*
X0170485Y0152621D01*
X0170487Y0152023D02*
X0157520Y0152023D01*
X0157520Y0151424D02*
X0170488Y0151424D01*
X0170490Y0150826D02*
X0157520Y0150826D01*
X0157520Y0150227D02*
X0170491Y0150227D01*
X0170493Y0149629D02*
X0157520Y0149629D01*
X0157520Y0149030D02*
X0170494Y0149030D01*
X0170495Y0148432D02*
X0157520Y0148432D01*
X0157520Y0147833D02*
X0170497Y0147833D01*
X0170498Y0147235D02*
X0157520Y0147235D01*
X0157520Y0146636D02*
X0170500Y0146636D01*
X0170501Y0146038D02*
X0157520Y0146038D01*
X0157520Y0145439D02*
X0170503Y0145439D01*
X0170504Y0144841D02*
X0157520Y0144841D01*
X0157520Y0144242D02*
X0170505Y0144242D01*
X0170507Y0143644D02*
X0157520Y0143644D01*
X0157520Y0143045D02*
X0170508Y0143045D01*
X0170510Y0142447D02*
X0157520Y0142447D01*
X0155120Y0147235D02*
X0154248Y0147235D01*
X0154812Y0147833D02*
X0155120Y0147833D01*
X0155120Y0152023D02*
X0154760Y0152023D01*
X0155120Y0152621D02*
X0154300Y0152621D01*
X0154390Y0137659D02*
X0155120Y0137659D01*
X0155120Y0137060D02*
X0154670Y0137060D01*
X0131157Y0172372D02*
X0129986Y0172372D01*
X0130473Y0172971D02*
X0130671Y0172971D01*
X0116157Y0172372D02*
X0114986Y0172372D01*
X0115473Y0172971D02*
X0115671Y0172971D01*
X0115472Y0122097D02*
X0115672Y0122097D01*
X0115672Y0121499D02*
X0115472Y0121499D01*
X0115472Y0120900D02*
X0115672Y0120900D01*
X0115672Y0120302D02*
X0115472Y0120302D01*
X0115472Y0119703D02*
X0115672Y0119703D01*
X0115672Y0119105D02*
X0115472Y0119105D01*
X0115292Y0118506D02*
X0115851Y0118506D01*
X0116187Y0117908D02*
X0114956Y0117908D01*
X0121825Y0093369D02*
X0092215Y0093369D01*
X0091617Y0092770D02*
X0121227Y0092770D01*
X0122855Y0091217D02*
X0052973Y0091217D01*
X0050513Y0088756D01*
X0058900Y0084550D02*
X0062500Y0088150D01*
X0068500Y0088150D01*
X0067300Y0083950D02*
X0057700Y0074350D01*
X0022300Y0074350D01*
X0021772Y0074327D01*
X0021969Y0075961D02*
X0021772Y0076295D01*
X0021969Y0075961D02*
X0055434Y0075961D01*
X0056418Y0076945D01*
X0052900Y0078550D02*
X0022300Y0078550D01*
X0021772Y0078264D01*
X0021772Y0080232D02*
X0021700Y0080350D01*
X0018700Y0080350D01*
X0018100Y0080950D01*
X0018100Y0098350D01*
X0022300Y0086350D02*
X0021772Y0086138D01*
X0022300Y0086350D02*
X0037300Y0086350D01*
X0052900Y0101950D01*
X0090100Y0101950D01*
X0090100Y0098350D02*
X0051100Y0098350D01*
X0037300Y0084550D01*
X0022300Y0084550D01*
X0021772Y0084169D01*
X0021772Y0082201D02*
X0022300Y0082150D01*
X0060100Y0082150D01*
X0063700Y0085750D01*
X0076300Y0073150D02*
X0050500Y0073150D01*
X0048700Y0071350D01*
X0047187Y0073019D02*
X0025631Y0073019D01*
X0025631Y0073120D02*
X0025623Y0073150D01*
X0047318Y0073150D01*
X0046450Y0072282D01*
X0046450Y0070418D01*
X0047768Y0069100D01*
X0049632Y0069100D01*
X0050200Y0069668D01*
X0051368Y0068500D01*
X0053232Y0068500D01*
X0054282Y0069550D01*
X0077918Y0069550D01*
X0078968Y0068500D01*
X0079553Y0068500D01*
X0078242Y0067190D01*
X0077832Y0067600D01*
X0075968Y0067600D01*
X0074650Y0066282D01*
X0074650Y0064418D01*
X0075968Y0063100D01*
X0077832Y0063100D01*
X0079150Y0064418D01*
X0079150Y0064703D01*
X0079300Y0064853D01*
X0087700Y0073253D01*
X0087700Y0077768D01*
X0088191Y0078259D01*
X0088191Y0071747D01*
X0087909Y0071747D01*
X0086433Y0070271D01*
X0085730Y0069568D01*
X0085730Y0065129D01*
X0086433Y0064426D01*
X0090872Y0064426D01*
X0095235Y0068789D01*
X0096250Y0068789D01*
X0096250Y0067418D01*
X0097300Y0066368D01*
X0097300Y0056847D01*
X0096053Y0055600D01*
X0094568Y0055600D01*
X0094035Y0055068D01*
X0094035Y0056773D01*
X0093332Y0057476D01*
X0088903Y0061905D01*
X0071955Y0061905D01*
X0071955Y0063113D01*
X0070637Y0064431D01*
X0068774Y0064431D01*
X0067456Y0063113D01*
X0067456Y0061249D01*
X0068774Y0059931D01*
X0070258Y0059931D01*
X0070685Y0059505D01*
X0085501Y0059505D01*
X0085440Y0059444D01*
X0063805Y0059444D01*
X0060144Y0063105D01*
X0060144Y0064589D01*
X0058826Y0065907D01*
X0056962Y0065907D01*
X0055644Y0064589D01*
X0055644Y0062725D01*
X0056962Y0061407D01*
X0058447Y0061407D01*
X0062108Y0057747D01*
X0062811Y0057044D01*
X0085440Y0057044D01*
X0086490Y0055994D01*
X0088354Y0055994D01*
X0089672Y0057312D01*
X0089672Y0057742D01*
X0091635Y0055779D01*
X0091635Y0050365D01*
X0092338Y0049662D01*
X0096777Y0049662D01*
X0101633Y0054518D01*
X0103118Y0054518D01*
X0104168Y0055568D01*
X0115115Y0055568D01*
X0114427Y0055217D01*
X0113791Y0054755D01*
X0113234Y0054198D01*
X0112772Y0053562D01*
X0112414Y0052860D01*
X0112171Y0052112D01*
X0112048Y0051334D01*
X0112048Y0051241D01*
X0116748Y0051241D01*
X0116748Y0055568D01*
X0117348Y0055568D01*
X0117348Y0051241D01*
X0116748Y0051241D01*
X0116748Y0050641D01*
X0112048Y0050641D01*
X0112048Y0050547D01*
X0112171Y0049770D01*
X0112414Y0049022D01*
X0112772Y0048320D01*
X0113234Y0047684D01*
X0113791Y0047127D01*
X0114427Y0046665D01*
X0115129Y0046307D01*
X0115877Y0046064D01*
X0116655Y0045941D01*
X0116748Y0045941D01*
X0116748Y0050641D01*
X0117348Y0050641D01*
X0117348Y0051241D01*
X0122048Y0051241D01*
X0122048Y0051334D01*
X0121925Y0052112D01*
X0121682Y0052860D01*
X0121324Y0053562D01*
X0120862Y0054198D01*
X0120305Y0054755D01*
X0119669Y0055217D01*
X0118981Y0055568D01*
X0120882Y0055568D01*
X0123076Y0053373D01*
X0122448Y0051856D01*
X0122448Y0050026D01*
X0123148Y0048335D01*
X0124442Y0047041D01*
X0126133Y0046341D01*
X0127963Y0046341D01*
X0129654Y0047041D01*
X0130948Y0048335D01*
X0131006Y0048475D01*
X0131006Y0042426D01*
X0129772Y0043660D01*
X0128081Y0044360D01*
X0126251Y0044360D01*
X0124776Y0043749D01*
X0122860Y0045665D01*
X0111541Y0045665D01*
X0110833Y0046372D01*
X0110833Y0047857D01*
X0109515Y0049175D01*
X0107651Y0049175D01*
X0106333Y0047857D01*
X0106333Y0045993D01*
X0107651Y0044675D01*
X0109136Y0044675D01*
X0109844Y0043968D01*
X0109844Y0043968D01*
X0110547Y0043265D01*
X0114166Y0043265D01*
X0113266Y0042366D01*
X0112798Y0041235D01*
X0093609Y0041235D01*
X0093609Y0042444D01*
X0092291Y0043762D01*
X0090427Y0043762D01*
X0089109Y0042444D01*
X0089109Y0040580D01*
X0090427Y0039262D01*
X0091912Y0039262D01*
X0092338Y0038835D01*
X0112570Y0038835D01*
X0113266Y0037154D01*
X0114560Y0035860D01*
X0116251Y0035160D01*
X0118081Y0035160D01*
X0119772Y0035860D01*
X0121066Y0037154D01*
X0121766Y0038845D01*
X0121766Y0040675D01*
X0121066Y0042366D01*
X0120167Y0043265D01*
X0121866Y0043265D01*
X0123120Y0042011D01*
X0122566Y0040675D01*
X0122566Y0038845D01*
X0123266Y0037154D01*
X0124560Y0035860D01*
X0126251Y0035160D01*
X0127601Y0035160D01*
X0118421Y0025980D01*
X0022987Y0025980D01*
X0022987Y0031038D01*
X0022460Y0031565D01*
X0021693Y0031565D01*
X0021693Y0033173D01*
X0021990Y0032876D01*
X0034941Y0032876D01*
X0035468Y0033403D01*
X0035468Y0043203D01*
X0034941Y0043731D01*
X0025126Y0043731D01*
X0025231Y0043836D01*
X0025231Y0045239D01*
X0025372Y0045379D01*
X0025543Y0045675D01*
X0025631Y0046006D01*
X0025631Y0046768D01*
X0025631Y0047529D01*
X0025543Y0047860D01*
X0025491Y0047950D01*
X0041997Y0047950D01*
X0043947Y0049900D01*
X0045432Y0049900D01*
X0046750Y0051218D01*
X0046750Y0053082D01*
X0045432Y0054400D01*
X0043568Y0054400D01*
X0042250Y0053082D01*
X0042250Y0051597D01*
X0041003Y0050350D01*
X0038682Y0050350D01*
X0039550Y0051218D01*
X0039550Y0053082D01*
X0038232Y0054400D01*
X0036368Y0054400D01*
X0035318Y0053350D01*
X0025797Y0053350D01*
X0025231Y0053916D01*
X0025231Y0055605D01*
X0025211Y0055626D01*
X0025231Y0055647D01*
X0025231Y0055750D01*
X0036518Y0055750D01*
X0037568Y0054700D01*
X0039432Y0054700D01*
X0040750Y0056018D01*
X0040750Y0057882D01*
X0039432Y0059200D01*
X0037568Y0059200D01*
X0036518Y0058150D01*
X0025231Y0058150D01*
X0025231Y0059542D01*
X0025211Y0059563D01*
X0025231Y0059584D01*
X0025231Y0061511D01*
X0025211Y0061531D01*
X0025231Y0061552D01*
X0025231Y0062950D01*
X0025401Y0062950D01*
X0026451Y0061900D01*
X0028315Y0061900D01*
X0029633Y0063218D01*
X0029633Y0065082D01*
X0029304Y0065410D01*
X0035252Y0065410D01*
X0045376Y0055286D01*
X0046079Y0054583D01*
X0052960Y0054583D01*
X0054010Y0053533D01*
X0055874Y0053533D01*
X0057192Y0054851D01*
X0057192Y0056715D01*
X0055874Y0058033D01*
X0054010Y0058033D01*
X0052960Y0056983D01*
X0048915Y0056983D01*
X0049750Y0057818D01*
X0049750Y0059682D01*
X0048432Y0061000D01*
X0046947Y0061000D01*
X0044239Y0063708D01*
X0044950Y0064418D01*
X0044950Y0065500D01*
X0046032Y0065500D01*
X0047350Y0066818D01*
X0047350Y0068682D01*
X0046032Y0070000D01*
X0044168Y0070000D01*
X0043118Y0068950D01*
X0039882Y0068950D01*
X0040150Y0069218D01*
X0040150Y0071082D01*
X0038832Y0072400D01*
X0036968Y0072400D01*
X0035918Y0071350D01*
X0025566Y0071350D01*
X0025631Y0071597D01*
X0025631Y0072358D01*
X0021773Y0072358D01*
X0021773Y0072358D01*
X0025631Y0072358D01*
X0025631Y0073120D01*
X0025631Y0072421D02*
X0046589Y0072421D01*
X0046450Y0071822D02*
X0039410Y0071822D01*
X0040009Y0071224D02*
X0046450Y0071224D01*
X0046450Y0070625D02*
X0040150Y0070625D01*
X0040150Y0070027D02*
X0046842Y0070027D01*
X0046604Y0069428D02*
X0047440Y0069428D01*
X0047203Y0068830D02*
X0051039Y0068830D01*
X0050440Y0069428D02*
X0049960Y0069428D01*
X0047350Y0068231D02*
X0079284Y0068231D01*
X0078685Y0067633D02*
X0047350Y0067633D01*
X0047350Y0067034D02*
X0075402Y0067034D01*
X0074803Y0066436D02*
X0046967Y0066436D01*
X0046369Y0065837D02*
X0056892Y0065837D01*
X0056294Y0065239D02*
X0044950Y0065239D01*
X0044950Y0064640D02*
X0055695Y0064640D01*
X0055644Y0064042D02*
X0044573Y0064042D01*
X0044504Y0063443D02*
X0055644Y0063443D01*
X0055644Y0062845D02*
X0045103Y0062845D01*
X0045701Y0062246D02*
X0056124Y0062246D01*
X0056722Y0061648D02*
X0046300Y0061648D01*
X0046898Y0061049D02*
X0058806Y0061049D01*
X0059404Y0060451D02*
X0048982Y0060451D01*
X0049580Y0059852D02*
X0060003Y0059852D01*
X0060601Y0059254D02*
X0049750Y0059254D01*
X0049750Y0058655D02*
X0061200Y0058655D01*
X0061798Y0058057D02*
X0049750Y0058057D01*
X0049390Y0057458D02*
X0053434Y0057458D01*
X0054942Y0055783D02*
X0046576Y0055783D01*
X0035749Y0066610D01*
X0021969Y0066610D01*
X0021772Y0066453D01*
X0021772Y0068421D02*
X0022300Y0068350D01*
X0036100Y0068350D01*
X0036700Y0067750D01*
X0045100Y0067750D01*
X0043596Y0069428D02*
X0040150Y0069428D01*
X0043900Y0072550D02*
X0022300Y0072550D01*
X0021772Y0072358D01*
X0021772Y0072358D01*
X0021772Y0070390D02*
X0022300Y0070150D01*
X0037900Y0070150D01*
X0036390Y0071822D02*
X0025631Y0071822D01*
X0029476Y0065239D02*
X0035423Y0065239D01*
X0036022Y0064640D02*
X0029633Y0064640D01*
X0029633Y0064042D02*
X0036620Y0064042D01*
X0037219Y0063443D02*
X0029633Y0063443D01*
X0029260Y0062845D02*
X0037817Y0062845D01*
X0038416Y0062246D02*
X0028661Y0062246D01*
X0027383Y0064150D02*
X0021969Y0064150D01*
X0021772Y0064484D01*
X0025231Y0062845D02*
X0025506Y0062845D01*
X0025231Y0062246D02*
X0026104Y0062246D01*
X0025231Y0061648D02*
X0039014Y0061648D01*
X0039613Y0061049D02*
X0025231Y0061049D01*
X0025231Y0060451D02*
X0040211Y0060451D01*
X0040810Y0059852D02*
X0025231Y0059852D01*
X0025231Y0059254D02*
X0041408Y0059254D01*
X0042007Y0058655D02*
X0039977Y0058655D01*
X0040576Y0058057D02*
X0042605Y0058057D01*
X0043204Y0057458D02*
X0040750Y0057458D01*
X0040750Y0056860D02*
X0043802Y0056860D01*
X0044401Y0056261D02*
X0040750Y0056261D01*
X0040394Y0055663D02*
X0044999Y0055663D01*
X0045598Y0055064D02*
X0039796Y0055064D01*
X0038765Y0053867D02*
X0043035Y0053867D01*
X0042436Y0053269D02*
X0039364Y0053269D01*
X0039550Y0052670D02*
X0042250Y0052670D01*
X0042250Y0052071D02*
X0039550Y0052071D01*
X0039550Y0051473D02*
X0042126Y0051473D01*
X0041527Y0050874D02*
X0039206Y0050874D01*
X0037300Y0052150D02*
X0025300Y0052150D01*
X0024700Y0052750D01*
X0022300Y0052750D01*
X0021772Y0052673D01*
X0021700Y0052750D01*
X0018700Y0052750D01*
X0014500Y0056950D01*
X0009100Y0056950D01*
X0009095Y0057437D01*
X0006221Y0060213D02*
X0005729Y0059720D01*
X0005729Y0037575D01*
X0013603Y0037575D01*
X0018032Y0033146D01*
X0018032Y0024780D01*
X0118918Y0024780D01*
X0132206Y0038067D01*
X0132206Y0059720D01*
X0131221Y0059720D01*
X0126792Y0051354D02*
X0127048Y0050941D01*
X0126792Y0051354D02*
X0121379Y0056768D01*
X0102186Y0056768D01*
X0096280Y0050862D01*
X0092835Y0050862D01*
X0092835Y0056276D01*
X0088406Y0060705D01*
X0071182Y0060705D01*
X0069706Y0062181D01*
X0071955Y0062246D02*
X0097300Y0062246D01*
X0097300Y0061648D02*
X0089160Y0061648D01*
X0089759Y0061049D02*
X0097300Y0061049D01*
X0097300Y0060451D02*
X0090357Y0060451D01*
X0090956Y0059852D02*
X0097300Y0059852D01*
X0097300Y0059254D02*
X0091554Y0059254D01*
X0092153Y0058655D02*
X0097300Y0058655D01*
X0097300Y0058057D02*
X0092751Y0058057D01*
X0093350Y0057458D02*
X0097300Y0057458D01*
X0097300Y0056860D02*
X0093948Y0056860D01*
X0094035Y0056261D02*
X0096714Y0056261D01*
X0096115Y0055663D02*
X0094035Y0055663D01*
X0095500Y0053350D02*
X0098500Y0056350D01*
X0098500Y0068350D01*
X0096250Y0068231D02*
X0094677Y0068231D01*
X0094079Y0067633D02*
X0096250Y0067633D01*
X0096634Y0067034D02*
X0093480Y0067034D01*
X0092882Y0066436D02*
X0097233Y0066436D01*
X0097300Y0065837D02*
X0092283Y0065837D01*
X0091685Y0065239D02*
X0097300Y0065239D01*
X0097300Y0064640D02*
X0091086Y0064640D01*
X0090375Y0065626D02*
X0095788Y0071039D01*
X0108091Y0071039D01*
X0097300Y0064042D02*
X0078773Y0064042D01*
X0079150Y0064640D02*
X0086219Y0064640D01*
X0085730Y0065239D02*
X0079685Y0065239D01*
X0080284Y0065837D02*
X0085730Y0065837D01*
X0085730Y0066436D02*
X0080882Y0066436D01*
X0081481Y0067034D02*
X0085730Y0067034D01*
X0085730Y0067633D02*
X0082079Y0067633D01*
X0082678Y0068231D02*
X0085730Y0068231D01*
X0085730Y0068830D02*
X0083276Y0068830D01*
X0083875Y0069428D02*
X0085730Y0069428D01*
X0086189Y0070027D02*
X0084473Y0070027D01*
X0085072Y0070625D02*
X0086787Y0070625D01*
X0087386Y0071224D02*
X0085671Y0071224D01*
X0086269Y0071822D02*
X0088191Y0071822D01*
X0088191Y0072421D02*
X0086868Y0072421D01*
X0087466Y0073019D02*
X0088191Y0073019D01*
X0088191Y0073618D02*
X0087700Y0073618D01*
X0087700Y0074216D02*
X0088191Y0074216D01*
X0088191Y0074815D02*
X0087700Y0074815D01*
X0087700Y0075413D02*
X0088191Y0075413D01*
X0088191Y0076012D02*
X0087700Y0076012D01*
X0087700Y0076610D02*
X0088191Y0076610D01*
X0088191Y0077209D02*
X0087700Y0077209D01*
X0087739Y0077807D02*
X0088191Y0077807D01*
X0086500Y0079750D02*
X0086500Y0073750D01*
X0078100Y0065350D01*
X0076900Y0065350D01*
X0074650Y0065239D02*
X0059495Y0065239D01*
X0058897Y0065837D02*
X0074650Y0065837D01*
X0074650Y0064640D02*
X0060094Y0064640D01*
X0060144Y0064042D02*
X0068384Y0064042D01*
X0067786Y0063443D02*
X0060144Y0063443D01*
X0060404Y0062845D02*
X0067456Y0062845D01*
X0067456Y0062246D02*
X0061003Y0062246D01*
X0061601Y0061648D02*
X0067456Y0061648D01*
X0067655Y0061049D02*
X0062200Y0061049D01*
X0062798Y0060451D02*
X0068254Y0060451D01*
X0070337Y0059852D02*
X0063397Y0059852D01*
X0063308Y0058244D02*
X0087422Y0058244D01*
X0085625Y0056860D02*
X0057048Y0056860D01*
X0057192Y0056261D02*
X0086223Y0056261D01*
X0088621Y0056261D02*
X0091153Y0056261D01*
X0091635Y0055663D02*
X0057192Y0055663D01*
X0057192Y0055064D02*
X0091635Y0055064D01*
X0091635Y0054466D02*
X0056806Y0054466D01*
X0056207Y0053867D02*
X0091635Y0053867D01*
X0091635Y0053269D02*
X0046564Y0053269D01*
X0046750Y0052670D02*
X0075438Y0052670D01*
X0075968Y0053200D02*
X0074650Y0051882D01*
X0074650Y0050018D01*
X0075700Y0048968D01*
X0075700Y0041847D01*
X0070747Y0036894D01*
X0069400Y0037452D01*
X0067530Y0037452D01*
X0065803Y0036736D01*
X0064481Y0035414D01*
X0063765Y0033687D01*
X0063765Y0031817D01*
X0064481Y0030090D01*
X0065803Y0028767D01*
X0067530Y0028052D01*
X0069400Y0028052D01*
X0071128Y0028767D01*
X0072450Y0030090D01*
X0073165Y0031817D01*
X0073165Y0033687D01*
X0072512Y0035265D01*
X0078100Y0040853D01*
X0078100Y0048968D01*
X0079150Y0050018D01*
X0079150Y0051882D01*
X0077832Y0053200D01*
X0075968Y0053200D01*
X0074839Y0052071D02*
X0046750Y0052071D01*
X0046750Y0051473D02*
X0074650Y0051473D01*
X0074650Y0050874D02*
X0046406Y0050874D01*
X0045808Y0050276D02*
X0074650Y0050276D01*
X0074991Y0049677D02*
X0043724Y0049677D01*
X0043126Y0049079D02*
X0075589Y0049079D01*
X0075700Y0048480D02*
X0042527Y0048480D01*
X0041500Y0049150D02*
X0044500Y0052150D01*
X0045965Y0053867D02*
X0053676Y0053867D01*
X0053078Y0054466D02*
X0025231Y0054466D01*
X0025231Y0055064D02*
X0037204Y0055064D01*
X0036606Y0055663D02*
X0025231Y0055663D01*
X0025280Y0053867D02*
X0035835Y0053867D01*
X0038500Y0056950D02*
X0022300Y0056950D01*
X0021772Y0056610D01*
X0021477Y0054799D02*
X0018524Y0054799D01*
X0013111Y0060213D01*
X0006221Y0060213D01*
X0015103Y0062845D02*
X0017148Y0062845D01*
X0017747Y0062246D02*
X0015701Y0062246D01*
X0021477Y0054799D02*
X0021772Y0054642D01*
X0020985Y0050862D02*
X0021772Y0050705D01*
X0020985Y0050862D02*
X0017048Y0050862D01*
X0009174Y0050862D01*
X0009095Y0050350D01*
X0009174Y0049878D01*
X0009174Y0042988D01*
X0010158Y0042988D01*
X0010828Y0042161D01*
X0011143Y0042004D01*
X0020493Y0042004D01*
X0020493Y0028717D01*
X0020513Y0028303D01*
X0022987Y0028131D02*
X0067340Y0028131D01*
X0065895Y0028730D02*
X0022987Y0028730D01*
X0022987Y0029328D02*
X0065242Y0029328D01*
X0064644Y0029927D02*
X0022987Y0029927D01*
X0022987Y0030525D02*
X0064301Y0030525D01*
X0064053Y0031124D02*
X0022902Y0031124D01*
X0021693Y0031722D02*
X0063805Y0031722D01*
X0063765Y0032321D02*
X0021693Y0032321D01*
X0021693Y0032919D02*
X0021947Y0032919D01*
X0016832Y0032321D02*
X0013747Y0032321D01*
X0013726Y0031722D02*
X0013126Y0031722D01*
X0013126Y0031124D02*
X0013726Y0031124D01*
X0013726Y0030525D02*
X0013126Y0030525D01*
X0013126Y0029927D02*
X0013726Y0029927D01*
X0013726Y0029328D02*
X0013126Y0029328D01*
X0013126Y0028730D02*
X0013726Y0028730D01*
X0013126Y0028131D02*
X0003100Y0028131D01*
X0003100Y0023941D02*
X0017173Y0023941D01*
X0013726Y0025138D02*
X0013126Y0025138D01*
X0013126Y0025737D02*
X0013726Y0025737D01*
X0013726Y0026336D02*
X0013126Y0026336D01*
X0013126Y0026934D02*
X0013726Y0026934D01*
X0013726Y0027533D02*
X0013126Y0027533D01*
X0016301Y0028730D02*
X0016832Y0028730D01*
X0016832Y0029328D02*
X0016301Y0029328D01*
X0016301Y0029927D02*
X0016832Y0029927D01*
X0016832Y0030525D02*
X0016301Y0030525D01*
X0016224Y0031124D02*
X0016832Y0031124D01*
X0016832Y0031722D02*
X0015770Y0031722D01*
X0016562Y0032919D02*
X0014355Y0032919D01*
X0014490Y0033518D02*
X0015963Y0033518D01*
X0015365Y0034116D02*
X0014490Y0034116D01*
X0014490Y0034715D02*
X0014766Y0034715D01*
X0014168Y0035313D02*
X0011128Y0035313D01*
X0014090Y0043204D02*
X0014090Y0044109D01*
X0013563Y0044636D01*
X0010374Y0044636D01*
X0010374Y0047876D01*
X0011830Y0047876D01*
X0012357Y0048403D01*
X0012357Y0049662D01*
X0015066Y0049662D01*
X0016116Y0048612D01*
X0017980Y0048612D01*
X0018313Y0048946D01*
X0018313Y0048297D01*
X0018173Y0048156D01*
X0018002Y0047860D01*
X0017913Y0047529D01*
X0017913Y0046768D01*
X0021772Y0046768D01*
X0021772Y0046768D01*
X0017913Y0046768D01*
X0017913Y0046006D01*
X0018002Y0045675D01*
X0018173Y0045379D01*
X0018313Y0045239D01*
X0018313Y0043836D01*
X0018841Y0043309D01*
X0021568Y0043309D01*
X0021463Y0043203D01*
X0021463Y0042731D01*
X0020990Y0043204D01*
X0014090Y0043204D01*
X0014090Y0043692D02*
X0018457Y0043692D01*
X0018313Y0044291D02*
X0013908Y0044291D01*
X0010374Y0044889D02*
X0018313Y0044889D01*
X0018110Y0045488D02*
X0010374Y0045488D01*
X0010374Y0046086D02*
X0017913Y0046086D01*
X0017913Y0046685D02*
X0010374Y0046685D01*
X0010374Y0047283D02*
X0017913Y0047283D01*
X0018015Y0047882D02*
X0011837Y0047882D01*
X0012357Y0048480D02*
X0018313Y0048480D01*
X0021772Y0048736D02*
X0022300Y0049150D01*
X0041500Y0049150D01*
X0034979Y0043692D02*
X0075700Y0043692D01*
X0075700Y0043094D02*
X0035468Y0043094D01*
X0035468Y0042495D02*
X0075700Y0042495D01*
X0075700Y0041897D02*
X0035468Y0041897D01*
X0035468Y0041298D02*
X0075151Y0041298D01*
X0074552Y0040700D02*
X0035468Y0040700D01*
X0035468Y0040101D02*
X0073954Y0040101D01*
X0073355Y0039503D02*
X0035468Y0039503D01*
X0035468Y0038904D02*
X0072757Y0038904D01*
X0072158Y0038306D02*
X0035468Y0038306D01*
X0035468Y0037707D02*
X0071560Y0037707D01*
X0070961Y0037109D02*
X0070229Y0037109D01*
X0072560Y0035313D02*
X0084047Y0035313D01*
X0084103Y0035425D02*
X0083739Y0034710D01*
X0083491Y0033946D01*
X0083365Y0033153D01*
X0083365Y0033052D01*
X0088165Y0033052D01*
X0088165Y0032452D01*
X0083365Y0032452D01*
X0083365Y0032351D01*
X0083491Y0031558D01*
X0083739Y0030794D01*
X0084103Y0030079D01*
X0084575Y0029430D01*
X0085143Y0028862D01*
X0085792Y0028390D01*
X0086508Y0028026D01*
X0087271Y0027778D01*
X0088064Y0027652D01*
X0088165Y0027652D01*
X0088165Y0032452D01*
X0088765Y0032452D01*
X0088765Y0027652D01*
X0088867Y0027652D01*
X0089660Y0027778D01*
X0090423Y0028026D01*
X0091138Y0028390D01*
X0091788Y0028862D01*
X0092355Y0029430D01*
X0092827Y0030079D01*
X0093192Y0030794D01*
X0093440Y0031558D01*
X0093565Y0032351D01*
X0093565Y0032452D01*
X0088765Y0032452D01*
X0088765Y0033052D01*
X0088165Y0033052D01*
X0088165Y0037852D01*
X0088064Y0037852D01*
X0087271Y0037726D01*
X0086508Y0037478D01*
X0085792Y0037114D01*
X0085143Y0036642D01*
X0084575Y0036074D01*
X0084103Y0035425D01*
X0084457Y0035912D02*
X0073158Y0035912D01*
X0073757Y0036510D02*
X0085011Y0036510D01*
X0085785Y0037109D02*
X0074355Y0037109D01*
X0074954Y0037707D02*
X0087212Y0037707D01*
X0088165Y0037707D02*
X0088765Y0037707D01*
X0088765Y0037852D02*
X0088867Y0037852D01*
X0089660Y0037726D01*
X0090423Y0037478D01*
X0091138Y0037114D01*
X0091788Y0036642D01*
X0092355Y0036074D01*
X0092827Y0035425D01*
X0093192Y0034710D01*
X0093440Y0033946D01*
X0093565Y0033153D01*
X0093565Y0033052D01*
X0088765Y0033052D01*
X0088765Y0037852D01*
X0088765Y0037109D02*
X0088165Y0037109D01*
X0088165Y0036510D02*
X0088765Y0036510D01*
X0088765Y0035912D02*
X0088165Y0035912D01*
X0088165Y0035313D02*
X0088765Y0035313D01*
X0088765Y0034715D02*
X0088165Y0034715D01*
X0088165Y0034116D02*
X0088765Y0034116D01*
X0088765Y0033518D02*
X0088165Y0033518D01*
X0088165Y0032919D02*
X0073165Y0032919D01*
X0073165Y0032321D02*
X0083370Y0032321D01*
X0083465Y0031722D02*
X0073126Y0031722D01*
X0072878Y0031124D02*
X0083632Y0031124D01*
X0083876Y0030525D02*
X0072630Y0030525D01*
X0072287Y0029927D02*
X0084214Y0029927D01*
X0084677Y0029328D02*
X0071688Y0029328D01*
X0071036Y0028730D02*
X0085325Y0028730D01*
X0086301Y0028131D02*
X0069591Y0028131D01*
X0068465Y0032752D02*
X0068500Y0032950D01*
X0076900Y0041350D01*
X0076900Y0050950D01*
X0079150Y0050874D02*
X0091635Y0050874D01*
X0091635Y0051473D02*
X0079150Y0051473D01*
X0078961Y0052071D02*
X0091635Y0052071D01*
X0091635Y0052670D02*
X0078362Y0052670D01*
X0078072Y0053323D02*
X0063308Y0053323D01*
X0063100Y0053350D01*
X0060700Y0053350D01*
X0060700Y0055750D01*
X0043900Y0072550D01*
X0042700Y0065350D02*
X0042700Y0063550D01*
X0047500Y0058750D01*
X0056449Y0057458D02*
X0062397Y0057458D01*
X0063308Y0058244D02*
X0057894Y0063657D01*
X0053561Y0068830D02*
X0078639Y0068830D01*
X0078040Y0069428D02*
X0054160Y0069428D01*
X0052300Y0070750D02*
X0079900Y0070750D01*
X0076300Y0073150D02*
X0090100Y0086950D01*
X0111700Y0086950D01*
X0114489Y0089248D02*
X0084961Y0089248D01*
X0083977Y0088264D01*
X0089391Y0082358D02*
X0089391Y0070547D01*
X0088406Y0070547D01*
X0086930Y0069071D01*
X0086930Y0065626D01*
X0090375Y0065626D01*
X0089391Y0068087D02*
X0094804Y0073500D01*
X0152383Y0073500D01*
X0161733Y0064150D01*
X0161733Y0040035D01*
X0137619Y0040035D01*
X0137166Y0039760D01*
X0134509Y0035912D02*
X0131747Y0035912D01*
X0131149Y0035313D02*
X0135881Y0035313D01*
X0133910Y0036510D02*
X0132346Y0036510D01*
X0132944Y0037109D02*
X0133312Y0037109D01*
X0130550Y0034715D02*
X0159098Y0034715D01*
X0158499Y0034116D02*
X0129952Y0034116D01*
X0129353Y0033518D02*
X0157901Y0033518D01*
X0157340Y0032919D02*
X0128755Y0032919D01*
X0128156Y0032321D02*
X0157092Y0032321D01*
X0156844Y0031722D02*
X0127558Y0031722D01*
X0126959Y0031124D02*
X0156596Y0031124D01*
X0156348Y0030525D02*
X0126361Y0030525D01*
X0125762Y0029927D02*
X0156193Y0029927D01*
X0156193Y0029328D02*
X0125164Y0029328D01*
X0124565Y0028730D02*
X0156193Y0028730D01*
X0156193Y0028131D02*
X0123967Y0028131D01*
X0123368Y0027533D02*
X0156193Y0027533D01*
X0156256Y0026934D02*
X0122770Y0026934D01*
X0122171Y0026336D02*
X0156504Y0026336D01*
X0156751Y0025737D02*
X0121573Y0025737D01*
X0120974Y0025138D02*
X0156999Y0025138D01*
X0157247Y0024540D02*
X0120376Y0024540D01*
X0119777Y0023941D02*
X0157678Y0023941D01*
X0158276Y0023343D02*
X0003100Y0023343D01*
X0003100Y0022744D02*
X0158875Y0022744D01*
X0159926Y0035313D02*
X0138451Y0035313D01*
X0139823Y0035912D02*
X0161371Y0035912D01*
X0162299Y0038904D02*
X0170755Y0038904D01*
X0170757Y0038306D02*
X0141543Y0038306D01*
X0141295Y0037707D02*
X0170758Y0037707D01*
X0170759Y0037109D02*
X0141020Y0037109D01*
X0140422Y0036510D02*
X0170761Y0036510D01*
X0170762Y0035912D02*
X0166426Y0035912D01*
X0167871Y0035313D02*
X0170764Y0035313D01*
X0170765Y0034715D02*
X0168699Y0034715D01*
X0169298Y0034116D02*
X0170767Y0034116D01*
X0170768Y0033518D02*
X0169896Y0033518D01*
X0170457Y0032919D02*
X0170769Y0032919D01*
X0170771Y0032321D02*
X0170705Y0032321D01*
X0170754Y0039503D02*
X0162897Y0039503D01*
X0162933Y0040101D02*
X0170752Y0040101D01*
X0170751Y0040700D02*
X0162933Y0040700D01*
X0162933Y0041298D02*
X0170750Y0041298D01*
X0170748Y0041897D02*
X0162933Y0041897D01*
X0162933Y0042495D02*
X0170747Y0042495D01*
X0170745Y0043094D02*
X0162933Y0043094D01*
X0162933Y0043692D02*
X0170744Y0043692D01*
X0170742Y0044291D02*
X0162933Y0044291D01*
X0162933Y0044889D02*
X0170741Y0044889D01*
X0170740Y0045488D02*
X0162933Y0045488D01*
X0162933Y0046086D02*
X0170738Y0046086D01*
X0170737Y0046685D02*
X0162933Y0046685D01*
X0162933Y0047283D02*
X0170735Y0047283D01*
X0170734Y0047882D02*
X0162933Y0047882D01*
X0162933Y0048480D02*
X0170732Y0048480D01*
X0170731Y0049079D02*
X0162933Y0049079D01*
X0162933Y0049677D02*
X0170730Y0049677D01*
X0170728Y0050276D02*
X0162933Y0050276D01*
X0162933Y0050874D02*
X0170727Y0050874D01*
X0170725Y0051473D02*
X0162933Y0051473D01*
X0162933Y0052071D02*
X0170724Y0052071D01*
X0170723Y0052670D02*
X0162933Y0052670D01*
X0162933Y0053269D02*
X0170721Y0053269D01*
X0170720Y0053867D02*
X0162933Y0053867D01*
X0162933Y0054466D02*
X0170718Y0054466D01*
X0170717Y0055064D02*
X0162933Y0055064D01*
X0162933Y0055663D02*
X0170715Y0055663D01*
X0170714Y0056261D02*
X0162933Y0056261D01*
X0162933Y0056860D02*
X0170713Y0056860D01*
X0170711Y0057458D02*
X0162933Y0057458D01*
X0162933Y0058057D02*
X0170710Y0058057D01*
X0170708Y0058655D02*
X0162933Y0058655D01*
X0162933Y0059254D02*
X0170707Y0059254D01*
X0170706Y0059852D02*
X0162933Y0059852D01*
X0162933Y0060451D02*
X0170704Y0060451D01*
X0170703Y0061049D02*
X0162933Y0061049D01*
X0162933Y0061648D02*
X0170701Y0061648D01*
X0170700Y0062246D02*
X0162933Y0062246D01*
X0162933Y0062845D02*
X0170698Y0062845D01*
X0170697Y0063443D02*
X0162933Y0063443D01*
X0162933Y0064042D02*
X0170696Y0064042D01*
X0170694Y0064640D02*
X0162933Y0064640D01*
X0162341Y0065239D02*
X0170693Y0065239D01*
X0170691Y0065837D02*
X0161742Y0065837D01*
X0161144Y0066436D02*
X0170690Y0066436D01*
X0170688Y0067034D02*
X0160545Y0067034D01*
X0159947Y0067633D02*
X0170687Y0067633D01*
X0170686Y0068231D02*
X0159348Y0068231D01*
X0158750Y0068830D02*
X0170684Y0068830D01*
X0170683Y0069428D02*
X0158151Y0069428D01*
X0157553Y0070027D02*
X0170681Y0070027D01*
X0170680Y0070625D02*
X0156954Y0070625D01*
X0156356Y0071224D02*
X0170679Y0071224D01*
X0170677Y0071822D02*
X0155757Y0071822D01*
X0155159Y0072421D02*
X0170676Y0072421D01*
X0170674Y0073019D02*
X0154560Y0073019D01*
X0153962Y0073618D02*
X0170673Y0073618D01*
X0170671Y0074216D02*
X0153363Y0074216D01*
X0155747Y0077209D02*
X0129710Y0077209D01*
X0130026Y0076610D02*
X0170666Y0076610D01*
X0170667Y0076012D02*
X0130026Y0076012D01*
X0130026Y0075413D02*
X0170669Y0075413D01*
X0170670Y0074815D02*
X0129813Y0074815D01*
X0123437Y0081997D02*
X0156709Y0081997D01*
X0156709Y0081399D02*
X0157309Y0081399D01*
X0157309Y0081861D02*
X0157309Y0077061D01*
X0157410Y0077061D01*
X0158203Y0077187D01*
X0158966Y0077435D01*
X0159682Y0077800D01*
X0160331Y0078271D01*
X0160899Y0078839D01*
X0161371Y0079488D01*
X0161735Y0080204D01*
X0161983Y0080967D01*
X0162109Y0081760D01*
X0162109Y0081861D01*
X0157309Y0081861D01*
X0157309Y0081997D02*
X0170653Y0081997D01*
X0170654Y0081399D02*
X0162051Y0081399D01*
X0161929Y0080800D02*
X0170656Y0080800D01*
X0170657Y0080202D02*
X0161734Y0080202D01*
X0161429Y0079603D02*
X0170659Y0079603D01*
X0170660Y0079005D02*
X0161019Y0079005D01*
X0160466Y0078406D02*
X0170662Y0078406D01*
X0170663Y0077807D02*
X0159693Y0077807D01*
X0158271Y0077209D02*
X0170664Y0077209D01*
X0170652Y0082596D02*
X0162103Y0082596D01*
X0162009Y0083194D02*
X0170650Y0083194D01*
X0170649Y0083793D02*
X0161841Y0083793D01*
X0161596Y0084391D02*
X0170647Y0084391D01*
X0170646Y0084990D02*
X0161258Y0084990D01*
X0160794Y0085588D02*
X0170644Y0085588D01*
X0170643Y0086187D02*
X0160145Y0086187D01*
X0159168Y0086785D02*
X0170642Y0086785D01*
X0170640Y0087384D02*
X0118050Y0087384D01*
X0117452Y0087982D02*
X0170639Y0087982D01*
X0157309Y0080800D02*
X0156709Y0080800D01*
X0156709Y0080202D02*
X0157309Y0080202D01*
X0157309Y0079603D02*
X0156709Y0079603D01*
X0156709Y0079005D02*
X0157309Y0079005D01*
X0157309Y0078406D02*
X0156709Y0078406D01*
X0156709Y0077807D02*
X0157309Y0077807D01*
X0157309Y0077209D02*
X0156709Y0077209D01*
X0148446Y0081866D02*
X0139095Y0081866D01*
X0138111Y0080882D01*
X0157009Y0062161D02*
X0156812Y0061689D01*
X0146477Y0051354D01*
X0137127Y0051354D01*
X0137048Y0050941D01*
X0131006Y0047882D02*
X0130494Y0047882D01*
X0131006Y0047283D02*
X0129896Y0047283D01*
X0128793Y0046685D02*
X0131006Y0046685D01*
X0131006Y0046086D02*
X0118288Y0046086D01*
X0118219Y0046064D02*
X0118967Y0046307D01*
X0119669Y0046665D01*
X0120305Y0047127D01*
X0120862Y0047684D01*
X0121324Y0048320D01*
X0121682Y0049022D01*
X0121925Y0049770D01*
X0122048Y0050547D01*
X0122048Y0050641D01*
X0117348Y0050641D01*
X0117348Y0045941D01*
X0117442Y0045941D01*
X0118219Y0046064D01*
X0117348Y0046086D02*
X0116748Y0046086D01*
X0116748Y0046685D02*
X0117348Y0046685D01*
X0117348Y0047283D02*
X0116748Y0047283D01*
X0116748Y0047882D02*
X0117348Y0047882D01*
X0117348Y0048480D02*
X0116748Y0048480D01*
X0116748Y0049079D02*
X0117348Y0049079D01*
X0117348Y0049677D02*
X0116748Y0049677D01*
X0116748Y0050276D02*
X0117348Y0050276D01*
X0117442Y0050862D02*
X0117048Y0050941D01*
X0116950Y0051354D01*
X0111536Y0051354D01*
X0108583Y0054307D01*
X0098249Y0043972D01*
X0090375Y0043972D01*
X0088898Y0042496D01*
X0078072Y0053323D01*
X0079150Y0050276D02*
X0091725Y0050276D01*
X0092323Y0049677D02*
X0078809Y0049677D01*
X0078211Y0049079D02*
X0107555Y0049079D01*
X0106957Y0048480D02*
X0078100Y0048480D01*
X0078100Y0047882D02*
X0106358Y0047882D01*
X0106333Y0047283D02*
X0078100Y0047283D01*
X0078100Y0046685D02*
X0106333Y0046685D01*
X0106333Y0046086D02*
X0078100Y0046086D01*
X0078100Y0045488D02*
X0106839Y0045488D01*
X0107437Y0044889D02*
X0078100Y0044889D01*
X0078100Y0044291D02*
X0109521Y0044291D01*
X0110119Y0043692D02*
X0092360Y0043692D01*
X0092959Y0043094D02*
X0113995Y0043094D01*
X0113396Y0042495D02*
X0093558Y0042495D01*
X0093609Y0041897D02*
X0113072Y0041897D01*
X0112824Y0041298D02*
X0093609Y0041298D01*
X0092835Y0040035D02*
X0116950Y0040035D01*
X0117166Y0039760D01*
X0114509Y0035912D02*
X0092474Y0035912D01*
X0092884Y0035313D02*
X0115881Y0035313D01*
X0113910Y0036510D02*
X0091920Y0036510D01*
X0091145Y0037109D02*
X0113312Y0037109D01*
X0113037Y0037707D02*
X0089719Y0037707D01*
X0090186Y0039503D02*
X0076749Y0039503D01*
X0076151Y0038904D02*
X0092270Y0038904D01*
X0092835Y0040035D02*
X0091359Y0041512D01*
X0089759Y0043094D02*
X0078100Y0043094D01*
X0078100Y0043692D02*
X0090358Y0043692D01*
X0089161Y0042495D02*
X0078100Y0042495D01*
X0078100Y0041897D02*
X0089109Y0041897D01*
X0089109Y0041298D02*
X0078100Y0041298D01*
X0077946Y0040700D02*
X0089109Y0040700D01*
X0089588Y0040101D02*
X0077348Y0040101D01*
X0075552Y0038306D02*
X0112789Y0038306D01*
X0111044Y0044465D02*
X0122363Y0044465D01*
X0126792Y0040035D01*
X0127166Y0039760D01*
X0124509Y0035912D02*
X0119823Y0035912D01*
X0120422Y0036510D02*
X0123910Y0036510D01*
X0123312Y0037109D02*
X0121020Y0037109D01*
X0121295Y0037707D02*
X0123037Y0037707D01*
X0122789Y0038306D02*
X0121543Y0038306D01*
X0121766Y0038904D02*
X0122566Y0038904D01*
X0122566Y0039503D02*
X0121766Y0039503D01*
X0121766Y0040101D02*
X0122566Y0040101D01*
X0122576Y0040700D02*
X0121756Y0040700D01*
X0121508Y0041298D02*
X0122824Y0041298D01*
X0123072Y0041897D02*
X0121260Y0041897D01*
X0120936Y0042495D02*
X0122635Y0042495D01*
X0122037Y0043094D02*
X0120338Y0043094D01*
X0123037Y0045488D02*
X0131006Y0045488D01*
X0131006Y0044889D02*
X0123635Y0044889D01*
X0124234Y0044291D02*
X0126085Y0044291D01*
X0128248Y0044291D02*
X0131006Y0044291D01*
X0131006Y0043692D02*
X0129693Y0043692D01*
X0130338Y0043094D02*
X0131006Y0043094D01*
X0131006Y0042495D02*
X0130936Y0042495D01*
X0125303Y0046685D02*
X0119697Y0046685D01*
X0120462Y0047283D02*
X0124200Y0047283D01*
X0123602Y0047882D02*
X0121006Y0047882D01*
X0121406Y0048480D02*
X0123088Y0048480D01*
X0122840Y0049079D02*
X0121700Y0049079D01*
X0121895Y0049677D02*
X0122592Y0049677D01*
X0122448Y0050276D02*
X0122005Y0050276D01*
X0122448Y0050874D02*
X0117348Y0050874D01*
X0117348Y0051473D02*
X0116748Y0051473D01*
X0116748Y0052071D02*
X0117348Y0052071D01*
X0117348Y0052670D02*
X0116748Y0052670D01*
X0116748Y0053269D02*
X0117348Y0053269D01*
X0117348Y0053867D02*
X0116748Y0053867D01*
X0116748Y0054466D02*
X0117348Y0054466D01*
X0117348Y0055064D02*
X0116748Y0055064D01*
X0114216Y0055064D02*
X0103664Y0055064D01*
X0101581Y0054466D02*
X0113502Y0054466D01*
X0112994Y0053867D02*
X0100982Y0053867D01*
X0100384Y0053269D02*
X0112622Y0053269D01*
X0112353Y0052670D02*
X0099785Y0052670D01*
X0099187Y0052071D02*
X0112165Y0052071D01*
X0112070Y0051473D02*
X0098588Y0051473D01*
X0097990Y0050874D02*
X0116748Y0050874D01*
X0119880Y0055064D02*
X0121385Y0055064D01*
X0121984Y0054466D02*
X0120594Y0054466D01*
X0121102Y0053867D02*
X0122582Y0053867D01*
X0123033Y0053269D02*
X0121474Y0053269D01*
X0121744Y0052670D02*
X0122785Y0052670D01*
X0122537Y0052071D02*
X0121931Y0052071D01*
X0122026Y0051473D02*
X0122448Y0051473D01*
X0115808Y0046086D02*
X0111119Y0046086D01*
X0110833Y0046685D02*
X0114399Y0046685D01*
X0113634Y0047283D02*
X0110833Y0047283D01*
X0110809Y0047882D02*
X0113090Y0047882D01*
X0112690Y0048480D02*
X0110210Y0048480D01*
X0109612Y0049079D02*
X0112396Y0049079D01*
X0112201Y0049677D02*
X0096793Y0049677D01*
X0097391Y0050276D02*
X0112091Y0050276D01*
X0108583Y0046925D02*
X0111044Y0044465D01*
X0118451Y0035313D02*
X0125881Y0035313D01*
X0126558Y0034116D02*
X0093385Y0034116D01*
X0093508Y0033518D02*
X0125959Y0033518D01*
X0125361Y0032919D02*
X0088765Y0032919D01*
X0088898Y0033146D02*
X0088465Y0032752D01*
X0088165Y0032321D02*
X0088765Y0032321D01*
X0088765Y0031722D02*
X0088165Y0031722D01*
X0088165Y0031124D02*
X0088765Y0031124D01*
X0088765Y0030525D02*
X0088165Y0030525D01*
X0088165Y0029927D02*
X0088765Y0029927D01*
X0088765Y0029328D02*
X0088165Y0029328D01*
X0088165Y0028730D02*
X0088765Y0028730D01*
X0088765Y0028131D02*
X0088165Y0028131D01*
X0090630Y0028131D02*
X0120573Y0028131D01*
X0121171Y0028730D02*
X0091606Y0028730D01*
X0092254Y0029328D02*
X0121770Y0029328D01*
X0122368Y0029927D02*
X0092717Y0029927D01*
X0093055Y0030525D02*
X0122967Y0030525D01*
X0123565Y0031124D02*
X0093299Y0031124D01*
X0093466Y0031722D02*
X0124164Y0031722D01*
X0124762Y0032321D02*
X0093561Y0032321D01*
X0093189Y0034715D02*
X0127156Y0034715D01*
X0119974Y0027533D02*
X0022987Y0027533D01*
X0022987Y0026934D02*
X0119376Y0026934D01*
X0118777Y0026336D02*
X0022987Y0026336D01*
X0034984Y0032919D02*
X0063765Y0032919D01*
X0063765Y0033518D02*
X0035468Y0033518D01*
X0035468Y0034116D02*
X0063943Y0034116D01*
X0064191Y0034715D02*
X0035468Y0034715D01*
X0035468Y0035313D02*
X0064439Y0035313D01*
X0064978Y0035912D02*
X0035468Y0035912D01*
X0035468Y0036510D02*
X0065577Y0036510D01*
X0066702Y0037109D02*
X0035468Y0037109D01*
X0025231Y0044291D02*
X0075700Y0044291D01*
X0075700Y0044889D02*
X0025231Y0044889D01*
X0025435Y0045488D02*
X0075700Y0045488D01*
X0075700Y0046086D02*
X0025631Y0046086D01*
X0025631Y0046685D02*
X0075700Y0046685D01*
X0075700Y0047283D02*
X0025631Y0047283D01*
X0025631Y0046768D02*
X0021773Y0046768D01*
X0021773Y0046768D01*
X0025631Y0046768D01*
X0025530Y0047882D02*
X0075700Y0047882D01*
X0072740Y0034715D02*
X0083742Y0034715D01*
X0083546Y0034116D02*
X0072988Y0034116D01*
X0073165Y0033518D02*
X0083423Y0033518D01*
X0088898Y0033146D02*
X0088898Y0042496D01*
X0089220Y0056860D02*
X0090554Y0056860D01*
X0089956Y0057458D02*
X0089672Y0057458D01*
X0097300Y0062845D02*
X0071955Y0062845D01*
X0071625Y0063443D02*
X0075625Y0063443D01*
X0075027Y0064042D02*
X0071027Y0064042D01*
X0078175Y0063443D02*
X0097300Y0063443D01*
X0060700Y0053350D02*
X0054100Y0046750D01*
X0022300Y0046750D01*
X0021772Y0046768D01*
X0021463Y0043094D02*
X0021100Y0043094D01*
X0015649Y0049079D02*
X0012357Y0049079D01*
X0025231Y0058655D02*
X0037023Y0058655D01*
X0046300Y0134950D02*
X0037300Y0143950D01*
X0030313Y0165190D02*
X0003100Y0165190D01*
X0003100Y0165789D02*
X0029435Y0165789D01*
X0028837Y0166387D02*
X0003100Y0166387D01*
X0003100Y0166986D02*
X0028416Y0166986D01*
X0028168Y0167584D02*
X0003100Y0167584D01*
X0003100Y0168183D02*
X0027920Y0168183D01*
X0027842Y0168781D02*
X0003100Y0168781D01*
D18*
X0039700Y0145150D03*
X0052300Y0138550D03*
X0063100Y0153550D03*
X0087100Y0153550D03*
X0087100Y0145750D03*
X0096700Y0138550D03*
X0100300Y0116350D03*
X0102700Y0113950D03*
X0097900Y0112750D03*
X0096100Y0115750D03*
X0088900Y0112750D03*
X0085300Y0113950D03*
X0090100Y0101950D03*
X0090100Y0098350D03*
X0084100Y0093550D03*
X0083977Y0088264D03*
X0089391Y0082358D03*
X0086500Y0079750D03*
X0079900Y0070750D03*
X0076900Y0065350D03*
X0069706Y0062181D03*
X0063100Y0053350D03*
X0054942Y0055783D03*
X0057894Y0063657D03*
X0052300Y0070750D03*
X0048700Y0071350D03*
X0045100Y0067750D03*
X0042700Y0065350D03*
X0037900Y0070150D03*
X0027383Y0064150D03*
X0038500Y0056950D03*
X0037300Y0052150D03*
X0044500Y0052150D03*
X0047500Y0058750D03*
X0056418Y0076945D03*
X0052900Y0078550D03*
X0058900Y0084550D03*
X0063700Y0085750D03*
X0067300Y0083950D03*
X0068500Y0088150D03*
X0078700Y0095350D03*
X0073300Y0117550D03*
X0054700Y0121150D03*
X0050513Y0088756D03*
X0076900Y0050950D03*
X0087422Y0058244D03*
X0095500Y0053350D03*
X0102186Y0056768D03*
X0108583Y0054307D03*
X0108583Y0046925D03*
X0091359Y0041512D03*
X0089391Y0068087D03*
X0095788Y0071039D03*
X0098500Y0068350D03*
X0108091Y0071039D03*
X0111700Y0086950D03*
X0122855Y0091217D03*
X0127776Y0075961D03*
X0138111Y0080882D03*
X0131221Y0059720D03*
X0017048Y0050862D03*
X0011500Y0064750D03*
X0006100Y0070150D03*
X0008682Y0073008D03*
M02*
