G75*
%MOIN*%
%OFA0B0*%
%FSLAX25Y25*%
%IPPOS*%
%LPD*%
%AMOC8*
5,1,8,0,0,1.08239X$1,22.5*
%
%ADD10C,0.12411*%
%ADD11R,0.03750X0.05324*%
%ADD12R,0.05324X0.03750*%
%ADD13C,0.08000*%
%ADD14R,0.05512X0.01575*%
%ADD15R,0.12805X0.09655*%
%ADD16C,0.08200*%
%ADD17C,0.03600*%
%ADD18C,0.06899*%
%ADD19C,0.07687*%
%ADD20C,0.03300*%
D10*
X0011536Y0176650D03*
X0163898Y0028618D03*
D11*
X0013426Y0028303D03*
X0020513Y0028303D03*
D12*
X0010828Y0035075D03*
X0010828Y0042161D03*
X0009095Y0050350D03*
X0009095Y0057437D03*
D13*
X0032560Y0158657D03*
X0042560Y0158657D03*
X0052560Y0158657D03*
X0052442Y0169287D03*
X0042442Y0169287D03*
X0032442Y0169287D03*
X0117048Y0050941D03*
X0127048Y0050941D03*
X0137048Y0050941D03*
X0137166Y0039760D03*
X0127166Y0039760D03*
X0117166Y0039760D03*
D14*
X0021772Y0044799D03*
X0021772Y0046768D03*
X0021772Y0048736D03*
X0021772Y0050705D03*
X0021772Y0052673D03*
X0021772Y0054642D03*
X0021772Y0056610D03*
X0021772Y0058579D03*
X0021772Y0060547D03*
X0021772Y0062516D03*
X0021772Y0064484D03*
X0021772Y0066453D03*
X0021772Y0068421D03*
X0021772Y0070390D03*
X0021772Y0072358D03*
X0021772Y0074327D03*
X0021772Y0076295D03*
X0021772Y0078264D03*
X0021772Y0080232D03*
X0021772Y0082201D03*
X0021772Y0084169D03*
X0021772Y0086138D03*
X0021772Y0088106D03*
X0021772Y0090075D03*
D15*
X0028465Y0096571D03*
X0028465Y0038303D03*
D16*
X0068465Y0032752D03*
X0088465Y0032752D03*
X0157009Y0062161D03*
X0157009Y0082161D03*
D17*
X0148072Y0119417D02*
X0148072Y0125417D01*
X0147572Y0124917D02*
X0153572Y0124917D01*
X0153572Y0129917D02*
X0147572Y0129917D01*
X0147572Y0134917D02*
X0153572Y0134917D01*
X0153572Y0139917D02*
X0147572Y0139917D01*
X0147572Y0144917D02*
X0153572Y0144917D01*
X0153572Y0149917D02*
X0147572Y0149917D01*
X0147572Y0154917D02*
X0153572Y0154917D01*
X0153572Y0159917D02*
X0147572Y0159917D01*
X0147572Y0164917D02*
X0153572Y0164917D01*
X0153572Y0169917D02*
X0147572Y0169917D01*
X0147572Y0174917D02*
X0153572Y0174917D01*
X0148072Y0174417D02*
X0148072Y0180417D01*
X0143072Y0180417D02*
X0143072Y0174417D01*
X0138072Y0174417D02*
X0138072Y0180417D01*
X0133072Y0180417D02*
X0133072Y0174417D01*
X0128072Y0174417D02*
X0128072Y0180417D01*
X0123072Y0180417D02*
X0123072Y0174417D01*
X0118072Y0174417D02*
X0118072Y0180417D01*
X0113072Y0180417D02*
X0113072Y0174417D01*
X0108072Y0174417D02*
X0108072Y0180417D01*
X0103072Y0180417D02*
X0103072Y0174417D01*
X0098072Y0174417D02*
X0098072Y0180417D01*
X0093072Y0180417D02*
X0093072Y0174417D01*
X0088072Y0174417D02*
X0088072Y0180417D01*
X0083072Y0180417D02*
X0083072Y0174417D01*
X0078072Y0174417D02*
X0078072Y0180417D01*
X0078572Y0174917D02*
X0072572Y0174917D01*
X0072572Y0169917D02*
X0078572Y0169917D01*
X0078572Y0164917D02*
X0072572Y0164917D01*
X0072572Y0159917D02*
X0078572Y0159917D01*
X0078572Y0154917D02*
X0072572Y0154917D01*
X0072572Y0149917D02*
X0078572Y0149917D01*
X0078572Y0144917D02*
X0072572Y0144917D01*
X0072572Y0139917D02*
X0078572Y0139917D01*
X0078572Y0134917D02*
X0072572Y0134917D01*
X0072572Y0129917D02*
X0078572Y0129917D01*
X0078572Y0124917D02*
X0072572Y0124917D01*
X0078072Y0125417D02*
X0078072Y0119417D01*
X0083072Y0119417D02*
X0083072Y0125417D01*
X0088072Y0125417D02*
X0088072Y0119417D01*
X0093072Y0119417D02*
X0093072Y0125417D01*
X0098072Y0125417D02*
X0098072Y0119417D01*
X0103072Y0119417D02*
X0103072Y0125417D01*
X0108072Y0125417D02*
X0108072Y0119417D01*
X0113072Y0119417D02*
X0113072Y0125417D01*
X0118072Y0125417D02*
X0118072Y0119417D01*
X0123072Y0119417D02*
X0123072Y0125417D01*
X0128072Y0125417D02*
X0128072Y0119417D01*
X0133072Y0119417D02*
X0133072Y0125417D01*
X0138072Y0125417D02*
X0138072Y0119417D01*
X0143072Y0119417D02*
X0143072Y0125417D01*
D18*
X0140355Y0141256D03*
D19*
X0122639Y0141256D03*
D20*
X0100300Y0116350D03*
X0102700Y0113950D03*
X0097900Y0112750D03*
X0096100Y0115750D03*
X0088900Y0112750D03*
X0085300Y0113950D03*
X0090100Y0101950D03*
X0090100Y0098350D03*
X0084100Y0093550D03*
X0083977Y0088264D03*
X0089391Y0082358D03*
X0086500Y0079750D03*
X0079900Y0070750D03*
X0076900Y0065350D03*
X0069706Y0062181D03*
X0063100Y0053350D03*
X0054942Y0055783D03*
X0057894Y0063657D03*
X0052300Y0070750D03*
X0048700Y0071350D03*
X0045100Y0067750D03*
X0042700Y0065350D03*
X0037900Y0070150D03*
X0027383Y0064150D03*
X0038500Y0056950D03*
X0037300Y0052150D03*
X0044500Y0052150D03*
X0047500Y0058750D03*
X0056418Y0076945D03*
X0052900Y0078550D03*
X0058900Y0084550D03*
X0063700Y0085750D03*
X0067300Y0083950D03*
X0068500Y0088150D03*
X0078700Y0095350D03*
X0073300Y0117550D03*
X0054700Y0121150D03*
X0052300Y0138550D03*
X0039700Y0145150D03*
X0063100Y0153550D03*
X0087100Y0153550D03*
X0087100Y0145750D03*
X0096700Y0138550D03*
X0122855Y0091217D03*
X0111700Y0086950D03*
X0108091Y0071039D03*
X0098500Y0068350D03*
X0095788Y0071039D03*
X0089391Y0068087D03*
X0087422Y0058244D03*
X0095500Y0053350D03*
X0102186Y0056768D03*
X0108583Y0054307D03*
X0108583Y0046925D03*
X0091359Y0041512D03*
X0076900Y0050950D03*
X0050513Y0088756D03*
X0017048Y0050862D03*
X0011500Y0064750D03*
X0006100Y0070150D03*
X0008682Y0073008D03*
X0127776Y0075961D03*
X0138111Y0080882D03*
X0131221Y0059720D03*
M02*
