G75*
%MOIN*%
%OFA0B0*%
%FSLAX25Y25*%
%IPPOS*%
%LPD*%
%AMOC8*
5,1,8,0,0,1.08239X$1,22.5*
%
%ADD10C,0.12411*%
%ADD11R,0.05324X0.03750*%
%ADD12R,0.03750X0.05324*%
%ADD13C,0.08000*%
%ADD14C,0.01361*%
%ADD15R,0.06400X0.01700*%
%ADD16R,0.01700X0.06400*%
%ADD17C,0.08200*%
%ADD18R,0.10836X0.08080*%
%ADD19R,0.13395X0.09065*%
%ADD20R,0.09065X0.04340*%
%ADD21R,0.10049X0.08474*%
%ADD22C,0.06899*%
%ADD23C,0.07687*%
%ADD24C,0.03300*%
D10*
X0011536Y0176650D03*
X0163898Y0028618D03*
D11*
X0137009Y0084524D03*
X0137009Y0091610D03*
X0157087Y0095587D03*
X0157087Y0102673D03*
X0068308Y0058382D03*
X0068308Y0051295D03*
X0067914Y0114484D03*
X0067914Y0121571D03*
X0044883Y0131453D03*
X0044883Y0138539D03*
X0028347Y0138579D03*
X0028347Y0145665D03*
X0011064Y0135390D03*
X0011064Y0128303D03*
X0010828Y0118185D03*
X0010828Y0111098D03*
D12*
X0015355Y0104130D03*
X0022442Y0104130D03*
X0022678Y0092870D03*
X0029765Y0092870D03*
X0040788Y0084445D03*
X0047875Y0084445D03*
X0047520Y0097043D03*
X0054607Y0097043D03*
X0054292Y0105114D03*
X0047206Y0105114D03*
X0049489Y0116138D03*
X0042402Y0116138D03*
X0014095Y0078697D03*
X0007009Y0078697D03*
X0051457Y0059012D03*
X0058544Y0059012D03*
X0087087Y0045862D03*
X0094174Y0045862D03*
X0100119Y0030508D03*
X0107206Y0030508D03*
X0133426Y0028894D03*
X0140513Y0028894D03*
X0146379Y0036217D03*
X0153465Y0036217D03*
X0156930Y0045665D03*
X0149843Y0045665D03*
X0140631Y0064327D03*
X0133544Y0064327D03*
X0133111Y0100547D03*
X0140198Y0100547D03*
X0142442Y0108657D03*
X0149528Y0108657D03*
D13*
X0137048Y0050941D03*
X0127048Y0050941D03*
X0117048Y0050941D03*
X0117166Y0039760D03*
X0127166Y0039760D03*
X0137166Y0039760D03*
X0052560Y0158657D03*
X0042560Y0158657D03*
X0032560Y0158657D03*
X0032442Y0169287D03*
X0042442Y0169287D03*
X0052442Y0169287D03*
D14*
X0033388Y0131663D02*
X0033388Y0128487D01*
X0030212Y0128487D01*
X0030212Y0131663D01*
X0033388Y0131663D01*
X0033388Y0129847D02*
X0030212Y0129847D01*
X0030212Y0131207D02*
X0033388Y0131207D01*
X0026482Y0131663D02*
X0026482Y0128487D01*
X0023306Y0128487D01*
X0023306Y0131663D01*
X0026482Y0131663D01*
X0026482Y0129847D02*
X0023306Y0129847D01*
X0023306Y0131207D02*
X0026482Y0131207D01*
X0026876Y0121545D02*
X0026876Y0118369D01*
X0023700Y0118369D01*
X0023700Y0121545D01*
X0026876Y0121545D01*
X0026876Y0119729D02*
X0023700Y0119729D01*
X0023700Y0121089D02*
X0026876Y0121089D01*
X0033782Y0121545D02*
X0033782Y0118369D01*
X0030606Y0118369D01*
X0030606Y0121545D01*
X0033782Y0121545D01*
X0033782Y0119729D02*
X0030606Y0119729D01*
X0030606Y0121089D02*
X0033782Y0121089D01*
X0035499Y0110129D02*
X0038675Y0110129D01*
X0035499Y0110129D02*
X0035499Y0113305D01*
X0038675Y0113305D01*
X0038675Y0110129D01*
X0038675Y0111489D02*
X0035499Y0111489D01*
X0035499Y0112849D02*
X0038675Y0112849D01*
X0038675Y0103223D02*
X0035499Y0103223D01*
X0035499Y0106399D01*
X0038675Y0106399D01*
X0038675Y0103223D01*
X0038675Y0104583D02*
X0035499Y0104583D01*
X0035499Y0105943D02*
X0038675Y0105943D01*
X0012416Y0144745D02*
X0009240Y0144745D01*
X0012416Y0144745D02*
X0012416Y0141569D01*
X0009240Y0141569D01*
X0009240Y0144745D01*
X0009240Y0142929D02*
X0012416Y0142929D01*
X0012416Y0144289D02*
X0009240Y0144289D01*
X0009240Y0151651D02*
X0012416Y0151651D01*
X0012416Y0148475D01*
X0009240Y0148475D01*
X0009240Y0151651D01*
X0009240Y0149835D02*
X0012416Y0149835D01*
X0012416Y0151195D02*
X0009240Y0151195D01*
D15*
X0073728Y0100032D03*
X0073728Y0098032D03*
X0073728Y0096032D03*
X0073728Y0094132D03*
X0073728Y0092132D03*
X0073728Y0090132D03*
X0073728Y0088232D03*
X0073728Y0086232D03*
X0073728Y0084232D03*
X0073728Y0082232D03*
X0073728Y0080332D03*
X0073728Y0078332D03*
X0073728Y0076332D03*
X0073728Y0074432D03*
X0073728Y0072432D03*
X0073728Y0070432D03*
X0117928Y0070432D03*
X0117928Y0072432D03*
X0117928Y0074432D03*
X0117928Y0076332D03*
X0117928Y0078332D03*
X0117928Y0080332D03*
X0117928Y0082232D03*
X0117928Y0084232D03*
X0117928Y0086232D03*
X0117928Y0088232D03*
X0117928Y0090132D03*
X0117928Y0092132D03*
X0117928Y0094132D03*
X0117928Y0096032D03*
X0117928Y0098032D03*
X0117928Y0100032D03*
D16*
X0110628Y0107332D03*
X0108628Y0107332D03*
X0106628Y0107332D03*
X0104728Y0107332D03*
X0102728Y0107332D03*
X0100728Y0107332D03*
X0098828Y0107332D03*
X0096828Y0107332D03*
X0094828Y0107332D03*
X0092828Y0107332D03*
X0090928Y0107332D03*
X0088928Y0107332D03*
X0086928Y0107332D03*
X0085028Y0107332D03*
X0083028Y0107332D03*
X0081028Y0107332D03*
X0081028Y0063132D03*
X0083028Y0063132D03*
X0085028Y0063132D03*
X0086928Y0063132D03*
X0088928Y0063132D03*
X0090928Y0063132D03*
X0092828Y0063132D03*
X0094828Y0063132D03*
X0096828Y0063132D03*
X0098828Y0063132D03*
X0100728Y0063132D03*
X0102728Y0063132D03*
X0104728Y0063132D03*
X0106628Y0063132D03*
X0108628Y0063132D03*
X0110628Y0063132D03*
D17*
X0088465Y0032752D03*
X0068465Y0032752D03*
X0157009Y0062161D03*
X0157009Y0082161D03*
D18*
X0054568Y0045665D03*
X0054568Y0028736D03*
D19*
G36*
X0085808Y0129859D02*
X0085761Y0143252D01*
X0094824Y0143283D01*
X0094871Y0129890D01*
X0085808Y0129859D01*
G37*
D20*
G36*
X0072052Y0125283D02*
X0062989Y0125252D01*
X0062974Y0129591D01*
X0072037Y0129622D01*
X0072052Y0125283D01*
G37*
G36*
X0072020Y0134338D02*
X0062957Y0134307D01*
X0062942Y0138646D01*
X0072005Y0138677D01*
X0072020Y0134338D01*
G37*
G36*
X0071989Y0143393D02*
X0062926Y0143362D01*
X0062911Y0147701D01*
X0071974Y0147732D01*
X0071989Y0143393D01*
G37*
D21*
X0115946Y0162909D03*
X0140355Y0162909D03*
X0140355Y0119602D03*
X0115946Y0119602D03*
D22*
X0140355Y0141256D03*
D23*
X0122639Y0141256D03*
D24*
X0017048Y0050862D03*
X0011500Y0064750D03*
X0006100Y0070150D03*
X0008682Y0073008D03*
X0027383Y0064150D03*
X0037900Y0070150D03*
X0042700Y0065350D03*
X0045100Y0067750D03*
X0048700Y0071350D03*
X0052300Y0070750D03*
X0056418Y0076945D03*
X0052900Y0078550D03*
X0058900Y0084550D03*
X0063700Y0085750D03*
X0067300Y0083950D03*
X0068500Y0088150D03*
X0078700Y0095350D03*
X0084100Y0093550D03*
X0083977Y0088264D03*
X0089391Y0082358D03*
X0086500Y0079750D03*
X0079900Y0070750D03*
X0076900Y0065350D03*
X0069706Y0062181D03*
X0063100Y0053350D03*
X0054942Y0055783D03*
X0057894Y0063657D03*
X0047500Y0058750D03*
X0044500Y0052150D03*
X0038500Y0056950D03*
X0037300Y0052150D03*
X0050513Y0088756D03*
X0073300Y0117550D03*
X0085300Y0113950D03*
X0088900Y0112750D03*
X0096100Y0115750D03*
X0097900Y0112750D03*
X0100300Y0116350D03*
X0102700Y0113950D03*
X0090100Y0101950D03*
X0090100Y0098350D03*
X0111700Y0086950D03*
X0122855Y0091217D03*
X0127776Y0075961D03*
X0138111Y0080882D03*
X0131221Y0059720D03*
X0108583Y0054307D03*
X0102186Y0056768D03*
X0095500Y0053350D03*
X0087422Y0058244D03*
X0089391Y0068087D03*
X0095788Y0071039D03*
X0098500Y0068350D03*
X0108091Y0071039D03*
X0108583Y0046925D03*
X0091359Y0041512D03*
X0076900Y0050950D03*
X0054700Y0121150D03*
X0052300Y0138550D03*
X0039700Y0145150D03*
X0063100Y0153550D03*
X0087100Y0153550D03*
X0087100Y0145750D03*
X0096700Y0138550D03*
M02*
