G75*
%MOIN*%
%OFA0B0*%
%FSLAX25Y25*%
%IPPOS*%
%LPD*%
%AMOC8*
5,1,8,0,0,1.08239X$1,22.5*
%
%ADD10R,0.04724X0.03150*%
%ADD11R,0.03150X0.04724*%
%ADD12C,0.01181*%
%ADD13R,0.05800X0.01100*%
%ADD14R,0.01100X0.05800*%
%ADD15R,0.10236X0.07480*%
%ADD16R,0.12795X0.08465*%
%ADD17R,0.08465X0.03740*%
%ADD18R,0.09449X0.07874*%
D10*
X0068308Y0051295D03*
X0068308Y0058382D03*
X0067914Y0114484D03*
X0067914Y0121571D03*
X0044883Y0131453D03*
X0044883Y0138539D03*
X0028347Y0138579D03*
X0028347Y0145665D03*
X0011064Y0135390D03*
X0011064Y0128303D03*
X0010828Y0118185D03*
X0010828Y0111098D03*
X0137009Y0091610D03*
X0137009Y0084524D03*
X0157087Y0095587D03*
X0157087Y0102673D03*
D11*
X0051457Y0059012D03*
X0058544Y0059012D03*
X0047875Y0084445D03*
X0040788Y0084445D03*
X0047520Y0097043D03*
X0054607Y0097043D03*
X0054292Y0105114D03*
X0047206Y0105114D03*
X0049489Y0116138D03*
X0042402Y0116138D03*
X0022442Y0104130D03*
X0015355Y0104130D03*
X0022678Y0092870D03*
X0029765Y0092870D03*
X0014095Y0078697D03*
X0007009Y0078697D03*
X0087087Y0045862D03*
X0094174Y0045862D03*
X0100119Y0030508D03*
X0107206Y0030508D03*
X0133426Y0028894D03*
X0140513Y0028894D03*
X0146379Y0036217D03*
X0153465Y0036217D03*
X0156930Y0045665D03*
X0149843Y0045665D03*
X0140631Y0064327D03*
X0133544Y0064327D03*
X0133111Y0100547D03*
X0140198Y0100547D03*
X0142442Y0108657D03*
X0149528Y0108657D03*
D12*
X0038465Y0110339D02*
X0035709Y0110339D01*
X0035709Y0113095D01*
X0038465Y0113095D01*
X0038465Y0110339D01*
X0038465Y0111519D02*
X0035709Y0111519D01*
X0035709Y0112699D02*
X0038465Y0112699D01*
X0033572Y0118579D02*
X0033572Y0121335D01*
X0033572Y0118579D02*
X0030816Y0118579D01*
X0030816Y0121335D01*
X0033572Y0121335D01*
X0033572Y0119759D02*
X0030816Y0119759D01*
X0030816Y0120939D02*
X0033572Y0120939D01*
X0026666Y0121335D02*
X0026666Y0118579D01*
X0023910Y0118579D01*
X0023910Y0121335D01*
X0026666Y0121335D01*
X0026666Y0119759D02*
X0023910Y0119759D01*
X0023910Y0120939D02*
X0026666Y0120939D01*
X0026272Y0128697D02*
X0026272Y0131453D01*
X0026272Y0128697D02*
X0023516Y0128697D01*
X0023516Y0131453D01*
X0026272Y0131453D01*
X0026272Y0129877D02*
X0023516Y0129877D01*
X0023516Y0131057D02*
X0026272Y0131057D01*
X0033178Y0131453D02*
X0033178Y0128697D01*
X0030422Y0128697D01*
X0030422Y0131453D01*
X0033178Y0131453D01*
X0033178Y0129877D02*
X0030422Y0129877D01*
X0030422Y0131057D02*
X0033178Y0131057D01*
X0012206Y0144535D02*
X0009450Y0144535D01*
X0012206Y0144535D02*
X0012206Y0141779D01*
X0009450Y0141779D01*
X0009450Y0144535D01*
X0009450Y0142959D02*
X0012206Y0142959D01*
X0012206Y0144139D02*
X0009450Y0144139D01*
X0009450Y0151441D02*
X0012206Y0151441D01*
X0012206Y0148685D01*
X0009450Y0148685D01*
X0009450Y0151441D01*
X0009450Y0149865D02*
X0012206Y0149865D01*
X0012206Y0151045D02*
X0009450Y0151045D01*
X0035709Y0103433D02*
X0038465Y0103433D01*
X0035709Y0103433D02*
X0035709Y0106189D01*
X0038465Y0106189D01*
X0038465Y0103433D01*
X0038465Y0104613D02*
X0035709Y0104613D01*
X0035709Y0105793D02*
X0038465Y0105793D01*
D13*
X0073728Y0100032D03*
X0073728Y0098032D03*
X0073728Y0096032D03*
X0073728Y0094132D03*
X0073728Y0092132D03*
X0073728Y0090132D03*
X0073728Y0088232D03*
X0073728Y0086232D03*
X0073728Y0084232D03*
X0073728Y0082232D03*
X0073728Y0080332D03*
X0073728Y0078332D03*
X0073728Y0076332D03*
X0073728Y0074432D03*
X0073728Y0072432D03*
X0073728Y0070432D03*
X0117928Y0070432D03*
X0117928Y0072432D03*
X0117928Y0074432D03*
X0117928Y0076332D03*
X0117928Y0078332D03*
X0117928Y0080332D03*
X0117928Y0082232D03*
X0117928Y0084232D03*
X0117928Y0086232D03*
X0117928Y0088232D03*
X0117928Y0090132D03*
X0117928Y0092132D03*
X0117928Y0094132D03*
X0117928Y0096032D03*
X0117928Y0098032D03*
X0117928Y0100032D03*
D14*
X0110628Y0107332D03*
X0108628Y0107332D03*
X0106628Y0107332D03*
X0104728Y0107332D03*
X0102728Y0107332D03*
X0100728Y0107332D03*
X0098828Y0107332D03*
X0096828Y0107332D03*
X0094828Y0107332D03*
X0092828Y0107332D03*
X0090928Y0107332D03*
X0088928Y0107332D03*
X0086928Y0107332D03*
X0085028Y0107332D03*
X0083028Y0107332D03*
X0081028Y0107332D03*
X0081028Y0063132D03*
X0083028Y0063132D03*
X0085028Y0063132D03*
X0086928Y0063132D03*
X0088928Y0063132D03*
X0090928Y0063132D03*
X0092828Y0063132D03*
X0094828Y0063132D03*
X0096828Y0063132D03*
X0098828Y0063132D03*
X0100728Y0063132D03*
X0102728Y0063132D03*
X0104728Y0063132D03*
X0106628Y0063132D03*
X0108628Y0063132D03*
X0110628Y0063132D03*
D15*
X0054568Y0045665D03*
X0054568Y0028736D03*
D16*
G36*
X0086107Y0130160D02*
X0086062Y0142953D01*
X0094525Y0142982D01*
X0094570Y0130189D01*
X0086107Y0130160D01*
G37*
D17*
G36*
X0071751Y0125582D02*
X0063288Y0125553D01*
X0063275Y0129292D01*
X0071738Y0129321D01*
X0071751Y0125582D01*
G37*
G36*
X0071719Y0134637D02*
X0063256Y0134608D01*
X0063243Y0138347D01*
X0071706Y0138376D01*
X0071719Y0134637D01*
G37*
G36*
X0071688Y0143692D02*
X0063225Y0143663D01*
X0063212Y0147402D01*
X0071675Y0147431D01*
X0071688Y0143692D01*
G37*
D18*
X0115946Y0162909D03*
X0140355Y0162909D03*
X0140355Y0119602D03*
X0115946Y0119602D03*
M02*
