G75*
%MOIN*%
%OFA0B0*%
%FSLAX25Y25*%
%IPPOS*%
%LPD*%
%AMOC8*
5,1,8,0,0,1.08239X$1,22.5*
%
%ADD10C,0.00300*%
%ADD11C,0.00200*%
%ADD12C,0.00600*%
%ADD13C,0.00800*%
%ADD14C,0.02400*%
%ADD15C,0.01000*%
%ADD16C,0.01200*%
%ADD17C,0.00500*%
%ADD18C,0.00700*%
D10*
X0088315Y0022469D02*
X0087670Y0025369D01*
X0088959Y0024402D02*
X0089604Y0022469D01*
X0090248Y0025369D01*
X0091279Y0025369D02*
X0091440Y0025369D01*
X0091440Y0025208D01*
X0091279Y0025208D01*
X0091279Y0025369D01*
X0091359Y0024402D02*
X0091359Y0022469D01*
X0092694Y0022469D02*
X0092694Y0024886D01*
X0092696Y0024928D01*
X0092701Y0024970D01*
X0092710Y0025011D01*
X0092723Y0025051D01*
X0092739Y0025090D01*
X0092759Y0025127D01*
X0092781Y0025163D01*
X0092807Y0025196D01*
X0092835Y0025228D01*
X0092867Y0025256D01*
X0092900Y0025282D01*
X0092935Y0025304D01*
X0092973Y0025324D01*
X0093012Y0025340D01*
X0093052Y0025353D01*
X0093093Y0025362D01*
X0093135Y0025367D01*
X0093177Y0025369D01*
X0093338Y0025369D01*
X0094063Y0025369D02*
X0094224Y0025369D01*
X0094224Y0025208D01*
X0094063Y0025208D01*
X0094063Y0025369D01*
X0094143Y0024402D02*
X0094143Y0022469D01*
X0095227Y0022147D02*
X0096516Y0022147D01*
X0097800Y0022469D02*
X0097800Y0025369D01*
X0098606Y0025369D01*
X0098606Y0025368D02*
X0098655Y0025366D01*
X0098704Y0025360D01*
X0098753Y0025351D01*
X0098800Y0025338D01*
X0098847Y0025321D01*
X0098892Y0025301D01*
X0098935Y0025278D01*
X0098977Y0025251D01*
X0099016Y0025221D01*
X0099053Y0025188D01*
X0099087Y0025152D01*
X0099118Y0025114D01*
X0099147Y0025074D01*
X0099172Y0025032D01*
X0099194Y0024987D01*
X0099212Y0024942D01*
X0099227Y0024895D01*
X0099238Y0024847D01*
X0099246Y0024798D01*
X0099250Y0024749D01*
X0099250Y0024699D01*
X0099246Y0024650D01*
X0099238Y0024601D01*
X0099227Y0024553D01*
X0099212Y0024506D01*
X0099194Y0024461D01*
X0099172Y0024416D01*
X0099147Y0024374D01*
X0099118Y0024334D01*
X0099087Y0024296D01*
X0099053Y0024260D01*
X0099016Y0024227D01*
X0098977Y0024197D01*
X0098935Y0024170D01*
X0098892Y0024147D01*
X0098847Y0024127D01*
X0098800Y0024110D01*
X0098753Y0024097D01*
X0098704Y0024088D01*
X0098655Y0024082D01*
X0098606Y0024080D01*
X0097800Y0024080D01*
X0098606Y0024080D02*
X0098661Y0024078D01*
X0098716Y0024072D01*
X0098770Y0024063D01*
X0098823Y0024050D01*
X0098876Y0024033D01*
X0098927Y0024013D01*
X0098977Y0023990D01*
X0099025Y0023963D01*
X0099071Y0023932D01*
X0099115Y0023899D01*
X0099156Y0023863D01*
X0099195Y0023824D01*
X0099231Y0023783D01*
X0099264Y0023739D01*
X0099295Y0023693D01*
X0099322Y0023645D01*
X0099345Y0023595D01*
X0099365Y0023544D01*
X0099382Y0023491D01*
X0099395Y0023438D01*
X0099404Y0023384D01*
X0099410Y0023329D01*
X0099412Y0023274D01*
X0099410Y0023219D01*
X0099404Y0023164D01*
X0099395Y0023110D01*
X0099382Y0023057D01*
X0099365Y0023004D01*
X0099345Y0022953D01*
X0099322Y0022903D01*
X0099295Y0022855D01*
X0099264Y0022809D01*
X0099231Y0022765D01*
X0099195Y0022724D01*
X0099156Y0022685D01*
X0099115Y0022649D01*
X0099071Y0022616D01*
X0099025Y0022585D01*
X0098977Y0022558D01*
X0098927Y0022535D01*
X0098876Y0022515D01*
X0098823Y0022498D01*
X0098770Y0022485D01*
X0098716Y0022476D01*
X0098661Y0022470D01*
X0098606Y0022468D01*
X0098606Y0022469D02*
X0097800Y0022469D01*
X0100603Y0022952D02*
X0100603Y0024402D01*
X0101892Y0024402D02*
X0101892Y0022469D01*
X0101086Y0022469D01*
X0101044Y0022471D01*
X0101002Y0022476D01*
X0100961Y0022485D01*
X0100921Y0022498D01*
X0100882Y0022514D01*
X0100845Y0022534D01*
X0100809Y0022556D01*
X0100776Y0022582D01*
X0100744Y0022610D01*
X0100716Y0022642D01*
X0100690Y0022675D01*
X0100668Y0022711D01*
X0100648Y0022748D01*
X0100632Y0022787D01*
X0100619Y0022827D01*
X0100610Y0022868D01*
X0100605Y0022910D01*
X0100603Y0022952D01*
X0103269Y0022952D02*
X0103269Y0025369D01*
X0102947Y0024402D02*
X0103913Y0024402D01*
X0104771Y0024402D02*
X0105737Y0024402D01*
X0105093Y0025369D02*
X0105093Y0022952D01*
X0105095Y0022910D01*
X0105100Y0022868D01*
X0105109Y0022827D01*
X0105122Y0022787D01*
X0105138Y0022748D01*
X0105158Y0022711D01*
X0105180Y0022675D01*
X0105206Y0022642D01*
X0105234Y0022610D01*
X0105266Y0022582D01*
X0105299Y0022556D01*
X0105335Y0022534D01*
X0105372Y0022514D01*
X0105411Y0022498D01*
X0105451Y0022485D01*
X0105492Y0022476D01*
X0105534Y0022471D01*
X0105576Y0022469D01*
X0105737Y0022469D01*
X0106843Y0023113D02*
X0106843Y0023758D01*
X0106845Y0023807D01*
X0106851Y0023856D01*
X0106860Y0023905D01*
X0106873Y0023952D01*
X0106890Y0023999D01*
X0106910Y0024044D01*
X0106933Y0024087D01*
X0106960Y0024129D01*
X0106990Y0024168D01*
X0107023Y0024205D01*
X0107059Y0024239D01*
X0107097Y0024270D01*
X0107137Y0024299D01*
X0107179Y0024324D01*
X0107224Y0024346D01*
X0107269Y0024364D01*
X0107316Y0024379D01*
X0107364Y0024390D01*
X0107413Y0024398D01*
X0107462Y0024402D01*
X0107512Y0024402D01*
X0107561Y0024398D01*
X0107610Y0024390D01*
X0107658Y0024379D01*
X0107705Y0024364D01*
X0107750Y0024346D01*
X0107795Y0024324D01*
X0107837Y0024299D01*
X0107877Y0024270D01*
X0107915Y0024239D01*
X0107951Y0024205D01*
X0107984Y0024168D01*
X0108014Y0024129D01*
X0108041Y0024087D01*
X0108064Y0024044D01*
X0108084Y0023999D01*
X0108101Y0023952D01*
X0108114Y0023905D01*
X0108123Y0023856D01*
X0108129Y0023807D01*
X0108131Y0023758D01*
X0108132Y0023758D02*
X0108132Y0023113D01*
X0108131Y0023113D02*
X0108129Y0023064D01*
X0108123Y0023015D01*
X0108114Y0022966D01*
X0108101Y0022919D01*
X0108084Y0022872D01*
X0108064Y0022827D01*
X0108041Y0022784D01*
X0108014Y0022742D01*
X0107984Y0022703D01*
X0107951Y0022666D01*
X0107915Y0022632D01*
X0107877Y0022601D01*
X0107837Y0022572D01*
X0107795Y0022547D01*
X0107750Y0022525D01*
X0107705Y0022507D01*
X0107658Y0022492D01*
X0107610Y0022481D01*
X0107561Y0022473D01*
X0107512Y0022469D01*
X0107462Y0022469D01*
X0107413Y0022473D01*
X0107364Y0022481D01*
X0107316Y0022492D01*
X0107269Y0022507D01*
X0107224Y0022525D01*
X0107179Y0022547D01*
X0107137Y0022572D01*
X0107097Y0022601D01*
X0107059Y0022632D01*
X0107023Y0022666D01*
X0106990Y0022703D01*
X0106960Y0022742D01*
X0106933Y0022784D01*
X0106910Y0022827D01*
X0106890Y0022872D01*
X0106873Y0022919D01*
X0106860Y0022966D01*
X0106851Y0023015D01*
X0106845Y0023064D01*
X0106843Y0023113D01*
X0109435Y0022469D02*
X0109435Y0024402D01*
X0110240Y0024402D01*
X0110282Y0024400D01*
X0110324Y0024395D01*
X0110365Y0024386D01*
X0110405Y0024373D01*
X0110444Y0024357D01*
X0110482Y0024337D01*
X0110517Y0024315D01*
X0110550Y0024289D01*
X0110582Y0024261D01*
X0110610Y0024229D01*
X0110636Y0024196D01*
X0110658Y0024161D01*
X0110678Y0024123D01*
X0110694Y0024084D01*
X0110707Y0024044D01*
X0110716Y0024003D01*
X0110721Y0023961D01*
X0110723Y0023919D01*
X0110724Y0023919D02*
X0110724Y0022469D01*
X0115015Y0030737D02*
X0115660Y0032670D01*
X0116304Y0030737D01*
X0116949Y0033637D01*
X0118118Y0032831D02*
X0118118Y0031542D01*
X0118120Y0031487D01*
X0118126Y0031432D01*
X0118135Y0031378D01*
X0118148Y0031325D01*
X0118165Y0031272D01*
X0118185Y0031221D01*
X0118208Y0031171D01*
X0118235Y0031123D01*
X0118266Y0031077D01*
X0118299Y0031033D01*
X0118335Y0030992D01*
X0118374Y0030953D01*
X0118415Y0030917D01*
X0118459Y0030884D01*
X0118505Y0030853D01*
X0118553Y0030826D01*
X0118603Y0030803D01*
X0118654Y0030783D01*
X0118707Y0030766D01*
X0118760Y0030753D01*
X0118814Y0030744D01*
X0118869Y0030738D01*
X0118924Y0030736D01*
X0118979Y0030738D01*
X0119034Y0030744D01*
X0119088Y0030753D01*
X0119141Y0030766D01*
X0119194Y0030783D01*
X0119245Y0030803D01*
X0119295Y0030826D01*
X0119343Y0030853D01*
X0119389Y0030884D01*
X0119433Y0030917D01*
X0119474Y0030953D01*
X0119513Y0030992D01*
X0119549Y0031033D01*
X0119582Y0031077D01*
X0119613Y0031123D01*
X0119640Y0031171D01*
X0119663Y0031221D01*
X0119683Y0031272D01*
X0119700Y0031325D01*
X0119713Y0031378D01*
X0119722Y0031432D01*
X0119728Y0031487D01*
X0119730Y0031542D01*
X0119729Y0031542D02*
X0119729Y0032831D01*
X0119730Y0032831D02*
X0119728Y0032886D01*
X0119722Y0032941D01*
X0119713Y0032995D01*
X0119700Y0033048D01*
X0119683Y0033101D01*
X0119663Y0033152D01*
X0119640Y0033202D01*
X0119613Y0033250D01*
X0119582Y0033296D01*
X0119549Y0033340D01*
X0119513Y0033381D01*
X0119474Y0033420D01*
X0119433Y0033456D01*
X0119389Y0033489D01*
X0119343Y0033520D01*
X0119295Y0033547D01*
X0119245Y0033570D01*
X0119194Y0033590D01*
X0119141Y0033607D01*
X0119088Y0033620D01*
X0119034Y0033629D01*
X0118979Y0033635D01*
X0118924Y0033637D01*
X0118869Y0033635D01*
X0118814Y0033629D01*
X0118760Y0033620D01*
X0118707Y0033607D01*
X0118654Y0033590D01*
X0118603Y0033570D01*
X0118553Y0033547D01*
X0118505Y0033520D01*
X0118459Y0033489D01*
X0118415Y0033456D01*
X0118374Y0033420D01*
X0118335Y0033381D01*
X0118299Y0033340D01*
X0118266Y0033296D01*
X0118235Y0033250D01*
X0118208Y0033202D01*
X0118185Y0033152D01*
X0118165Y0033101D01*
X0118148Y0033048D01*
X0118135Y0032995D01*
X0118126Y0032941D01*
X0118120Y0032886D01*
X0118118Y0032831D01*
X0121932Y0032428D02*
X0122818Y0031945D01*
X0122495Y0030737D02*
X0122423Y0030739D01*
X0122352Y0030745D01*
X0122281Y0030754D01*
X0122211Y0030767D01*
X0122141Y0030784D01*
X0122072Y0030804D01*
X0122005Y0030828D01*
X0121939Y0030856D01*
X0121874Y0030887D01*
X0121811Y0030921D01*
X0121750Y0030959D01*
X0121691Y0031000D01*
X0121635Y0031043D01*
X0121580Y0031090D01*
X0121529Y0031140D01*
X0122818Y0031945D02*
X0122858Y0031919D01*
X0122897Y0031890D01*
X0122934Y0031858D01*
X0122968Y0031823D01*
X0122999Y0031786D01*
X0123028Y0031747D01*
X0123054Y0031706D01*
X0123076Y0031663D01*
X0123095Y0031618D01*
X0123111Y0031572D01*
X0123124Y0031526D01*
X0123133Y0031478D01*
X0123138Y0031430D01*
X0123140Y0031381D01*
X0123139Y0031381D02*
X0123137Y0031333D01*
X0123132Y0031285D01*
X0123123Y0031238D01*
X0123110Y0031191D01*
X0123094Y0031146D01*
X0123075Y0031102D01*
X0123053Y0031059D01*
X0123027Y0031018D01*
X0122998Y0030979D01*
X0122967Y0030943D01*
X0122933Y0030909D01*
X0122897Y0030878D01*
X0122858Y0030849D01*
X0122817Y0030823D01*
X0122774Y0030801D01*
X0122730Y0030782D01*
X0122685Y0030766D01*
X0122638Y0030753D01*
X0122591Y0030744D01*
X0122543Y0030739D01*
X0122495Y0030737D01*
X0122979Y0033394D02*
X0122926Y0033432D01*
X0122871Y0033466D01*
X0122815Y0033498D01*
X0122756Y0033527D01*
X0122697Y0033552D01*
X0122636Y0033574D01*
X0122574Y0033593D01*
X0122511Y0033608D01*
X0122448Y0033620D01*
X0122383Y0033629D01*
X0122319Y0033634D01*
X0122254Y0033636D01*
X0122206Y0033634D01*
X0122158Y0033629D01*
X0122111Y0033620D01*
X0122064Y0033607D01*
X0122019Y0033591D01*
X0121975Y0033572D01*
X0121932Y0033550D01*
X0121891Y0033524D01*
X0121852Y0033496D01*
X0121816Y0033464D01*
X0121782Y0033430D01*
X0121751Y0033394D01*
X0121722Y0033355D01*
X0121696Y0033314D01*
X0121674Y0033271D01*
X0121655Y0033227D01*
X0121639Y0033182D01*
X0121626Y0033135D01*
X0121617Y0033088D01*
X0121612Y0033040D01*
X0121610Y0032992D01*
X0121609Y0032992D02*
X0121611Y0032943D01*
X0121616Y0032895D01*
X0121625Y0032847D01*
X0121638Y0032801D01*
X0121654Y0032755D01*
X0121673Y0032710D01*
X0121695Y0032667D01*
X0121721Y0032626D01*
X0121750Y0032587D01*
X0121781Y0032550D01*
X0121815Y0032515D01*
X0121852Y0032483D01*
X0121891Y0032454D01*
X0121931Y0032428D01*
X0124213Y0033637D02*
X0124858Y0030737D01*
X0125502Y0032670D01*
X0126147Y0030737D01*
X0126791Y0033637D01*
X0128057Y0033637D02*
X0128862Y0033637D01*
X0128057Y0033637D02*
X0128057Y0030737D01*
X0128862Y0030737D01*
X0128862Y0030736D02*
X0128917Y0030738D01*
X0128972Y0030744D01*
X0129026Y0030753D01*
X0129079Y0030766D01*
X0129132Y0030783D01*
X0129183Y0030803D01*
X0129233Y0030826D01*
X0129281Y0030853D01*
X0129327Y0030884D01*
X0129371Y0030917D01*
X0129412Y0030953D01*
X0129451Y0030992D01*
X0129487Y0031033D01*
X0129520Y0031077D01*
X0129551Y0031123D01*
X0129578Y0031171D01*
X0129601Y0031221D01*
X0129621Y0031272D01*
X0129638Y0031325D01*
X0129651Y0031378D01*
X0129660Y0031432D01*
X0129666Y0031487D01*
X0129668Y0031542D01*
X0129668Y0032831D01*
X0129666Y0032886D01*
X0129660Y0032941D01*
X0129651Y0032995D01*
X0129638Y0033048D01*
X0129621Y0033101D01*
X0129601Y0033152D01*
X0129578Y0033202D01*
X0129551Y0033250D01*
X0129520Y0033296D01*
X0129487Y0033340D01*
X0129451Y0033381D01*
X0129412Y0033420D01*
X0129371Y0033456D01*
X0129327Y0033489D01*
X0129281Y0033520D01*
X0129233Y0033547D01*
X0129183Y0033570D01*
X0129132Y0033590D01*
X0129079Y0033607D01*
X0129026Y0033620D01*
X0128972Y0033629D01*
X0128917Y0033635D01*
X0128862Y0033637D01*
X0130940Y0033637D02*
X0131584Y0033637D01*
X0131262Y0033637D02*
X0131262Y0030737D01*
X0130940Y0030737D02*
X0131584Y0030737D01*
X0132761Y0031542D02*
X0132761Y0032831D01*
X0132760Y0032831D02*
X0132762Y0032886D01*
X0132768Y0032941D01*
X0132777Y0032995D01*
X0132790Y0033048D01*
X0132807Y0033101D01*
X0132827Y0033152D01*
X0132850Y0033202D01*
X0132877Y0033250D01*
X0132908Y0033296D01*
X0132941Y0033340D01*
X0132977Y0033381D01*
X0133016Y0033420D01*
X0133057Y0033456D01*
X0133101Y0033489D01*
X0133147Y0033520D01*
X0133195Y0033547D01*
X0133245Y0033570D01*
X0133296Y0033590D01*
X0133349Y0033607D01*
X0133402Y0033620D01*
X0133456Y0033629D01*
X0133511Y0033635D01*
X0133566Y0033637D01*
X0133621Y0033635D01*
X0133676Y0033629D01*
X0133730Y0033620D01*
X0133783Y0033607D01*
X0133836Y0033590D01*
X0133887Y0033570D01*
X0133937Y0033547D01*
X0133985Y0033520D01*
X0134031Y0033489D01*
X0134075Y0033456D01*
X0134116Y0033420D01*
X0134155Y0033381D01*
X0134191Y0033340D01*
X0134224Y0033296D01*
X0134255Y0033250D01*
X0134282Y0033202D01*
X0134305Y0033152D01*
X0134325Y0033101D01*
X0134342Y0033048D01*
X0134355Y0032995D01*
X0134364Y0032941D01*
X0134370Y0032886D01*
X0134372Y0032831D01*
X0134372Y0031542D01*
X0134370Y0031487D01*
X0134364Y0031432D01*
X0134355Y0031378D01*
X0134342Y0031325D01*
X0134325Y0031272D01*
X0134305Y0031221D01*
X0134282Y0031171D01*
X0134255Y0031123D01*
X0134224Y0031077D01*
X0134191Y0031033D01*
X0134155Y0030992D01*
X0134116Y0030953D01*
X0134075Y0030917D01*
X0134031Y0030884D01*
X0133985Y0030853D01*
X0133937Y0030826D01*
X0133887Y0030803D01*
X0133836Y0030783D01*
X0133783Y0030766D01*
X0133730Y0030753D01*
X0133676Y0030744D01*
X0133621Y0030738D01*
X0133566Y0030736D01*
X0133511Y0030738D01*
X0133456Y0030744D01*
X0133402Y0030753D01*
X0133349Y0030766D01*
X0133296Y0030783D01*
X0133245Y0030803D01*
X0133195Y0030826D01*
X0133147Y0030853D01*
X0133101Y0030884D01*
X0133057Y0030917D01*
X0133016Y0030953D01*
X0132977Y0030992D01*
X0132941Y0031033D01*
X0132908Y0031077D01*
X0132877Y0031123D01*
X0132850Y0031171D01*
X0132827Y0031221D01*
X0132807Y0031272D01*
X0132790Y0031325D01*
X0132777Y0031378D01*
X0132768Y0031432D01*
X0132762Y0031487D01*
X0132760Y0031542D01*
X0142738Y0033421D02*
X0145638Y0034066D01*
X0143705Y0034710D01*
X0145638Y0035355D01*
X0142738Y0035999D01*
X0142738Y0037265D02*
X0142738Y0038070D01*
X0142738Y0037265D02*
X0145638Y0037265D01*
X0145638Y0038070D01*
X0145639Y0038070D02*
X0145637Y0038125D01*
X0145631Y0038180D01*
X0145622Y0038234D01*
X0145609Y0038287D01*
X0145592Y0038340D01*
X0145572Y0038391D01*
X0145549Y0038441D01*
X0145522Y0038489D01*
X0145491Y0038535D01*
X0145458Y0038579D01*
X0145422Y0038620D01*
X0145383Y0038659D01*
X0145342Y0038695D01*
X0145298Y0038728D01*
X0145252Y0038759D01*
X0145204Y0038786D01*
X0145154Y0038809D01*
X0145103Y0038829D01*
X0145050Y0038846D01*
X0144997Y0038859D01*
X0144943Y0038868D01*
X0144888Y0038874D01*
X0144833Y0038876D01*
X0143544Y0038876D01*
X0143489Y0038874D01*
X0143434Y0038868D01*
X0143380Y0038859D01*
X0143327Y0038846D01*
X0143274Y0038829D01*
X0143223Y0038809D01*
X0143173Y0038786D01*
X0143125Y0038759D01*
X0143079Y0038728D01*
X0143035Y0038695D01*
X0142994Y0038659D01*
X0142955Y0038620D01*
X0142919Y0038579D01*
X0142886Y0038535D01*
X0142855Y0038489D01*
X0142828Y0038441D01*
X0142805Y0038391D01*
X0142785Y0038340D01*
X0142768Y0038287D01*
X0142755Y0038234D01*
X0142746Y0038180D01*
X0142740Y0038125D01*
X0142738Y0038070D01*
X0143383Y0040232D02*
X0144994Y0040232D01*
X0145042Y0040234D01*
X0145090Y0040239D01*
X0145137Y0040248D01*
X0145184Y0040261D01*
X0145229Y0040277D01*
X0145273Y0040296D01*
X0145316Y0040318D01*
X0145357Y0040344D01*
X0145396Y0040373D01*
X0145432Y0040404D01*
X0145466Y0040438D01*
X0145497Y0040474D01*
X0145526Y0040513D01*
X0145552Y0040554D01*
X0145574Y0040597D01*
X0145593Y0040641D01*
X0145609Y0040686D01*
X0145622Y0040733D01*
X0145631Y0040780D01*
X0145636Y0040828D01*
X0145638Y0040876D01*
X0145638Y0041520D01*
X0145638Y0042743D02*
X0142738Y0042743D01*
X0142738Y0041520D02*
X0142738Y0040876D01*
X0142739Y0040876D02*
X0142741Y0040825D01*
X0142747Y0040775D01*
X0142757Y0040726D01*
X0142771Y0040677D01*
X0142788Y0040630D01*
X0142809Y0040584D01*
X0142834Y0040539D01*
X0142862Y0040497D01*
X0142893Y0040458D01*
X0142928Y0040421D01*
X0142965Y0040386D01*
X0143004Y0040355D01*
X0143047Y0040327D01*
X0143091Y0040302D01*
X0143137Y0040281D01*
X0143184Y0040264D01*
X0143233Y0040250D01*
X0143282Y0040240D01*
X0143332Y0040234D01*
X0143383Y0040232D01*
X0145638Y0042743D02*
X0145638Y0044032D01*
X0145638Y0045279D02*
X0142738Y0045279D01*
X0143866Y0045923D02*
X0145638Y0046890D01*
X0144510Y0045279D02*
X0142738Y0046890D01*
X0144363Y0055146D02*
X0144363Y0058046D01*
X0145330Y0056435D01*
X0146297Y0058046D01*
X0146297Y0055146D01*
X0147683Y0055791D02*
X0147683Y0057402D01*
X0147684Y0057402D02*
X0147686Y0057453D01*
X0147692Y0057503D01*
X0147702Y0057552D01*
X0147716Y0057601D01*
X0147733Y0057648D01*
X0147754Y0057694D01*
X0147779Y0057738D01*
X0147807Y0057781D01*
X0147838Y0057820D01*
X0147873Y0057857D01*
X0147910Y0057892D01*
X0147949Y0057923D01*
X0147992Y0057951D01*
X0148036Y0057976D01*
X0148082Y0057997D01*
X0148129Y0058014D01*
X0148178Y0058028D01*
X0148227Y0058038D01*
X0148277Y0058044D01*
X0148328Y0058046D01*
X0148972Y0058046D01*
X0150188Y0058046D02*
X0150188Y0055952D01*
X0150190Y0055897D01*
X0150196Y0055842D01*
X0150205Y0055788D01*
X0150218Y0055735D01*
X0150235Y0055682D01*
X0150255Y0055631D01*
X0150278Y0055581D01*
X0150305Y0055533D01*
X0150336Y0055487D01*
X0150369Y0055443D01*
X0150405Y0055402D01*
X0150444Y0055363D01*
X0150485Y0055327D01*
X0150529Y0055294D01*
X0150575Y0055263D01*
X0150623Y0055236D01*
X0150673Y0055213D01*
X0150724Y0055193D01*
X0150777Y0055176D01*
X0150830Y0055163D01*
X0150884Y0055154D01*
X0150939Y0055148D01*
X0150994Y0055146D01*
X0151049Y0055148D01*
X0151104Y0055154D01*
X0151158Y0055163D01*
X0151211Y0055176D01*
X0151264Y0055193D01*
X0151315Y0055213D01*
X0151365Y0055236D01*
X0151413Y0055263D01*
X0151459Y0055294D01*
X0151503Y0055327D01*
X0151544Y0055363D01*
X0151583Y0055402D01*
X0151619Y0055443D01*
X0151652Y0055487D01*
X0151683Y0055533D01*
X0151710Y0055581D01*
X0151733Y0055631D01*
X0151753Y0055682D01*
X0151770Y0055735D01*
X0151783Y0055788D01*
X0151792Y0055842D01*
X0151798Y0055897D01*
X0151800Y0055952D01*
X0151800Y0058046D01*
X0148328Y0055147D02*
X0148280Y0055149D01*
X0148232Y0055154D01*
X0148185Y0055163D01*
X0148138Y0055176D01*
X0148093Y0055192D01*
X0148049Y0055211D01*
X0148006Y0055233D01*
X0147965Y0055259D01*
X0147926Y0055288D01*
X0147890Y0055319D01*
X0147856Y0055353D01*
X0147825Y0055389D01*
X0147796Y0055428D01*
X0147770Y0055469D01*
X0147748Y0055512D01*
X0147729Y0055556D01*
X0147713Y0055601D01*
X0147700Y0055648D01*
X0147691Y0055695D01*
X0147686Y0055743D01*
X0147684Y0055791D01*
X0148328Y0055146D02*
X0148972Y0055146D01*
X0153038Y0054824D02*
X0154326Y0054824D01*
X0155611Y0055146D02*
X0155611Y0058046D01*
X0156416Y0058046D01*
X0156465Y0058044D01*
X0156514Y0058038D01*
X0156563Y0058029D01*
X0156610Y0058016D01*
X0156657Y0057999D01*
X0156702Y0057979D01*
X0156745Y0057956D01*
X0156787Y0057929D01*
X0156826Y0057899D01*
X0156863Y0057866D01*
X0156897Y0057830D01*
X0156928Y0057792D01*
X0156957Y0057752D01*
X0156982Y0057710D01*
X0157004Y0057665D01*
X0157022Y0057620D01*
X0157037Y0057573D01*
X0157048Y0057525D01*
X0157056Y0057476D01*
X0157060Y0057427D01*
X0157060Y0057377D01*
X0157056Y0057328D01*
X0157048Y0057279D01*
X0157037Y0057231D01*
X0157022Y0057184D01*
X0157004Y0057139D01*
X0156982Y0057094D01*
X0156957Y0057052D01*
X0156928Y0057012D01*
X0156897Y0056974D01*
X0156863Y0056938D01*
X0156826Y0056905D01*
X0156787Y0056875D01*
X0156745Y0056848D01*
X0156702Y0056825D01*
X0156657Y0056805D01*
X0156610Y0056788D01*
X0156563Y0056775D01*
X0156514Y0056766D01*
X0156465Y0056760D01*
X0156416Y0056758D01*
X0156416Y0056757D02*
X0155611Y0056757D01*
X0156416Y0056758D02*
X0156471Y0056756D01*
X0156526Y0056750D01*
X0156580Y0056741D01*
X0156633Y0056728D01*
X0156686Y0056711D01*
X0156737Y0056691D01*
X0156787Y0056668D01*
X0156835Y0056641D01*
X0156881Y0056610D01*
X0156925Y0056577D01*
X0156966Y0056541D01*
X0157005Y0056502D01*
X0157041Y0056461D01*
X0157074Y0056417D01*
X0157105Y0056371D01*
X0157132Y0056323D01*
X0157155Y0056273D01*
X0157175Y0056222D01*
X0157192Y0056169D01*
X0157205Y0056116D01*
X0157214Y0056062D01*
X0157220Y0056007D01*
X0157222Y0055952D01*
X0157220Y0055897D01*
X0157214Y0055842D01*
X0157205Y0055788D01*
X0157192Y0055735D01*
X0157175Y0055682D01*
X0157155Y0055631D01*
X0157132Y0055581D01*
X0157105Y0055533D01*
X0157074Y0055487D01*
X0157041Y0055443D01*
X0157005Y0055402D01*
X0156966Y0055363D01*
X0156925Y0055327D01*
X0156881Y0055294D01*
X0156835Y0055263D01*
X0156787Y0055236D01*
X0156737Y0055213D01*
X0156686Y0055193D01*
X0156633Y0055176D01*
X0156580Y0055163D01*
X0156526Y0055154D01*
X0156471Y0055148D01*
X0156416Y0055146D01*
X0155611Y0055146D01*
X0158414Y0055629D02*
X0158414Y0057079D01*
X0159702Y0057079D02*
X0159702Y0055146D01*
X0158897Y0055146D01*
X0158855Y0055148D01*
X0158813Y0055153D01*
X0158772Y0055162D01*
X0158732Y0055175D01*
X0158693Y0055191D01*
X0158656Y0055211D01*
X0158620Y0055233D01*
X0158587Y0055259D01*
X0158555Y0055287D01*
X0158527Y0055319D01*
X0158501Y0055352D01*
X0158479Y0055388D01*
X0158459Y0055425D01*
X0158443Y0055464D01*
X0158430Y0055504D01*
X0158421Y0055545D01*
X0158416Y0055587D01*
X0158414Y0055629D01*
X0161080Y0055629D02*
X0161080Y0058046D01*
X0160757Y0057079D02*
X0161724Y0057079D01*
X0162581Y0057079D02*
X0163548Y0057079D01*
X0162904Y0058046D02*
X0162904Y0055629D01*
X0162906Y0055587D01*
X0162911Y0055545D01*
X0162920Y0055504D01*
X0162933Y0055464D01*
X0162949Y0055425D01*
X0162969Y0055388D01*
X0162991Y0055352D01*
X0163017Y0055319D01*
X0163045Y0055287D01*
X0163077Y0055259D01*
X0163110Y0055233D01*
X0163146Y0055211D01*
X0163183Y0055191D01*
X0163222Y0055175D01*
X0163262Y0055162D01*
X0163303Y0055153D01*
X0163345Y0055148D01*
X0163387Y0055146D01*
X0163548Y0055146D01*
X0164654Y0055791D02*
X0164654Y0056435D01*
X0164656Y0056484D01*
X0164662Y0056533D01*
X0164671Y0056582D01*
X0164684Y0056629D01*
X0164701Y0056676D01*
X0164721Y0056721D01*
X0164744Y0056764D01*
X0164771Y0056806D01*
X0164801Y0056845D01*
X0164834Y0056882D01*
X0164870Y0056916D01*
X0164908Y0056947D01*
X0164948Y0056976D01*
X0164990Y0057001D01*
X0165035Y0057023D01*
X0165080Y0057041D01*
X0165127Y0057056D01*
X0165175Y0057067D01*
X0165224Y0057075D01*
X0165273Y0057079D01*
X0165323Y0057079D01*
X0165372Y0057075D01*
X0165421Y0057067D01*
X0165469Y0057056D01*
X0165516Y0057041D01*
X0165561Y0057023D01*
X0165606Y0057001D01*
X0165648Y0056976D01*
X0165688Y0056947D01*
X0165726Y0056916D01*
X0165762Y0056882D01*
X0165795Y0056845D01*
X0165825Y0056806D01*
X0165852Y0056764D01*
X0165875Y0056721D01*
X0165895Y0056676D01*
X0165912Y0056629D01*
X0165925Y0056582D01*
X0165934Y0056533D01*
X0165940Y0056484D01*
X0165942Y0056435D01*
X0165942Y0055791D01*
X0165940Y0055742D01*
X0165934Y0055693D01*
X0165925Y0055644D01*
X0165912Y0055597D01*
X0165895Y0055550D01*
X0165875Y0055505D01*
X0165852Y0055462D01*
X0165825Y0055420D01*
X0165795Y0055381D01*
X0165762Y0055344D01*
X0165726Y0055310D01*
X0165688Y0055279D01*
X0165648Y0055250D01*
X0165606Y0055225D01*
X0165561Y0055203D01*
X0165516Y0055185D01*
X0165469Y0055170D01*
X0165421Y0055159D01*
X0165372Y0055151D01*
X0165323Y0055147D01*
X0165273Y0055147D01*
X0165224Y0055151D01*
X0165175Y0055159D01*
X0165127Y0055170D01*
X0165080Y0055185D01*
X0165035Y0055203D01*
X0164990Y0055225D01*
X0164948Y0055250D01*
X0164908Y0055279D01*
X0164870Y0055310D01*
X0164834Y0055344D01*
X0164801Y0055381D01*
X0164771Y0055420D01*
X0164744Y0055462D01*
X0164721Y0055505D01*
X0164701Y0055550D01*
X0164684Y0055597D01*
X0164671Y0055644D01*
X0164662Y0055693D01*
X0164656Y0055742D01*
X0164654Y0055791D01*
X0167245Y0055146D02*
X0167245Y0057079D01*
X0168051Y0057079D01*
X0168093Y0057077D01*
X0168135Y0057072D01*
X0168176Y0057063D01*
X0168216Y0057050D01*
X0168255Y0057034D01*
X0168293Y0057014D01*
X0168328Y0056992D01*
X0168361Y0056966D01*
X0168393Y0056938D01*
X0168421Y0056906D01*
X0168447Y0056873D01*
X0168469Y0056838D01*
X0168489Y0056800D01*
X0168505Y0056761D01*
X0168518Y0056721D01*
X0168527Y0056680D01*
X0168532Y0056638D01*
X0168534Y0056596D01*
X0168534Y0055146D01*
X0161724Y0055146D02*
X0161563Y0055146D01*
X0161521Y0055148D01*
X0161479Y0055153D01*
X0161438Y0055162D01*
X0161398Y0055175D01*
X0161359Y0055191D01*
X0161322Y0055211D01*
X0161286Y0055233D01*
X0161253Y0055259D01*
X0161221Y0055287D01*
X0161193Y0055319D01*
X0161167Y0055352D01*
X0161145Y0055388D01*
X0161125Y0055425D01*
X0161109Y0055464D01*
X0161096Y0055504D01*
X0161087Y0055545D01*
X0161082Y0055587D01*
X0161080Y0055629D01*
X0142611Y0060015D02*
X0141000Y0060015D01*
X0141806Y0060015D02*
X0141806Y0057115D01*
X0139697Y0058323D02*
X0138811Y0058806D01*
X0139133Y0060014D02*
X0139198Y0060012D01*
X0139262Y0060007D01*
X0139327Y0059998D01*
X0139390Y0059986D01*
X0139453Y0059971D01*
X0139515Y0059952D01*
X0139576Y0059930D01*
X0139635Y0059905D01*
X0139694Y0059876D01*
X0139750Y0059844D01*
X0139805Y0059810D01*
X0139858Y0059772D01*
X0138810Y0058806D02*
X0138770Y0058832D01*
X0138731Y0058861D01*
X0138694Y0058893D01*
X0138660Y0058928D01*
X0138629Y0058965D01*
X0138600Y0059004D01*
X0138574Y0059045D01*
X0138552Y0059088D01*
X0138533Y0059133D01*
X0138517Y0059179D01*
X0138504Y0059225D01*
X0138495Y0059273D01*
X0138490Y0059321D01*
X0138488Y0059370D01*
X0138489Y0059370D02*
X0138491Y0059418D01*
X0138496Y0059466D01*
X0138505Y0059513D01*
X0138518Y0059560D01*
X0138534Y0059605D01*
X0138553Y0059649D01*
X0138575Y0059692D01*
X0138601Y0059733D01*
X0138630Y0059772D01*
X0138661Y0059808D01*
X0138695Y0059842D01*
X0138731Y0059874D01*
X0138770Y0059902D01*
X0138811Y0059928D01*
X0138854Y0059950D01*
X0138898Y0059969D01*
X0138943Y0059985D01*
X0138990Y0059998D01*
X0139037Y0060007D01*
X0139085Y0060012D01*
X0139133Y0060014D01*
X0138409Y0057518D02*
X0138460Y0057468D01*
X0138515Y0057421D01*
X0138571Y0057378D01*
X0138630Y0057337D01*
X0138691Y0057299D01*
X0138754Y0057265D01*
X0138819Y0057234D01*
X0138885Y0057206D01*
X0138952Y0057182D01*
X0139021Y0057162D01*
X0139091Y0057145D01*
X0139161Y0057132D01*
X0139232Y0057123D01*
X0139303Y0057117D01*
X0139375Y0057115D01*
X0139423Y0057117D01*
X0139471Y0057122D01*
X0139518Y0057131D01*
X0139565Y0057144D01*
X0139610Y0057160D01*
X0139654Y0057179D01*
X0139697Y0057201D01*
X0139738Y0057227D01*
X0139777Y0057256D01*
X0139813Y0057287D01*
X0139847Y0057321D01*
X0139878Y0057357D01*
X0139907Y0057396D01*
X0139933Y0057437D01*
X0139955Y0057480D01*
X0139974Y0057524D01*
X0139990Y0057569D01*
X0140003Y0057616D01*
X0140012Y0057663D01*
X0140017Y0057711D01*
X0140019Y0057759D01*
X0140020Y0057759D02*
X0140018Y0057808D01*
X0140013Y0057856D01*
X0140004Y0057904D01*
X0139991Y0057950D01*
X0139975Y0057996D01*
X0139956Y0058041D01*
X0139934Y0058084D01*
X0139908Y0058125D01*
X0139879Y0058164D01*
X0139848Y0058201D01*
X0139814Y0058236D01*
X0139777Y0058268D01*
X0139738Y0058297D01*
X0139698Y0058323D01*
X0137256Y0057115D02*
X0136611Y0058403D01*
X0136450Y0058403D02*
X0135645Y0058403D01*
X0136450Y0058403D02*
X0136505Y0058405D01*
X0136560Y0058411D01*
X0136614Y0058420D01*
X0136667Y0058433D01*
X0136720Y0058450D01*
X0136771Y0058470D01*
X0136821Y0058493D01*
X0136869Y0058520D01*
X0136915Y0058551D01*
X0136959Y0058584D01*
X0137000Y0058620D01*
X0137039Y0058659D01*
X0137075Y0058700D01*
X0137108Y0058744D01*
X0137139Y0058790D01*
X0137166Y0058838D01*
X0137189Y0058888D01*
X0137209Y0058939D01*
X0137226Y0058992D01*
X0137239Y0059045D01*
X0137248Y0059099D01*
X0137254Y0059154D01*
X0137256Y0059209D01*
X0137254Y0059264D01*
X0137248Y0059319D01*
X0137239Y0059373D01*
X0137226Y0059426D01*
X0137209Y0059479D01*
X0137189Y0059530D01*
X0137166Y0059580D01*
X0137139Y0059628D01*
X0137108Y0059674D01*
X0137075Y0059718D01*
X0137039Y0059759D01*
X0137000Y0059798D01*
X0136959Y0059834D01*
X0136915Y0059867D01*
X0136869Y0059898D01*
X0136821Y0059925D01*
X0136771Y0059948D01*
X0136720Y0059968D01*
X0136667Y0059985D01*
X0136614Y0059998D01*
X0136560Y0060007D01*
X0136505Y0060013D01*
X0136450Y0060015D01*
X0135645Y0060015D01*
X0135645Y0057115D01*
X0134163Y0057115D02*
X0134163Y0060015D01*
X0132552Y0060015D02*
X0134163Y0057115D01*
X0132552Y0057115D02*
X0132552Y0060015D01*
X0130136Y0059209D02*
X0130136Y0057920D01*
X0130137Y0057920D02*
X0130135Y0057865D01*
X0130129Y0057810D01*
X0130120Y0057756D01*
X0130107Y0057703D01*
X0130090Y0057650D01*
X0130070Y0057599D01*
X0130047Y0057549D01*
X0130020Y0057501D01*
X0129989Y0057455D01*
X0129956Y0057411D01*
X0129920Y0057370D01*
X0129881Y0057331D01*
X0129840Y0057295D01*
X0129796Y0057262D01*
X0129750Y0057231D01*
X0129702Y0057204D01*
X0129652Y0057181D01*
X0129601Y0057161D01*
X0129548Y0057144D01*
X0129495Y0057131D01*
X0129441Y0057122D01*
X0129386Y0057116D01*
X0129331Y0057114D01*
X0129331Y0057115D02*
X0128525Y0057115D01*
X0128525Y0060015D01*
X0129331Y0060015D01*
X0129386Y0060013D01*
X0129441Y0060007D01*
X0129495Y0059998D01*
X0129548Y0059985D01*
X0129601Y0059968D01*
X0129652Y0059948D01*
X0129702Y0059925D01*
X0129750Y0059898D01*
X0129796Y0059867D01*
X0129840Y0059834D01*
X0129881Y0059798D01*
X0129920Y0059759D01*
X0129956Y0059718D01*
X0129989Y0059674D01*
X0130020Y0059628D01*
X0130047Y0059580D01*
X0130070Y0059530D01*
X0130090Y0059479D01*
X0130107Y0059426D01*
X0130120Y0059373D01*
X0130129Y0059319D01*
X0130135Y0059264D01*
X0130137Y0059209D01*
X0127064Y0059209D02*
X0127064Y0057920D01*
X0127065Y0057920D02*
X0127063Y0057865D01*
X0127057Y0057810D01*
X0127048Y0057756D01*
X0127035Y0057703D01*
X0127018Y0057650D01*
X0126998Y0057599D01*
X0126975Y0057549D01*
X0126948Y0057501D01*
X0126917Y0057455D01*
X0126884Y0057411D01*
X0126848Y0057370D01*
X0126809Y0057331D01*
X0126768Y0057295D01*
X0126724Y0057262D01*
X0126678Y0057231D01*
X0126630Y0057204D01*
X0126580Y0057181D01*
X0126529Y0057161D01*
X0126476Y0057144D01*
X0126423Y0057131D01*
X0126369Y0057122D01*
X0126314Y0057116D01*
X0126259Y0057114D01*
X0126259Y0057115D02*
X0125453Y0057115D01*
X0125453Y0060015D01*
X0126259Y0060015D01*
X0126314Y0060013D01*
X0126369Y0060007D01*
X0126423Y0059998D01*
X0126476Y0059985D01*
X0126529Y0059968D01*
X0126580Y0059948D01*
X0126630Y0059925D01*
X0126678Y0059898D01*
X0126724Y0059867D01*
X0126768Y0059834D01*
X0126809Y0059798D01*
X0126848Y0059759D01*
X0126884Y0059718D01*
X0126917Y0059674D01*
X0126948Y0059628D01*
X0126975Y0059580D01*
X0126998Y0059530D01*
X0127018Y0059479D01*
X0127035Y0059426D01*
X0127048Y0059373D01*
X0127057Y0059319D01*
X0127063Y0059264D01*
X0127065Y0059209D01*
X0124249Y0060015D02*
X0123283Y0057115D01*
X0122316Y0060015D01*
X0120229Y0059209D02*
X0120229Y0057920D01*
X0120227Y0057865D01*
X0120221Y0057810D01*
X0120212Y0057756D01*
X0120199Y0057703D01*
X0120182Y0057650D01*
X0120162Y0057599D01*
X0120139Y0057549D01*
X0120112Y0057501D01*
X0120081Y0057455D01*
X0120048Y0057411D01*
X0120012Y0057370D01*
X0119973Y0057331D01*
X0119932Y0057295D01*
X0119888Y0057262D01*
X0119842Y0057231D01*
X0119794Y0057204D01*
X0119744Y0057181D01*
X0119693Y0057161D01*
X0119640Y0057144D01*
X0119587Y0057131D01*
X0119533Y0057122D01*
X0119478Y0057116D01*
X0119423Y0057114D01*
X0119423Y0057115D02*
X0118618Y0057115D01*
X0118618Y0060015D01*
X0119423Y0060015D01*
X0119478Y0060013D01*
X0119533Y0060007D01*
X0119587Y0059998D01*
X0119640Y0059985D01*
X0119693Y0059968D01*
X0119744Y0059948D01*
X0119794Y0059925D01*
X0119842Y0059898D01*
X0119888Y0059867D01*
X0119932Y0059834D01*
X0119973Y0059798D01*
X0120012Y0059759D01*
X0120048Y0059718D01*
X0120081Y0059674D01*
X0120112Y0059628D01*
X0120139Y0059580D01*
X0120162Y0059530D01*
X0120182Y0059479D01*
X0120199Y0059426D01*
X0120212Y0059373D01*
X0120221Y0059319D01*
X0120227Y0059264D01*
X0120229Y0059209D01*
X0117157Y0060015D02*
X0117157Y0057115D01*
X0115546Y0060015D01*
X0115546Y0057115D01*
X0114085Y0057115D02*
X0113118Y0057115D01*
X0113070Y0057117D01*
X0113022Y0057122D01*
X0112975Y0057131D01*
X0112928Y0057144D01*
X0112883Y0057160D01*
X0112839Y0057179D01*
X0112796Y0057201D01*
X0112755Y0057227D01*
X0112716Y0057256D01*
X0112680Y0057287D01*
X0112646Y0057321D01*
X0112615Y0057357D01*
X0112586Y0057396D01*
X0112560Y0057437D01*
X0112538Y0057480D01*
X0112519Y0057524D01*
X0112503Y0057569D01*
X0112490Y0057616D01*
X0112481Y0057663D01*
X0112476Y0057711D01*
X0112474Y0057759D01*
X0112474Y0059370D01*
X0112476Y0059421D01*
X0112482Y0059471D01*
X0112492Y0059520D01*
X0112506Y0059569D01*
X0112523Y0059616D01*
X0112544Y0059662D01*
X0112569Y0059706D01*
X0112597Y0059749D01*
X0112628Y0059788D01*
X0112663Y0059825D01*
X0112700Y0059860D01*
X0112739Y0059891D01*
X0112782Y0059919D01*
X0112826Y0059944D01*
X0112872Y0059965D01*
X0112919Y0059982D01*
X0112968Y0059996D01*
X0113017Y0060006D01*
X0113067Y0060012D01*
X0113118Y0060014D01*
X0113118Y0060015D02*
X0114085Y0060015D01*
X0114085Y0058726D02*
X0113601Y0058726D01*
X0114085Y0058726D02*
X0114085Y0057115D01*
X0122605Y0068032D02*
X0124041Y0068555D01*
X0125478Y0068032D01*
X0124041Y0068555D02*
X0124041Y0066988D01*
X0124041Y0068555D02*
X0123128Y0069730D01*
X0124041Y0068555D02*
X0124955Y0069730D01*
X0114371Y0033637D02*
X0115015Y0030737D01*
X0112975Y0031945D02*
X0112089Y0032428D01*
X0112411Y0033636D02*
X0112476Y0033634D01*
X0112540Y0033629D01*
X0112605Y0033620D01*
X0112668Y0033608D01*
X0112731Y0033593D01*
X0112793Y0033574D01*
X0112854Y0033552D01*
X0112913Y0033527D01*
X0112972Y0033498D01*
X0113028Y0033466D01*
X0113083Y0033432D01*
X0113136Y0033394D01*
X0112088Y0032428D02*
X0112048Y0032454D01*
X0112009Y0032483D01*
X0111972Y0032515D01*
X0111938Y0032550D01*
X0111907Y0032587D01*
X0111878Y0032626D01*
X0111852Y0032667D01*
X0111830Y0032710D01*
X0111811Y0032755D01*
X0111795Y0032801D01*
X0111782Y0032847D01*
X0111773Y0032895D01*
X0111768Y0032943D01*
X0111766Y0032992D01*
X0111767Y0032992D02*
X0111769Y0033040D01*
X0111774Y0033088D01*
X0111783Y0033135D01*
X0111796Y0033182D01*
X0111812Y0033227D01*
X0111831Y0033271D01*
X0111853Y0033314D01*
X0111879Y0033355D01*
X0111908Y0033394D01*
X0111939Y0033430D01*
X0111973Y0033464D01*
X0112009Y0033496D01*
X0112048Y0033524D01*
X0112089Y0033550D01*
X0112132Y0033572D01*
X0112176Y0033591D01*
X0112221Y0033607D01*
X0112268Y0033620D01*
X0112315Y0033629D01*
X0112363Y0033634D01*
X0112411Y0033636D01*
X0111687Y0031140D02*
X0111738Y0031090D01*
X0111793Y0031043D01*
X0111849Y0031000D01*
X0111908Y0030959D01*
X0111969Y0030921D01*
X0112032Y0030887D01*
X0112097Y0030856D01*
X0112163Y0030828D01*
X0112230Y0030804D01*
X0112299Y0030784D01*
X0112369Y0030767D01*
X0112439Y0030754D01*
X0112510Y0030745D01*
X0112581Y0030739D01*
X0112653Y0030737D01*
X0112701Y0030739D01*
X0112749Y0030744D01*
X0112796Y0030753D01*
X0112843Y0030766D01*
X0112888Y0030782D01*
X0112932Y0030801D01*
X0112975Y0030823D01*
X0113016Y0030849D01*
X0113055Y0030878D01*
X0113091Y0030909D01*
X0113125Y0030943D01*
X0113156Y0030979D01*
X0113185Y0031018D01*
X0113211Y0031059D01*
X0113233Y0031102D01*
X0113252Y0031146D01*
X0113268Y0031191D01*
X0113281Y0031238D01*
X0113290Y0031285D01*
X0113295Y0031333D01*
X0113297Y0031381D01*
X0113298Y0031381D02*
X0113296Y0031430D01*
X0113291Y0031478D01*
X0113282Y0031526D01*
X0113269Y0031572D01*
X0113253Y0031618D01*
X0113234Y0031663D01*
X0113212Y0031706D01*
X0113186Y0031747D01*
X0113157Y0031786D01*
X0113126Y0031823D01*
X0113092Y0031858D01*
X0113055Y0031890D01*
X0113016Y0031919D01*
X0112976Y0031945D01*
X0103752Y0022469D02*
X0103710Y0022471D01*
X0103668Y0022476D01*
X0103627Y0022485D01*
X0103587Y0022498D01*
X0103548Y0022514D01*
X0103511Y0022534D01*
X0103475Y0022556D01*
X0103442Y0022582D01*
X0103410Y0022610D01*
X0103382Y0022642D01*
X0103356Y0022675D01*
X0103334Y0022711D01*
X0103314Y0022748D01*
X0103298Y0022787D01*
X0103285Y0022827D01*
X0103276Y0022868D01*
X0103271Y0022910D01*
X0103269Y0022952D01*
X0103752Y0022469D02*
X0103913Y0022469D01*
X0093338Y0024402D02*
X0092372Y0024402D01*
X0088959Y0024402D02*
X0088315Y0022469D01*
X0142739Y0031462D02*
X0142741Y0031414D01*
X0142746Y0031366D01*
X0142755Y0031319D01*
X0142768Y0031272D01*
X0142784Y0031227D01*
X0142803Y0031183D01*
X0142825Y0031140D01*
X0142851Y0031099D01*
X0142880Y0031060D01*
X0142911Y0031024D01*
X0142945Y0030990D01*
X0142981Y0030959D01*
X0143020Y0030930D01*
X0143061Y0030904D01*
X0143104Y0030882D01*
X0143148Y0030863D01*
X0143193Y0030847D01*
X0143240Y0030834D01*
X0143287Y0030825D01*
X0143335Y0030820D01*
X0143383Y0030818D01*
X0143947Y0031139D02*
X0144430Y0032025D01*
X0145638Y0031703D02*
X0145636Y0031631D01*
X0145630Y0031560D01*
X0145621Y0031489D01*
X0145608Y0031419D01*
X0145591Y0031349D01*
X0145571Y0031280D01*
X0145547Y0031213D01*
X0145519Y0031147D01*
X0145488Y0031082D01*
X0145454Y0031019D01*
X0145416Y0030958D01*
X0145375Y0030899D01*
X0145332Y0030843D01*
X0145285Y0030788D01*
X0145235Y0030737D01*
X0144430Y0032026D02*
X0144456Y0032066D01*
X0144485Y0032105D01*
X0144517Y0032142D01*
X0144552Y0032176D01*
X0144589Y0032207D01*
X0144628Y0032236D01*
X0144669Y0032262D01*
X0144712Y0032284D01*
X0144757Y0032303D01*
X0144803Y0032319D01*
X0144849Y0032332D01*
X0144897Y0032341D01*
X0144945Y0032346D01*
X0144994Y0032348D01*
X0144994Y0032347D02*
X0145042Y0032345D01*
X0145090Y0032340D01*
X0145137Y0032331D01*
X0145184Y0032318D01*
X0145229Y0032302D01*
X0145273Y0032283D01*
X0145316Y0032261D01*
X0145357Y0032235D01*
X0145396Y0032206D01*
X0145432Y0032175D01*
X0145466Y0032141D01*
X0145497Y0032105D01*
X0145526Y0032066D01*
X0145552Y0032025D01*
X0145574Y0031982D01*
X0145593Y0031938D01*
X0145609Y0031893D01*
X0145622Y0031846D01*
X0145631Y0031799D01*
X0145636Y0031751D01*
X0145638Y0031703D01*
X0142981Y0032187D02*
X0142943Y0032134D01*
X0142909Y0032079D01*
X0142877Y0032023D01*
X0142848Y0031964D01*
X0142823Y0031905D01*
X0142801Y0031844D01*
X0142782Y0031782D01*
X0142767Y0031719D01*
X0142755Y0031656D01*
X0142746Y0031591D01*
X0142741Y0031527D01*
X0142739Y0031462D01*
X0143383Y0030817D02*
X0143432Y0030819D01*
X0143480Y0030824D01*
X0143528Y0030833D01*
X0143574Y0030846D01*
X0143620Y0030862D01*
X0143665Y0030881D01*
X0143708Y0030903D01*
X0143749Y0030929D01*
X0143788Y0030958D01*
X0143825Y0030989D01*
X0143860Y0031023D01*
X0143892Y0031060D01*
X0143921Y0031099D01*
X0143947Y0031139D01*
X0048646Y0107508D02*
X0047840Y0107508D01*
X0047840Y0107509D02*
X0047798Y0107511D01*
X0047756Y0107516D01*
X0047715Y0107525D01*
X0047675Y0107538D01*
X0047636Y0107554D01*
X0047599Y0107574D01*
X0047563Y0107596D01*
X0047530Y0107622D01*
X0047498Y0107650D01*
X0047470Y0107682D01*
X0047444Y0107715D01*
X0047422Y0107751D01*
X0047402Y0107788D01*
X0047386Y0107827D01*
X0047373Y0107867D01*
X0047364Y0107908D01*
X0047359Y0107950D01*
X0047357Y0107992D01*
X0047357Y0108797D01*
X0047357Y0108475D02*
X0048646Y0108475D01*
X0048646Y0108797D01*
X0048644Y0108846D01*
X0048638Y0108895D01*
X0048629Y0108944D01*
X0048616Y0108991D01*
X0048599Y0109038D01*
X0048579Y0109083D01*
X0048556Y0109126D01*
X0048529Y0109168D01*
X0048499Y0109207D01*
X0048466Y0109244D01*
X0048430Y0109278D01*
X0048392Y0109309D01*
X0048352Y0109338D01*
X0048310Y0109363D01*
X0048265Y0109385D01*
X0048220Y0109403D01*
X0048173Y0109418D01*
X0048125Y0109429D01*
X0048076Y0109437D01*
X0048027Y0109441D01*
X0047977Y0109441D01*
X0047928Y0109437D01*
X0047879Y0109429D01*
X0047831Y0109418D01*
X0047784Y0109403D01*
X0047739Y0109385D01*
X0047694Y0109363D01*
X0047652Y0109338D01*
X0047612Y0109309D01*
X0047574Y0109278D01*
X0047538Y0109244D01*
X0047505Y0109207D01*
X0047475Y0109168D01*
X0047448Y0109126D01*
X0047425Y0109083D01*
X0047405Y0109038D01*
X0047388Y0108991D01*
X0047375Y0108944D01*
X0047366Y0108895D01*
X0047360Y0108846D01*
X0047358Y0108797D01*
X0046054Y0109442D02*
X0046054Y0107508D01*
X0045248Y0107508D01*
X0045248Y0107509D02*
X0045206Y0107511D01*
X0045164Y0107516D01*
X0045123Y0107525D01*
X0045083Y0107538D01*
X0045044Y0107554D01*
X0045007Y0107574D01*
X0044971Y0107596D01*
X0044938Y0107622D01*
X0044906Y0107650D01*
X0044878Y0107682D01*
X0044852Y0107715D01*
X0044830Y0107751D01*
X0044810Y0107788D01*
X0044794Y0107827D01*
X0044781Y0107867D01*
X0044772Y0107908D01*
X0044767Y0107950D01*
X0044765Y0107992D01*
X0044765Y0109442D01*
X0043166Y0107992D02*
X0043168Y0107950D01*
X0043173Y0107908D01*
X0043182Y0107867D01*
X0043195Y0107827D01*
X0043211Y0107788D01*
X0043231Y0107751D01*
X0043253Y0107715D01*
X0043279Y0107682D01*
X0043307Y0107650D01*
X0043339Y0107622D01*
X0043372Y0107596D01*
X0043408Y0107574D01*
X0043445Y0107554D01*
X0043484Y0107538D01*
X0043524Y0107525D01*
X0043565Y0107516D01*
X0043607Y0107511D01*
X0043649Y0107509D01*
X0043166Y0107992D02*
X0043166Y0110408D01*
X0041232Y0110408D02*
X0040426Y0110408D01*
X0040426Y0107508D01*
X0041232Y0107508D01*
X0041287Y0107510D01*
X0041342Y0107516D01*
X0041396Y0107525D01*
X0041449Y0107538D01*
X0041502Y0107555D01*
X0041553Y0107575D01*
X0041603Y0107598D01*
X0041651Y0107625D01*
X0041697Y0107656D01*
X0041741Y0107689D01*
X0041782Y0107725D01*
X0041821Y0107764D01*
X0041857Y0107805D01*
X0041890Y0107849D01*
X0041921Y0107895D01*
X0041948Y0107943D01*
X0041971Y0107993D01*
X0041991Y0108044D01*
X0042008Y0108097D01*
X0042021Y0108150D01*
X0042030Y0108204D01*
X0042036Y0108259D01*
X0042038Y0108314D01*
X0042036Y0108369D01*
X0042030Y0108424D01*
X0042021Y0108478D01*
X0042008Y0108531D01*
X0041991Y0108584D01*
X0041971Y0108635D01*
X0041948Y0108685D01*
X0041921Y0108733D01*
X0041890Y0108779D01*
X0041857Y0108823D01*
X0041821Y0108864D01*
X0041782Y0108903D01*
X0041741Y0108939D01*
X0041697Y0108972D01*
X0041651Y0109003D01*
X0041603Y0109030D01*
X0041553Y0109053D01*
X0041502Y0109073D01*
X0041449Y0109090D01*
X0041396Y0109103D01*
X0041342Y0109112D01*
X0041287Y0109118D01*
X0041232Y0109120D01*
X0041232Y0109119D02*
X0040426Y0109119D01*
X0041232Y0109120D02*
X0041281Y0109122D01*
X0041330Y0109128D01*
X0041379Y0109137D01*
X0041426Y0109150D01*
X0041473Y0109167D01*
X0041518Y0109187D01*
X0041561Y0109210D01*
X0041603Y0109237D01*
X0041642Y0109267D01*
X0041679Y0109300D01*
X0041713Y0109336D01*
X0041744Y0109374D01*
X0041773Y0109414D01*
X0041798Y0109456D01*
X0041820Y0109501D01*
X0041838Y0109546D01*
X0041853Y0109593D01*
X0041864Y0109641D01*
X0041872Y0109690D01*
X0041876Y0109739D01*
X0041876Y0109789D01*
X0041872Y0109838D01*
X0041864Y0109887D01*
X0041853Y0109935D01*
X0041838Y0109982D01*
X0041820Y0110027D01*
X0041798Y0110072D01*
X0041773Y0110114D01*
X0041744Y0110154D01*
X0041713Y0110192D01*
X0041679Y0110228D01*
X0041642Y0110261D01*
X0041603Y0110291D01*
X0041561Y0110318D01*
X0041518Y0110341D01*
X0041473Y0110361D01*
X0041426Y0110378D01*
X0041379Y0110391D01*
X0041330Y0110400D01*
X0041281Y0110406D01*
X0041232Y0110408D01*
X0032444Y0122469D02*
X0032927Y0124402D01*
X0031961Y0123758D02*
X0031477Y0122469D01*
X0030994Y0124402D01*
X0031961Y0123758D02*
X0032444Y0122469D01*
X0029821Y0123113D02*
X0029821Y0123758D01*
X0029819Y0123807D01*
X0029813Y0123856D01*
X0029804Y0123905D01*
X0029791Y0123952D01*
X0029774Y0123999D01*
X0029754Y0124044D01*
X0029731Y0124087D01*
X0029704Y0124129D01*
X0029674Y0124168D01*
X0029641Y0124205D01*
X0029605Y0124239D01*
X0029567Y0124270D01*
X0029527Y0124299D01*
X0029485Y0124324D01*
X0029440Y0124346D01*
X0029395Y0124364D01*
X0029348Y0124379D01*
X0029300Y0124390D01*
X0029251Y0124398D01*
X0029202Y0124402D01*
X0029152Y0124402D01*
X0029103Y0124398D01*
X0029054Y0124390D01*
X0029006Y0124379D01*
X0028959Y0124364D01*
X0028914Y0124346D01*
X0028869Y0124324D01*
X0028827Y0124299D01*
X0028787Y0124270D01*
X0028749Y0124239D01*
X0028713Y0124205D01*
X0028680Y0124168D01*
X0028650Y0124129D01*
X0028623Y0124087D01*
X0028600Y0124044D01*
X0028580Y0123999D01*
X0028563Y0123952D01*
X0028550Y0123905D01*
X0028541Y0123856D01*
X0028535Y0123807D01*
X0028533Y0123758D01*
X0028532Y0123758D02*
X0028532Y0123113D01*
X0028533Y0123113D02*
X0028535Y0123064D01*
X0028541Y0123015D01*
X0028550Y0122966D01*
X0028563Y0122919D01*
X0028580Y0122872D01*
X0028600Y0122827D01*
X0028623Y0122784D01*
X0028650Y0122742D01*
X0028680Y0122703D01*
X0028713Y0122666D01*
X0028749Y0122632D01*
X0028787Y0122601D01*
X0028827Y0122572D01*
X0028869Y0122547D01*
X0028914Y0122525D01*
X0028959Y0122507D01*
X0029006Y0122492D01*
X0029054Y0122481D01*
X0029103Y0122473D01*
X0029152Y0122469D01*
X0029202Y0122469D01*
X0029251Y0122473D01*
X0029300Y0122481D01*
X0029348Y0122492D01*
X0029395Y0122507D01*
X0029440Y0122525D01*
X0029485Y0122547D01*
X0029527Y0122572D01*
X0029567Y0122601D01*
X0029605Y0122632D01*
X0029641Y0122666D01*
X0029674Y0122703D01*
X0029704Y0122742D01*
X0029731Y0122784D01*
X0029754Y0122827D01*
X0029774Y0122872D01*
X0029791Y0122919D01*
X0029804Y0122966D01*
X0029813Y0123015D01*
X0029819Y0123064D01*
X0029821Y0123113D01*
X0027512Y0122469D02*
X0027470Y0122471D01*
X0027428Y0122476D01*
X0027387Y0122485D01*
X0027347Y0122498D01*
X0027308Y0122514D01*
X0027271Y0122534D01*
X0027235Y0122556D01*
X0027202Y0122582D01*
X0027170Y0122610D01*
X0027142Y0122642D01*
X0027116Y0122675D01*
X0027094Y0122711D01*
X0027074Y0122748D01*
X0027058Y0122787D01*
X0027045Y0122827D01*
X0027036Y0122868D01*
X0027031Y0122910D01*
X0027029Y0122952D01*
X0027029Y0125369D01*
X0025493Y0125369D02*
X0025493Y0122952D01*
X0025495Y0122910D01*
X0025500Y0122868D01*
X0025509Y0122827D01*
X0025522Y0122787D01*
X0025538Y0122748D01*
X0025558Y0122711D01*
X0025580Y0122675D01*
X0025606Y0122642D01*
X0025634Y0122610D01*
X0025666Y0122582D01*
X0025699Y0122556D01*
X0025735Y0122534D01*
X0025772Y0122514D01*
X0025811Y0122498D01*
X0025851Y0122485D01*
X0025892Y0122476D01*
X0025934Y0122471D01*
X0025976Y0122469D01*
X0024253Y0122469D02*
X0023447Y0122469D01*
X0023405Y0122471D01*
X0023363Y0122476D01*
X0023322Y0122485D01*
X0023282Y0122498D01*
X0023243Y0122514D01*
X0023206Y0122534D01*
X0023170Y0122556D01*
X0023137Y0122582D01*
X0023105Y0122610D01*
X0023077Y0122642D01*
X0023051Y0122675D01*
X0023029Y0122711D01*
X0023009Y0122748D01*
X0022993Y0122787D01*
X0022980Y0122827D01*
X0022971Y0122868D01*
X0022966Y0122910D01*
X0022964Y0122952D01*
X0022964Y0123758D01*
X0022964Y0123436D02*
X0024253Y0123436D01*
X0024253Y0123758D01*
X0024251Y0123807D01*
X0024245Y0123856D01*
X0024236Y0123905D01*
X0024223Y0123952D01*
X0024206Y0123999D01*
X0024186Y0124044D01*
X0024163Y0124087D01*
X0024136Y0124129D01*
X0024106Y0124168D01*
X0024073Y0124205D01*
X0024037Y0124239D01*
X0023999Y0124270D01*
X0023959Y0124299D01*
X0023917Y0124324D01*
X0023872Y0124346D01*
X0023827Y0124364D01*
X0023780Y0124379D01*
X0023732Y0124390D01*
X0023683Y0124398D01*
X0023634Y0124402D01*
X0023584Y0124402D01*
X0023535Y0124398D01*
X0023486Y0124390D01*
X0023438Y0124379D01*
X0023391Y0124364D01*
X0023346Y0124346D01*
X0023301Y0124324D01*
X0023259Y0124299D01*
X0023219Y0124270D01*
X0023181Y0124239D01*
X0023145Y0124205D01*
X0023112Y0124168D01*
X0023082Y0124129D01*
X0023055Y0124087D01*
X0023032Y0124044D01*
X0023012Y0123999D01*
X0022995Y0123952D01*
X0022982Y0123905D01*
X0022973Y0123856D01*
X0022967Y0123807D01*
X0022965Y0123758D01*
X0021887Y0125369D02*
X0020921Y0123999D01*
X0020921Y0122469D01*
X0020921Y0123999D02*
X0019954Y0125369D01*
X0027041Y0133099D02*
X0027041Y0135999D01*
X0027846Y0135999D01*
X0027901Y0135997D01*
X0027956Y0135991D01*
X0028010Y0135982D01*
X0028063Y0135969D01*
X0028116Y0135952D01*
X0028167Y0135932D01*
X0028217Y0135909D01*
X0028265Y0135882D01*
X0028311Y0135851D01*
X0028355Y0135818D01*
X0028396Y0135782D01*
X0028435Y0135743D01*
X0028471Y0135702D01*
X0028504Y0135658D01*
X0028535Y0135612D01*
X0028562Y0135564D01*
X0028585Y0135514D01*
X0028605Y0135463D01*
X0028622Y0135410D01*
X0028635Y0135357D01*
X0028644Y0135303D01*
X0028650Y0135248D01*
X0028652Y0135193D01*
X0028650Y0135138D01*
X0028644Y0135083D01*
X0028635Y0135029D01*
X0028622Y0134976D01*
X0028605Y0134923D01*
X0028585Y0134872D01*
X0028562Y0134822D01*
X0028535Y0134774D01*
X0028504Y0134728D01*
X0028471Y0134684D01*
X0028435Y0134643D01*
X0028396Y0134604D01*
X0028355Y0134568D01*
X0028311Y0134535D01*
X0028265Y0134504D01*
X0028217Y0134477D01*
X0028167Y0134454D01*
X0028116Y0134434D01*
X0028063Y0134417D01*
X0028010Y0134404D01*
X0027956Y0134395D01*
X0027901Y0134389D01*
X0027846Y0134387D01*
X0027846Y0134388D02*
X0027041Y0134388D01*
X0028007Y0134388D02*
X0028652Y0133099D01*
X0029870Y0133582D02*
X0029870Y0134388D01*
X0029870Y0134065D02*
X0031158Y0134065D01*
X0031158Y0134388D01*
X0031156Y0134437D01*
X0031150Y0134486D01*
X0031141Y0134535D01*
X0031128Y0134582D01*
X0031111Y0134629D01*
X0031091Y0134674D01*
X0031068Y0134717D01*
X0031041Y0134759D01*
X0031011Y0134798D01*
X0030978Y0134835D01*
X0030942Y0134869D01*
X0030904Y0134900D01*
X0030864Y0134929D01*
X0030822Y0134954D01*
X0030777Y0134976D01*
X0030732Y0134994D01*
X0030685Y0135009D01*
X0030637Y0135020D01*
X0030588Y0135028D01*
X0030539Y0135032D01*
X0030489Y0135032D01*
X0030440Y0135028D01*
X0030391Y0135020D01*
X0030343Y0135009D01*
X0030296Y0134994D01*
X0030251Y0134976D01*
X0030206Y0134954D01*
X0030164Y0134929D01*
X0030124Y0134900D01*
X0030086Y0134869D01*
X0030050Y0134835D01*
X0030017Y0134798D01*
X0029987Y0134759D01*
X0029960Y0134717D01*
X0029937Y0134674D01*
X0029917Y0134629D01*
X0029900Y0134582D01*
X0029887Y0134535D01*
X0029878Y0134486D01*
X0029872Y0134437D01*
X0029870Y0134388D01*
X0029870Y0133582D02*
X0029872Y0133540D01*
X0029877Y0133498D01*
X0029886Y0133457D01*
X0029899Y0133417D01*
X0029915Y0133378D01*
X0029935Y0133341D01*
X0029957Y0133305D01*
X0029983Y0133272D01*
X0030011Y0133240D01*
X0030043Y0133212D01*
X0030076Y0133186D01*
X0030112Y0133164D01*
X0030149Y0133144D01*
X0030188Y0133128D01*
X0030228Y0133115D01*
X0030269Y0133106D01*
X0030311Y0133101D01*
X0030353Y0133099D01*
X0031158Y0133099D01*
X0032349Y0133582D02*
X0032349Y0134549D01*
X0032350Y0134549D02*
X0032352Y0134591D01*
X0032357Y0134633D01*
X0032366Y0134674D01*
X0032379Y0134714D01*
X0032395Y0134753D01*
X0032415Y0134791D01*
X0032437Y0134826D01*
X0032463Y0134859D01*
X0032491Y0134891D01*
X0032523Y0134919D01*
X0032556Y0134945D01*
X0032592Y0134967D01*
X0032629Y0134987D01*
X0032668Y0135003D01*
X0032708Y0135016D01*
X0032749Y0135025D01*
X0032791Y0135030D01*
X0032833Y0135032D01*
X0033638Y0135032D01*
X0033638Y0135999D02*
X0033638Y0133099D01*
X0032833Y0133099D01*
X0032791Y0133101D01*
X0032749Y0133106D01*
X0032708Y0133115D01*
X0032668Y0133128D01*
X0032629Y0133144D01*
X0032592Y0133164D01*
X0032556Y0133186D01*
X0032523Y0133212D01*
X0032491Y0133240D01*
X0032463Y0133272D01*
X0032437Y0133305D01*
X0032415Y0133341D01*
X0032395Y0133378D01*
X0032379Y0133417D01*
X0032366Y0133457D01*
X0032357Y0133498D01*
X0032352Y0133540D01*
X0032350Y0133582D01*
X0032195Y0148847D02*
X0031551Y0150136D01*
X0031389Y0150136D02*
X0030584Y0150136D01*
X0031389Y0150135D02*
X0031444Y0150137D01*
X0031499Y0150143D01*
X0031553Y0150152D01*
X0031606Y0150165D01*
X0031659Y0150182D01*
X0031710Y0150202D01*
X0031760Y0150225D01*
X0031808Y0150252D01*
X0031854Y0150283D01*
X0031898Y0150316D01*
X0031939Y0150352D01*
X0031978Y0150391D01*
X0032014Y0150432D01*
X0032047Y0150476D01*
X0032078Y0150522D01*
X0032105Y0150570D01*
X0032128Y0150620D01*
X0032148Y0150671D01*
X0032165Y0150724D01*
X0032178Y0150777D01*
X0032187Y0150831D01*
X0032193Y0150886D01*
X0032195Y0150941D01*
X0032193Y0150996D01*
X0032187Y0151051D01*
X0032178Y0151105D01*
X0032165Y0151158D01*
X0032148Y0151211D01*
X0032128Y0151262D01*
X0032105Y0151312D01*
X0032078Y0151360D01*
X0032047Y0151406D01*
X0032014Y0151450D01*
X0031978Y0151491D01*
X0031939Y0151530D01*
X0031898Y0151566D01*
X0031854Y0151599D01*
X0031808Y0151630D01*
X0031760Y0151657D01*
X0031710Y0151680D01*
X0031659Y0151700D01*
X0031606Y0151717D01*
X0031553Y0151730D01*
X0031499Y0151739D01*
X0031444Y0151745D01*
X0031389Y0151747D01*
X0030584Y0151747D01*
X0030584Y0148847D01*
X0033283Y0148847D02*
X0035216Y0151747D01*
X0033283Y0151747D02*
X0035216Y0148847D01*
X0040838Y0148847D02*
X0040838Y0151747D01*
X0040033Y0151747D02*
X0041644Y0151747D01*
X0042560Y0151747D02*
X0044493Y0148847D01*
X0042560Y0148847D02*
X0044493Y0151747D01*
X0048694Y0151496D02*
X0048694Y0149885D01*
X0048695Y0149885D02*
X0048697Y0149837D01*
X0048702Y0149789D01*
X0048711Y0149742D01*
X0048724Y0149695D01*
X0048740Y0149650D01*
X0048759Y0149606D01*
X0048781Y0149563D01*
X0048807Y0149522D01*
X0048836Y0149483D01*
X0048867Y0149447D01*
X0048901Y0149413D01*
X0048937Y0149382D01*
X0048976Y0149353D01*
X0049017Y0149327D01*
X0049060Y0149305D01*
X0049104Y0149286D01*
X0049149Y0149270D01*
X0049196Y0149257D01*
X0049243Y0149248D01*
X0049291Y0149243D01*
X0049339Y0149241D01*
X0049983Y0149241D01*
X0051717Y0149241D02*
X0051717Y0152141D01*
X0052522Y0152141D02*
X0050911Y0152141D01*
X0049983Y0152141D02*
X0049339Y0152141D01*
X0049339Y0152140D02*
X0049288Y0152138D01*
X0049238Y0152132D01*
X0049189Y0152122D01*
X0049140Y0152108D01*
X0049093Y0152091D01*
X0049047Y0152070D01*
X0049003Y0152045D01*
X0048960Y0152017D01*
X0048921Y0151986D01*
X0048884Y0151951D01*
X0048849Y0151914D01*
X0048818Y0151875D01*
X0048790Y0151832D01*
X0048765Y0151788D01*
X0048744Y0151742D01*
X0048727Y0151695D01*
X0048713Y0151646D01*
X0048703Y0151597D01*
X0048697Y0151547D01*
X0048695Y0151496D01*
X0053906Y0150932D02*
X0054792Y0150449D01*
X0054470Y0149241D02*
X0054398Y0149243D01*
X0054327Y0149249D01*
X0054256Y0149258D01*
X0054186Y0149271D01*
X0054116Y0149288D01*
X0054047Y0149308D01*
X0053980Y0149332D01*
X0053914Y0149360D01*
X0053849Y0149391D01*
X0053786Y0149425D01*
X0053725Y0149463D01*
X0053666Y0149504D01*
X0053610Y0149547D01*
X0053555Y0149594D01*
X0053504Y0149644D01*
X0054793Y0150449D02*
X0054833Y0150423D01*
X0054872Y0150394D01*
X0054909Y0150362D01*
X0054943Y0150327D01*
X0054974Y0150290D01*
X0055003Y0150251D01*
X0055029Y0150210D01*
X0055051Y0150167D01*
X0055070Y0150122D01*
X0055086Y0150076D01*
X0055099Y0150030D01*
X0055108Y0149982D01*
X0055113Y0149934D01*
X0055115Y0149885D01*
X0055114Y0149885D02*
X0055112Y0149837D01*
X0055107Y0149789D01*
X0055098Y0149742D01*
X0055085Y0149695D01*
X0055069Y0149650D01*
X0055050Y0149606D01*
X0055028Y0149563D01*
X0055002Y0149522D01*
X0054973Y0149483D01*
X0054942Y0149447D01*
X0054908Y0149413D01*
X0054872Y0149382D01*
X0054833Y0149353D01*
X0054792Y0149327D01*
X0054749Y0149305D01*
X0054705Y0149286D01*
X0054660Y0149270D01*
X0054613Y0149257D01*
X0054566Y0149248D01*
X0054518Y0149243D01*
X0054470Y0149241D01*
X0054953Y0151898D02*
X0054900Y0151936D01*
X0054845Y0151970D01*
X0054789Y0152002D01*
X0054730Y0152031D01*
X0054671Y0152056D01*
X0054610Y0152078D01*
X0054548Y0152097D01*
X0054485Y0152112D01*
X0054422Y0152124D01*
X0054357Y0152133D01*
X0054293Y0152138D01*
X0054228Y0152140D01*
X0054180Y0152138D01*
X0054132Y0152133D01*
X0054085Y0152124D01*
X0054038Y0152111D01*
X0053993Y0152095D01*
X0053949Y0152076D01*
X0053906Y0152054D01*
X0053865Y0152028D01*
X0053826Y0152000D01*
X0053790Y0151968D01*
X0053756Y0151934D01*
X0053725Y0151898D01*
X0053696Y0151859D01*
X0053670Y0151818D01*
X0053648Y0151775D01*
X0053629Y0151731D01*
X0053613Y0151686D01*
X0053600Y0151639D01*
X0053591Y0151592D01*
X0053586Y0151544D01*
X0053584Y0151496D01*
X0053583Y0151496D02*
X0053585Y0151447D01*
X0053590Y0151399D01*
X0053599Y0151351D01*
X0053612Y0151305D01*
X0053628Y0151259D01*
X0053647Y0151214D01*
X0053669Y0151171D01*
X0053695Y0151130D01*
X0053724Y0151091D01*
X0053755Y0151054D01*
X0053789Y0151019D01*
X0053826Y0150987D01*
X0053865Y0150958D01*
X0053905Y0150932D01*
X0054051Y0176406D02*
X0054856Y0176406D01*
X0054051Y0176406D02*
X0054051Y0179306D01*
X0054856Y0179306D01*
X0054911Y0179304D01*
X0054966Y0179298D01*
X0055020Y0179289D01*
X0055073Y0179276D01*
X0055126Y0179259D01*
X0055177Y0179239D01*
X0055227Y0179216D01*
X0055275Y0179189D01*
X0055321Y0179158D01*
X0055365Y0179125D01*
X0055406Y0179089D01*
X0055445Y0179050D01*
X0055481Y0179009D01*
X0055514Y0178965D01*
X0055545Y0178919D01*
X0055572Y0178871D01*
X0055595Y0178821D01*
X0055615Y0178770D01*
X0055632Y0178717D01*
X0055645Y0178664D01*
X0055654Y0178610D01*
X0055660Y0178555D01*
X0055662Y0178500D01*
X0055662Y0177211D01*
X0055660Y0177156D01*
X0055654Y0177101D01*
X0055645Y0177047D01*
X0055632Y0176994D01*
X0055615Y0176941D01*
X0055595Y0176890D01*
X0055572Y0176840D01*
X0055545Y0176792D01*
X0055514Y0176746D01*
X0055481Y0176702D01*
X0055445Y0176661D01*
X0055406Y0176622D01*
X0055365Y0176586D01*
X0055321Y0176553D01*
X0055275Y0176522D01*
X0055227Y0176495D01*
X0055177Y0176472D01*
X0055126Y0176452D01*
X0055073Y0176435D01*
X0055020Y0176422D01*
X0054966Y0176413D01*
X0054911Y0176407D01*
X0054856Y0176405D01*
X0052590Y0176406D02*
X0052590Y0179306D01*
X0050979Y0179306D02*
X0052590Y0176406D01*
X0050979Y0176406D02*
X0050979Y0179306D01*
X0049518Y0179306D02*
X0048551Y0179306D01*
X0048551Y0179305D02*
X0048500Y0179303D01*
X0048450Y0179297D01*
X0048401Y0179287D01*
X0048352Y0179273D01*
X0048305Y0179256D01*
X0048259Y0179235D01*
X0048215Y0179210D01*
X0048172Y0179182D01*
X0048133Y0179151D01*
X0048096Y0179116D01*
X0048061Y0179079D01*
X0048030Y0179040D01*
X0048002Y0178997D01*
X0047977Y0178953D01*
X0047956Y0178907D01*
X0047939Y0178860D01*
X0047925Y0178811D01*
X0047915Y0178762D01*
X0047909Y0178712D01*
X0047907Y0178661D01*
X0047907Y0177050D01*
X0047909Y0177002D01*
X0047914Y0176954D01*
X0047923Y0176907D01*
X0047936Y0176860D01*
X0047952Y0176815D01*
X0047971Y0176771D01*
X0047993Y0176728D01*
X0048019Y0176687D01*
X0048048Y0176648D01*
X0048079Y0176612D01*
X0048113Y0176578D01*
X0048149Y0176547D01*
X0048188Y0176518D01*
X0048229Y0176492D01*
X0048272Y0176470D01*
X0048316Y0176451D01*
X0048361Y0176435D01*
X0048408Y0176422D01*
X0048455Y0176413D01*
X0048503Y0176408D01*
X0048551Y0176406D01*
X0049518Y0176406D01*
X0049518Y0178017D01*
X0049034Y0178017D01*
X0045491Y0178107D02*
X0045491Y0176818D01*
X0045489Y0176763D01*
X0045483Y0176708D01*
X0045474Y0176654D01*
X0045461Y0176601D01*
X0045444Y0176548D01*
X0045424Y0176497D01*
X0045401Y0176447D01*
X0045374Y0176399D01*
X0045343Y0176353D01*
X0045310Y0176309D01*
X0045274Y0176268D01*
X0045235Y0176229D01*
X0045194Y0176193D01*
X0045150Y0176160D01*
X0045104Y0176129D01*
X0045056Y0176102D01*
X0045006Y0176079D01*
X0044955Y0176059D01*
X0044902Y0176042D01*
X0044849Y0176029D01*
X0044795Y0176020D01*
X0044740Y0176014D01*
X0044685Y0176012D01*
X0043880Y0176012D01*
X0043880Y0178912D01*
X0044685Y0178912D01*
X0044685Y0178913D02*
X0044740Y0178911D01*
X0044795Y0178905D01*
X0044849Y0178896D01*
X0044902Y0178883D01*
X0044955Y0178866D01*
X0045006Y0178846D01*
X0045056Y0178823D01*
X0045104Y0178796D01*
X0045150Y0178765D01*
X0045194Y0178732D01*
X0045235Y0178696D01*
X0045274Y0178657D01*
X0045310Y0178616D01*
X0045343Y0178572D01*
X0045374Y0178526D01*
X0045401Y0178478D01*
X0045424Y0178428D01*
X0045444Y0178377D01*
X0045461Y0178324D01*
X0045474Y0178271D01*
X0045483Y0178217D01*
X0045489Y0178162D01*
X0045491Y0178107D01*
X0042419Y0178107D02*
X0042419Y0176818D01*
X0042417Y0176763D01*
X0042411Y0176708D01*
X0042402Y0176654D01*
X0042389Y0176601D01*
X0042372Y0176548D01*
X0042352Y0176497D01*
X0042329Y0176447D01*
X0042302Y0176399D01*
X0042271Y0176353D01*
X0042238Y0176309D01*
X0042202Y0176268D01*
X0042163Y0176229D01*
X0042122Y0176193D01*
X0042078Y0176160D01*
X0042032Y0176129D01*
X0041984Y0176102D01*
X0041934Y0176079D01*
X0041883Y0176059D01*
X0041830Y0176042D01*
X0041777Y0176029D01*
X0041723Y0176020D01*
X0041668Y0176014D01*
X0041613Y0176012D01*
X0040808Y0176012D01*
X0040808Y0178912D01*
X0041613Y0178912D01*
X0041613Y0178913D02*
X0041668Y0178911D01*
X0041723Y0178905D01*
X0041777Y0178896D01*
X0041830Y0178883D01*
X0041883Y0178866D01*
X0041934Y0178846D01*
X0041984Y0178823D01*
X0042032Y0178796D01*
X0042078Y0178765D01*
X0042122Y0178732D01*
X0042163Y0178696D01*
X0042202Y0178657D01*
X0042238Y0178616D01*
X0042271Y0178572D01*
X0042302Y0178526D01*
X0042329Y0178478D01*
X0042352Y0178428D01*
X0042372Y0178377D01*
X0042389Y0178324D01*
X0042402Y0178271D01*
X0042411Y0178217D01*
X0042417Y0178162D01*
X0042419Y0178107D01*
X0039604Y0178912D02*
X0038637Y0176012D01*
X0037670Y0178912D01*
X0034770Y0177221D02*
X0033884Y0177704D01*
X0034206Y0178912D02*
X0034271Y0178910D01*
X0034335Y0178905D01*
X0034400Y0178896D01*
X0034463Y0178884D01*
X0034526Y0178869D01*
X0034588Y0178850D01*
X0034649Y0178828D01*
X0034708Y0178803D01*
X0034767Y0178774D01*
X0034823Y0178742D01*
X0034878Y0178708D01*
X0034931Y0178670D01*
X0033884Y0177704D02*
X0033844Y0177730D01*
X0033805Y0177759D01*
X0033768Y0177791D01*
X0033734Y0177826D01*
X0033703Y0177863D01*
X0033674Y0177902D01*
X0033648Y0177943D01*
X0033626Y0177986D01*
X0033607Y0178031D01*
X0033591Y0178077D01*
X0033578Y0178123D01*
X0033569Y0178171D01*
X0033564Y0178219D01*
X0033562Y0178268D01*
X0033564Y0178316D01*
X0033569Y0178364D01*
X0033578Y0178411D01*
X0033591Y0178458D01*
X0033607Y0178503D01*
X0033626Y0178547D01*
X0033648Y0178590D01*
X0033674Y0178631D01*
X0033703Y0178670D01*
X0033734Y0178706D01*
X0033768Y0178740D01*
X0033804Y0178772D01*
X0033843Y0178800D01*
X0033884Y0178826D01*
X0033927Y0178848D01*
X0033971Y0178867D01*
X0034016Y0178883D01*
X0034063Y0178896D01*
X0034110Y0178905D01*
X0034158Y0178910D01*
X0034206Y0178912D01*
X0033482Y0176416D02*
X0033533Y0176366D01*
X0033588Y0176319D01*
X0033644Y0176276D01*
X0033703Y0176235D01*
X0033764Y0176197D01*
X0033827Y0176163D01*
X0033892Y0176132D01*
X0033958Y0176104D01*
X0034025Y0176080D01*
X0034094Y0176060D01*
X0034164Y0176043D01*
X0034234Y0176030D01*
X0034305Y0176021D01*
X0034376Y0176015D01*
X0034448Y0176013D01*
X0034496Y0176015D01*
X0034544Y0176020D01*
X0034591Y0176029D01*
X0034638Y0176042D01*
X0034683Y0176058D01*
X0034727Y0176077D01*
X0034770Y0176099D01*
X0034811Y0176125D01*
X0034850Y0176154D01*
X0034886Y0176185D01*
X0034920Y0176219D01*
X0034951Y0176255D01*
X0034980Y0176294D01*
X0035006Y0176335D01*
X0035028Y0176378D01*
X0035047Y0176422D01*
X0035063Y0176467D01*
X0035076Y0176514D01*
X0035085Y0176561D01*
X0035090Y0176609D01*
X0035092Y0176657D01*
X0035093Y0176657D02*
X0035091Y0176706D01*
X0035086Y0176754D01*
X0035077Y0176802D01*
X0035064Y0176848D01*
X0035048Y0176894D01*
X0035029Y0176939D01*
X0035007Y0176982D01*
X0034981Y0177023D01*
X0034952Y0177062D01*
X0034921Y0177099D01*
X0034887Y0177134D01*
X0034850Y0177166D01*
X0034811Y0177195D01*
X0034771Y0177221D01*
X0032501Y0178912D02*
X0030890Y0178912D01*
X0031695Y0178912D02*
X0031695Y0176012D01*
X0029833Y0176012D02*
X0029188Y0177301D01*
X0029027Y0177301D02*
X0028222Y0177301D01*
X0029027Y0177301D02*
X0029082Y0177303D01*
X0029137Y0177309D01*
X0029191Y0177318D01*
X0029244Y0177331D01*
X0029297Y0177348D01*
X0029348Y0177368D01*
X0029398Y0177391D01*
X0029446Y0177418D01*
X0029492Y0177449D01*
X0029536Y0177482D01*
X0029577Y0177518D01*
X0029616Y0177557D01*
X0029652Y0177598D01*
X0029685Y0177642D01*
X0029716Y0177688D01*
X0029743Y0177736D01*
X0029766Y0177786D01*
X0029786Y0177837D01*
X0029803Y0177890D01*
X0029816Y0177943D01*
X0029825Y0177997D01*
X0029831Y0178052D01*
X0029833Y0178107D01*
X0029831Y0178162D01*
X0029825Y0178217D01*
X0029816Y0178271D01*
X0029803Y0178324D01*
X0029786Y0178377D01*
X0029766Y0178428D01*
X0029743Y0178478D01*
X0029716Y0178526D01*
X0029685Y0178572D01*
X0029652Y0178616D01*
X0029616Y0178657D01*
X0029577Y0178696D01*
X0029536Y0178732D01*
X0029492Y0178765D01*
X0029446Y0178796D01*
X0029398Y0178823D01*
X0029348Y0178846D01*
X0029297Y0178866D01*
X0029244Y0178883D01*
X0029191Y0178896D01*
X0029137Y0178905D01*
X0029082Y0178911D01*
X0029027Y0178913D01*
X0029027Y0178912D02*
X0028222Y0178912D01*
X0028222Y0176012D01*
X0136450Y0155461D02*
X0136450Y0153850D01*
X0136452Y0153802D01*
X0136457Y0153754D01*
X0136466Y0153707D01*
X0136479Y0153660D01*
X0136495Y0153615D01*
X0136514Y0153571D01*
X0136536Y0153528D01*
X0136562Y0153487D01*
X0136591Y0153448D01*
X0136622Y0153412D01*
X0136656Y0153378D01*
X0136692Y0153347D01*
X0136731Y0153318D01*
X0136772Y0153292D01*
X0136815Y0153270D01*
X0136859Y0153251D01*
X0136904Y0153235D01*
X0136951Y0153222D01*
X0136998Y0153213D01*
X0137046Y0153208D01*
X0137094Y0153206D01*
X0138061Y0153206D01*
X0138061Y0154817D01*
X0137578Y0154817D01*
X0136450Y0155461D02*
X0136452Y0155512D01*
X0136458Y0155562D01*
X0136468Y0155611D01*
X0136482Y0155660D01*
X0136499Y0155707D01*
X0136520Y0155753D01*
X0136545Y0155797D01*
X0136573Y0155840D01*
X0136604Y0155879D01*
X0136639Y0155916D01*
X0136676Y0155951D01*
X0136715Y0155982D01*
X0136758Y0156010D01*
X0136802Y0156035D01*
X0136848Y0156056D01*
X0136895Y0156073D01*
X0136944Y0156087D01*
X0136993Y0156097D01*
X0137043Y0156103D01*
X0137094Y0156105D01*
X0137094Y0156106D02*
X0138061Y0156106D01*
X0139522Y0156106D02*
X0141133Y0153206D01*
X0141133Y0156106D01*
X0142594Y0156106D02*
X0142594Y0153206D01*
X0143400Y0153206D01*
X0143400Y0153205D02*
X0143455Y0153207D01*
X0143510Y0153213D01*
X0143564Y0153222D01*
X0143617Y0153235D01*
X0143670Y0153252D01*
X0143721Y0153272D01*
X0143771Y0153295D01*
X0143819Y0153322D01*
X0143865Y0153353D01*
X0143909Y0153386D01*
X0143950Y0153422D01*
X0143989Y0153461D01*
X0144025Y0153502D01*
X0144058Y0153546D01*
X0144089Y0153592D01*
X0144116Y0153640D01*
X0144139Y0153690D01*
X0144159Y0153741D01*
X0144176Y0153794D01*
X0144189Y0153847D01*
X0144198Y0153901D01*
X0144204Y0153956D01*
X0144206Y0154011D01*
X0144205Y0154011D02*
X0144205Y0155300D01*
X0144206Y0155300D02*
X0144204Y0155355D01*
X0144198Y0155410D01*
X0144189Y0155464D01*
X0144176Y0155517D01*
X0144159Y0155570D01*
X0144139Y0155621D01*
X0144116Y0155671D01*
X0144089Y0155719D01*
X0144058Y0155765D01*
X0144025Y0155809D01*
X0143989Y0155850D01*
X0143950Y0155889D01*
X0143909Y0155925D01*
X0143865Y0155958D01*
X0143819Y0155989D01*
X0143771Y0156016D01*
X0143721Y0156039D01*
X0143670Y0156059D01*
X0143617Y0156076D01*
X0143564Y0156089D01*
X0143510Y0156098D01*
X0143455Y0156104D01*
X0143400Y0156106D01*
X0142594Y0156106D01*
X0139522Y0156106D02*
X0139522Y0153206D01*
D11*
X0023641Y0165301D02*
X0023607Y0165375D01*
X0023576Y0165451D01*
X0023549Y0165529D01*
X0023525Y0165608D01*
X0023504Y0165687D01*
X0023488Y0165768D01*
X0023475Y0165849D01*
X0023465Y0165931D01*
X0023460Y0166013D01*
X0023458Y0166095D01*
X0024681Y0166095D02*
X0024679Y0166177D01*
X0024674Y0166259D01*
X0024664Y0166341D01*
X0024651Y0166422D01*
X0024635Y0166503D01*
X0024614Y0166582D01*
X0024590Y0166661D01*
X0024563Y0166739D01*
X0024532Y0166815D01*
X0024498Y0166889D01*
X0024558Y0166706D02*
X0023581Y0165484D01*
X0024070Y0164995D02*
X0024110Y0164997D01*
X0024150Y0165002D01*
X0024189Y0165011D01*
X0024227Y0165023D01*
X0024264Y0165039D01*
X0024299Y0165057D01*
X0024333Y0165079D01*
X0024364Y0165104D01*
X0024393Y0165131D01*
X0024420Y0165161D01*
X0024444Y0165193D01*
X0024465Y0165227D01*
X0024483Y0165263D01*
X0024498Y0165300D01*
X0024070Y0164996D02*
X0024030Y0164998D01*
X0023990Y0165003D01*
X0023951Y0165012D01*
X0023913Y0165024D01*
X0023876Y0165040D01*
X0023841Y0165058D01*
X0023807Y0165080D01*
X0023776Y0165105D01*
X0023747Y0165132D01*
X0023720Y0165162D01*
X0023696Y0165194D01*
X0023675Y0165228D01*
X0023657Y0165264D01*
X0023642Y0165301D01*
X0022619Y0165117D02*
X0022619Y0164995D01*
X0022496Y0164995D01*
X0022496Y0165117D01*
X0022619Y0165117D01*
X0021657Y0164995D02*
X0020434Y0164995D01*
X0021046Y0164995D02*
X0021046Y0167195D01*
X0020434Y0166706D01*
X0019590Y0166462D02*
X0019102Y0164995D01*
X0018613Y0166462D01*
X0016523Y0167195D02*
X0016523Y0164995D01*
X0015790Y0165973D02*
X0016523Y0167195D01*
X0015790Y0165973D02*
X0015056Y0167195D01*
X0015056Y0164995D01*
X0014147Y0164995D02*
X0013414Y0167195D01*
X0012680Y0164995D01*
X0012864Y0165545D02*
X0013964Y0165545D01*
X0011974Y0164995D02*
X0011485Y0164995D01*
X0011442Y0164997D01*
X0011400Y0165002D01*
X0011358Y0165012D01*
X0011318Y0165024D01*
X0011278Y0165041D01*
X0011241Y0165061D01*
X0011205Y0165083D01*
X0011171Y0165109D01*
X0011139Y0165138D01*
X0011110Y0165170D01*
X0011084Y0165204D01*
X0011062Y0165240D01*
X0011042Y0165277D01*
X0011025Y0165317D01*
X0011013Y0165357D01*
X0011003Y0165399D01*
X0010998Y0165441D01*
X0010996Y0165484D01*
X0010996Y0166706D01*
X0010998Y0166749D01*
X0011003Y0166791D01*
X0011013Y0166833D01*
X0011025Y0166873D01*
X0011042Y0166913D01*
X0011062Y0166950D01*
X0011084Y0166986D01*
X0011110Y0167020D01*
X0011139Y0167052D01*
X0011171Y0167081D01*
X0011205Y0167107D01*
X0011240Y0167129D01*
X0011278Y0167149D01*
X0011318Y0167166D01*
X0011358Y0167178D01*
X0011400Y0167188D01*
X0011442Y0167193D01*
X0011485Y0167195D01*
X0011974Y0167195D01*
X0009558Y0167195D02*
X0008947Y0167195D01*
X0008947Y0164995D01*
X0009558Y0164995D01*
X0009606Y0164997D01*
X0009654Y0165003D01*
X0009701Y0165012D01*
X0009747Y0165025D01*
X0009792Y0165042D01*
X0009835Y0165062D01*
X0009877Y0165085D01*
X0009917Y0165112D01*
X0009955Y0165141D01*
X0009990Y0165174D01*
X0010023Y0165209D01*
X0010052Y0165247D01*
X0010079Y0165287D01*
X0010102Y0165329D01*
X0010122Y0165372D01*
X0010139Y0165417D01*
X0010152Y0165463D01*
X0010161Y0165510D01*
X0010167Y0165558D01*
X0010169Y0165606D01*
X0010167Y0165654D01*
X0010161Y0165702D01*
X0010152Y0165749D01*
X0010139Y0165795D01*
X0010122Y0165840D01*
X0010102Y0165883D01*
X0010079Y0165925D01*
X0010052Y0165965D01*
X0010023Y0166003D01*
X0009990Y0166038D01*
X0009955Y0166071D01*
X0009917Y0166100D01*
X0009877Y0166127D01*
X0009835Y0166150D01*
X0009792Y0166170D01*
X0009747Y0166187D01*
X0009701Y0166200D01*
X0009654Y0166209D01*
X0009606Y0166215D01*
X0009558Y0166217D01*
X0008947Y0166217D01*
X0009558Y0166217D02*
X0009601Y0166219D01*
X0009643Y0166224D01*
X0009685Y0166234D01*
X0009725Y0166246D01*
X0009765Y0166263D01*
X0009803Y0166283D01*
X0009838Y0166305D01*
X0009872Y0166331D01*
X0009904Y0166360D01*
X0009933Y0166392D01*
X0009959Y0166426D01*
X0009981Y0166462D01*
X0010001Y0166499D01*
X0010018Y0166539D01*
X0010030Y0166579D01*
X0010040Y0166621D01*
X0010045Y0166663D01*
X0010047Y0166706D01*
X0010045Y0166749D01*
X0010040Y0166791D01*
X0010030Y0166833D01*
X0010018Y0166873D01*
X0010001Y0166913D01*
X0009981Y0166951D01*
X0009959Y0166986D01*
X0009933Y0167020D01*
X0009904Y0167052D01*
X0009872Y0167081D01*
X0009838Y0167107D01*
X0009803Y0167129D01*
X0009765Y0167149D01*
X0009725Y0167166D01*
X0009685Y0167178D01*
X0009643Y0167188D01*
X0009601Y0167193D01*
X0009558Y0167195D01*
X0008025Y0167195D02*
X0007047Y0167195D01*
X0007047Y0164995D01*
X0008025Y0164995D01*
X0007780Y0166217D02*
X0007047Y0166217D01*
X0006111Y0167195D02*
X0005623Y0164995D01*
X0005134Y0166462D01*
X0004645Y0164995D01*
X0004156Y0167195D01*
X0004767Y0163595D02*
X0004807Y0163593D01*
X0004847Y0163588D01*
X0004886Y0163579D01*
X0004924Y0163567D01*
X0004961Y0163551D01*
X0004996Y0163533D01*
X0005030Y0163511D01*
X0005061Y0163486D01*
X0005090Y0163459D01*
X0005117Y0163429D01*
X0005141Y0163397D01*
X0005162Y0163363D01*
X0005180Y0163327D01*
X0005195Y0163290D01*
X0005256Y0163106D02*
X0004278Y0161884D01*
X0004767Y0161395D02*
X0004807Y0161397D01*
X0004847Y0161402D01*
X0004886Y0161411D01*
X0004924Y0161423D01*
X0004961Y0161439D01*
X0004996Y0161457D01*
X0005030Y0161479D01*
X0005061Y0161504D01*
X0005090Y0161531D01*
X0005117Y0161561D01*
X0005141Y0161593D01*
X0005162Y0161627D01*
X0005180Y0161663D01*
X0005195Y0161700D01*
X0004767Y0161396D02*
X0004727Y0161398D01*
X0004687Y0161403D01*
X0004648Y0161412D01*
X0004610Y0161424D01*
X0004573Y0161440D01*
X0004538Y0161458D01*
X0004504Y0161480D01*
X0004473Y0161505D01*
X0004444Y0161532D01*
X0004417Y0161562D01*
X0004393Y0161594D01*
X0004372Y0161628D01*
X0004354Y0161664D01*
X0004339Y0161701D01*
X0005378Y0162495D02*
X0005376Y0162577D01*
X0005371Y0162659D01*
X0005361Y0162741D01*
X0005348Y0162822D01*
X0005332Y0162903D01*
X0005311Y0162982D01*
X0005287Y0163061D01*
X0005260Y0163139D01*
X0005229Y0163215D01*
X0005195Y0163289D01*
X0004767Y0163595D02*
X0004727Y0163593D01*
X0004687Y0163588D01*
X0004648Y0163579D01*
X0004610Y0163567D01*
X0004573Y0163551D01*
X0004538Y0163533D01*
X0004504Y0163511D01*
X0004473Y0163486D01*
X0004444Y0163459D01*
X0004417Y0163429D01*
X0004393Y0163397D01*
X0004372Y0163363D01*
X0004354Y0163327D01*
X0004339Y0163290D01*
X0005378Y0162495D02*
X0005376Y0162413D01*
X0005371Y0162331D01*
X0005361Y0162249D01*
X0005348Y0162168D01*
X0005332Y0162087D01*
X0005311Y0162008D01*
X0005287Y0161929D01*
X0005260Y0161851D01*
X0005229Y0161775D01*
X0005195Y0161701D01*
X0004156Y0162495D02*
X0004158Y0162577D01*
X0004163Y0162659D01*
X0004173Y0162741D01*
X0004186Y0162822D01*
X0004202Y0162903D01*
X0004223Y0162982D01*
X0004247Y0163061D01*
X0004274Y0163139D01*
X0004305Y0163215D01*
X0004339Y0163289D01*
X0004156Y0162495D02*
X0004158Y0162413D01*
X0004163Y0162331D01*
X0004173Y0162249D01*
X0004186Y0162168D01*
X0004202Y0162087D01*
X0004223Y0162008D01*
X0004247Y0161929D01*
X0004274Y0161851D01*
X0004305Y0161775D01*
X0004339Y0161701D01*
X0006316Y0161395D02*
X0007538Y0161395D01*
X0008382Y0161151D02*
X0009360Y0163840D01*
X0010204Y0163106D02*
X0010815Y0163595D01*
X0010815Y0161395D01*
X0010204Y0161395D02*
X0011426Y0161395D01*
X0012608Y0161395D02*
X0012669Y0161397D01*
X0012731Y0161403D01*
X0012791Y0161412D01*
X0012851Y0161426D01*
X0012910Y0161443D01*
X0012968Y0161464D01*
X0013024Y0161488D01*
X0013079Y0161516D01*
X0013132Y0161547D01*
X0013183Y0161582D01*
X0013231Y0161619D01*
X0013277Y0161660D01*
X0013321Y0161704D01*
X0013362Y0161750D01*
X0013399Y0161798D01*
X0013434Y0161849D01*
X0013465Y0161902D01*
X0013493Y0161957D01*
X0013517Y0162013D01*
X0013538Y0162071D01*
X0013555Y0162130D01*
X0013569Y0162190D01*
X0013578Y0162250D01*
X0013584Y0162312D01*
X0013586Y0162373D01*
X0013586Y0162984D01*
X0013586Y0162373D02*
X0012853Y0162373D01*
X0012810Y0162375D01*
X0012768Y0162380D01*
X0012726Y0162390D01*
X0012686Y0162402D01*
X0012646Y0162419D01*
X0012608Y0162439D01*
X0012573Y0162461D01*
X0012539Y0162487D01*
X0012507Y0162516D01*
X0012478Y0162548D01*
X0012452Y0162582D01*
X0012430Y0162618D01*
X0012410Y0162655D01*
X0012393Y0162695D01*
X0012381Y0162735D01*
X0012371Y0162777D01*
X0012366Y0162819D01*
X0012364Y0162862D01*
X0012364Y0162984D01*
X0012366Y0163032D01*
X0012372Y0163080D01*
X0012381Y0163127D01*
X0012394Y0163173D01*
X0012411Y0163218D01*
X0012431Y0163261D01*
X0012454Y0163303D01*
X0012481Y0163343D01*
X0012510Y0163381D01*
X0012543Y0163416D01*
X0012578Y0163449D01*
X0012616Y0163478D01*
X0012656Y0163505D01*
X0012698Y0163528D01*
X0012741Y0163548D01*
X0012786Y0163565D01*
X0012832Y0163578D01*
X0012879Y0163587D01*
X0012927Y0163593D01*
X0012975Y0163595D01*
X0013023Y0163593D01*
X0013071Y0163587D01*
X0013118Y0163578D01*
X0013164Y0163565D01*
X0013209Y0163548D01*
X0013252Y0163528D01*
X0013294Y0163505D01*
X0013334Y0163478D01*
X0013372Y0163449D01*
X0013407Y0163416D01*
X0013440Y0163381D01*
X0013469Y0163343D01*
X0013496Y0163303D01*
X0013519Y0163261D01*
X0013539Y0163218D01*
X0013556Y0163173D01*
X0013569Y0163127D01*
X0013578Y0163080D01*
X0013584Y0163032D01*
X0013586Y0162984D01*
X0015408Y0163840D02*
X0014430Y0161151D01*
X0016252Y0161395D02*
X0017474Y0161395D01*
X0019451Y0161701D02*
X0019485Y0161775D01*
X0019516Y0161851D01*
X0019543Y0161929D01*
X0019567Y0162008D01*
X0019588Y0162087D01*
X0019604Y0162168D01*
X0019617Y0162249D01*
X0019627Y0162331D01*
X0019632Y0162413D01*
X0019634Y0162495D01*
X0018412Y0162495D02*
X0018414Y0162577D01*
X0018419Y0162659D01*
X0018429Y0162741D01*
X0018442Y0162822D01*
X0018458Y0162903D01*
X0018479Y0162982D01*
X0018503Y0163061D01*
X0018530Y0163139D01*
X0018561Y0163215D01*
X0018595Y0163289D01*
X0019023Y0163595D02*
X0019063Y0163593D01*
X0019103Y0163588D01*
X0019142Y0163579D01*
X0019180Y0163567D01*
X0019217Y0163551D01*
X0019252Y0163533D01*
X0019286Y0163511D01*
X0019317Y0163486D01*
X0019346Y0163459D01*
X0019373Y0163429D01*
X0019397Y0163397D01*
X0019418Y0163363D01*
X0019436Y0163327D01*
X0019451Y0163290D01*
X0019512Y0163106D02*
X0018534Y0161884D01*
X0019023Y0161395D02*
X0019063Y0161397D01*
X0019103Y0161402D01*
X0019142Y0161411D01*
X0019180Y0161423D01*
X0019217Y0161439D01*
X0019252Y0161457D01*
X0019286Y0161479D01*
X0019317Y0161504D01*
X0019346Y0161531D01*
X0019373Y0161561D01*
X0019397Y0161593D01*
X0019418Y0161627D01*
X0019436Y0161663D01*
X0019451Y0161700D01*
X0019023Y0161396D02*
X0018983Y0161398D01*
X0018943Y0161403D01*
X0018904Y0161412D01*
X0018866Y0161424D01*
X0018829Y0161440D01*
X0018794Y0161458D01*
X0018760Y0161480D01*
X0018729Y0161505D01*
X0018700Y0161532D01*
X0018673Y0161562D01*
X0018649Y0161594D01*
X0018628Y0161628D01*
X0018610Y0161664D01*
X0018595Y0161701D01*
X0019634Y0162495D02*
X0019632Y0162577D01*
X0019627Y0162659D01*
X0019617Y0162741D01*
X0019604Y0162822D01*
X0019588Y0162903D01*
X0019567Y0162982D01*
X0019543Y0163061D01*
X0019516Y0163139D01*
X0019485Y0163215D01*
X0019451Y0163289D01*
X0019023Y0163595D02*
X0018983Y0163593D01*
X0018943Y0163588D01*
X0018904Y0163579D01*
X0018866Y0163567D01*
X0018829Y0163551D01*
X0018794Y0163533D01*
X0018760Y0163511D01*
X0018729Y0163486D01*
X0018700Y0163459D01*
X0018673Y0163429D01*
X0018649Y0163397D01*
X0018628Y0163363D01*
X0018610Y0163327D01*
X0018595Y0163290D01*
X0017291Y0162617D02*
X0016252Y0161395D01*
X0016251Y0163107D02*
X0016269Y0163156D01*
X0016291Y0163204D01*
X0016316Y0163250D01*
X0016344Y0163293D01*
X0016376Y0163335D01*
X0016410Y0163375D01*
X0016447Y0163411D01*
X0016487Y0163445D01*
X0016530Y0163476D01*
X0016574Y0163503D01*
X0016620Y0163527D01*
X0016668Y0163548D01*
X0016718Y0163565D01*
X0016768Y0163579D01*
X0016820Y0163588D01*
X0016872Y0163594D01*
X0016924Y0163596D01*
X0016924Y0163595D02*
X0016969Y0163593D01*
X0017015Y0163587D01*
X0017059Y0163578D01*
X0017103Y0163565D01*
X0017145Y0163549D01*
X0017186Y0163529D01*
X0017225Y0163505D01*
X0017262Y0163479D01*
X0017297Y0163450D01*
X0017329Y0163418D01*
X0017358Y0163383D01*
X0017384Y0163346D01*
X0017408Y0163307D01*
X0017428Y0163266D01*
X0017444Y0163224D01*
X0017457Y0163180D01*
X0017466Y0163136D01*
X0017472Y0163090D01*
X0017474Y0163045D01*
X0017472Y0162997D01*
X0017466Y0162950D01*
X0017457Y0162903D01*
X0017443Y0162857D01*
X0017426Y0162812D01*
X0017406Y0162769D01*
X0017382Y0162728D01*
X0017354Y0162688D01*
X0017324Y0162651D01*
X0017291Y0162617D01*
X0018412Y0162495D02*
X0018414Y0162413D01*
X0018419Y0162331D01*
X0018429Y0162249D01*
X0018442Y0162168D01*
X0018458Y0162087D01*
X0018479Y0162008D01*
X0018503Y0161929D01*
X0018530Y0161851D01*
X0018561Y0161775D01*
X0018595Y0161701D01*
X0020572Y0161395D02*
X0021794Y0161395D01*
X0021183Y0161395D02*
X0021183Y0163595D01*
X0020572Y0163106D01*
X0022854Y0163106D02*
X0022856Y0163063D01*
X0022861Y0163021D01*
X0022871Y0162979D01*
X0022883Y0162939D01*
X0022900Y0162899D01*
X0022920Y0162862D01*
X0022942Y0162826D01*
X0022968Y0162792D01*
X0022997Y0162760D01*
X0023029Y0162731D01*
X0023063Y0162705D01*
X0023099Y0162683D01*
X0023136Y0162663D01*
X0023176Y0162646D01*
X0023216Y0162634D01*
X0023258Y0162624D01*
X0023300Y0162619D01*
X0023343Y0162617D01*
X0023386Y0162619D01*
X0023428Y0162624D01*
X0023470Y0162634D01*
X0023510Y0162646D01*
X0023550Y0162663D01*
X0023588Y0162683D01*
X0023623Y0162705D01*
X0023657Y0162731D01*
X0023689Y0162760D01*
X0023718Y0162792D01*
X0023744Y0162826D01*
X0023766Y0162862D01*
X0023786Y0162899D01*
X0023803Y0162939D01*
X0023815Y0162979D01*
X0023825Y0163021D01*
X0023830Y0163063D01*
X0023832Y0163106D01*
X0023830Y0163149D01*
X0023825Y0163191D01*
X0023815Y0163233D01*
X0023803Y0163273D01*
X0023786Y0163313D01*
X0023766Y0163351D01*
X0023744Y0163386D01*
X0023718Y0163420D01*
X0023689Y0163452D01*
X0023657Y0163481D01*
X0023623Y0163507D01*
X0023588Y0163529D01*
X0023550Y0163549D01*
X0023510Y0163566D01*
X0023470Y0163578D01*
X0023428Y0163588D01*
X0023386Y0163593D01*
X0023343Y0163595D01*
X0023300Y0163593D01*
X0023258Y0163588D01*
X0023216Y0163578D01*
X0023176Y0163566D01*
X0023136Y0163549D01*
X0023099Y0163529D01*
X0023063Y0163507D01*
X0023029Y0163481D01*
X0022997Y0163452D01*
X0022968Y0163420D01*
X0022942Y0163386D01*
X0022920Y0163351D01*
X0022900Y0163313D01*
X0022883Y0163273D01*
X0022871Y0163233D01*
X0022861Y0163191D01*
X0022856Y0163149D01*
X0022854Y0163106D01*
X0022732Y0162006D02*
X0022734Y0161958D01*
X0022740Y0161910D01*
X0022749Y0161863D01*
X0022762Y0161817D01*
X0022779Y0161772D01*
X0022799Y0161729D01*
X0022822Y0161687D01*
X0022849Y0161647D01*
X0022878Y0161609D01*
X0022911Y0161574D01*
X0022946Y0161541D01*
X0022984Y0161512D01*
X0023024Y0161485D01*
X0023066Y0161462D01*
X0023109Y0161442D01*
X0023154Y0161425D01*
X0023200Y0161412D01*
X0023247Y0161403D01*
X0023295Y0161397D01*
X0023343Y0161395D01*
X0023391Y0161397D01*
X0023439Y0161403D01*
X0023486Y0161412D01*
X0023532Y0161425D01*
X0023577Y0161442D01*
X0023620Y0161462D01*
X0023662Y0161485D01*
X0023702Y0161512D01*
X0023740Y0161541D01*
X0023775Y0161574D01*
X0023808Y0161609D01*
X0023837Y0161647D01*
X0023864Y0161687D01*
X0023887Y0161729D01*
X0023907Y0161772D01*
X0023924Y0161817D01*
X0023937Y0161863D01*
X0023946Y0161910D01*
X0023952Y0161958D01*
X0023954Y0162006D01*
X0023952Y0162054D01*
X0023946Y0162102D01*
X0023937Y0162149D01*
X0023924Y0162195D01*
X0023907Y0162240D01*
X0023887Y0162283D01*
X0023864Y0162325D01*
X0023837Y0162365D01*
X0023808Y0162403D01*
X0023775Y0162438D01*
X0023740Y0162471D01*
X0023702Y0162500D01*
X0023662Y0162527D01*
X0023620Y0162550D01*
X0023577Y0162570D01*
X0023532Y0162587D01*
X0023486Y0162600D01*
X0023439Y0162609D01*
X0023391Y0162615D01*
X0023343Y0162617D01*
X0023295Y0162615D01*
X0023247Y0162609D01*
X0023200Y0162600D01*
X0023154Y0162587D01*
X0023109Y0162570D01*
X0023066Y0162550D01*
X0023024Y0162527D01*
X0022984Y0162500D01*
X0022946Y0162471D01*
X0022911Y0162438D01*
X0022878Y0162403D01*
X0022849Y0162365D01*
X0022822Y0162325D01*
X0022799Y0162283D01*
X0022779Y0162240D01*
X0022762Y0162195D01*
X0022749Y0162149D01*
X0022740Y0162102D01*
X0022734Y0162054D01*
X0022732Y0162006D01*
X0024498Y0165301D02*
X0024532Y0165375D01*
X0024563Y0165451D01*
X0024590Y0165529D01*
X0024614Y0165608D01*
X0024635Y0165687D01*
X0024651Y0165768D01*
X0024664Y0165849D01*
X0024674Y0165931D01*
X0024679Y0166013D01*
X0024681Y0166095D01*
X0023458Y0166095D02*
X0023460Y0166177D01*
X0023465Y0166259D01*
X0023475Y0166341D01*
X0023488Y0166422D01*
X0023504Y0166503D01*
X0023525Y0166582D01*
X0023549Y0166661D01*
X0023576Y0166739D01*
X0023607Y0166815D01*
X0023641Y0166889D01*
X0024070Y0167195D02*
X0024110Y0167193D01*
X0024150Y0167188D01*
X0024189Y0167179D01*
X0024227Y0167167D01*
X0024264Y0167151D01*
X0024299Y0167133D01*
X0024333Y0167111D01*
X0024364Y0167086D01*
X0024393Y0167059D01*
X0024420Y0167029D01*
X0024444Y0166997D01*
X0024465Y0166963D01*
X0024483Y0166927D01*
X0024498Y0166890D01*
X0024070Y0167195D02*
X0024030Y0167193D01*
X0023990Y0167188D01*
X0023951Y0167179D01*
X0023913Y0167167D01*
X0023876Y0167151D01*
X0023841Y0167133D01*
X0023807Y0167111D01*
X0023776Y0167086D01*
X0023747Y0167059D01*
X0023720Y0167029D01*
X0023696Y0166997D01*
X0023675Y0166963D01*
X0023657Y0166927D01*
X0023642Y0166890D01*
X0007355Y0162617D02*
X0006316Y0161395D01*
X0006315Y0163107D02*
X0006333Y0163156D01*
X0006355Y0163204D01*
X0006380Y0163250D01*
X0006408Y0163293D01*
X0006440Y0163335D01*
X0006474Y0163375D01*
X0006511Y0163411D01*
X0006551Y0163445D01*
X0006594Y0163476D01*
X0006638Y0163503D01*
X0006684Y0163527D01*
X0006732Y0163548D01*
X0006782Y0163565D01*
X0006832Y0163579D01*
X0006884Y0163588D01*
X0006936Y0163594D01*
X0006988Y0163596D01*
X0006988Y0163595D02*
X0007033Y0163593D01*
X0007079Y0163587D01*
X0007123Y0163578D01*
X0007167Y0163565D01*
X0007209Y0163549D01*
X0007250Y0163529D01*
X0007289Y0163505D01*
X0007326Y0163479D01*
X0007361Y0163450D01*
X0007393Y0163418D01*
X0007422Y0163383D01*
X0007448Y0163346D01*
X0007472Y0163307D01*
X0007492Y0163266D01*
X0007508Y0163224D01*
X0007521Y0163180D01*
X0007530Y0163136D01*
X0007536Y0163090D01*
X0007538Y0163045D01*
X0007536Y0162997D01*
X0007530Y0162950D01*
X0007521Y0162903D01*
X0007507Y0162857D01*
X0007490Y0162812D01*
X0007470Y0162769D01*
X0007446Y0162728D01*
X0007418Y0162688D01*
X0007388Y0162651D01*
X0007355Y0162617D01*
D12*
X0025985Y0143303D02*
X0025985Y0140941D01*
X0030709Y0140941D02*
X0030709Y0143303D01*
X0042520Y0136177D02*
X0042520Y0133815D01*
X0047245Y0133815D02*
X0047245Y0136177D01*
X0047127Y0118500D02*
X0044765Y0118500D01*
X0044765Y0113776D02*
X0047127Y0113776D01*
X0049568Y0107476D02*
X0051930Y0107476D01*
X0051930Y0102752D02*
X0049568Y0102752D01*
X0049883Y0099406D02*
X0052245Y0099406D01*
X0052245Y0094681D02*
X0049883Y0094681D01*
X0045513Y0086807D02*
X0043150Y0086807D01*
X0043150Y0082083D02*
X0045513Y0082083D01*
X0027402Y0090508D02*
X0025040Y0090508D01*
X0025040Y0095232D02*
X0027402Y0095232D01*
X0020080Y0101768D02*
X0017717Y0101768D01*
X0017717Y0106492D02*
X0020080Y0106492D01*
X0013190Y0113461D02*
X0013190Y0115823D01*
X0008465Y0115823D02*
X0008465Y0113461D01*
X0008702Y0130665D02*
X0008702Y0133028D01*
X0013426Y0133028D02*
X0013426Y0130665D01*
X0011733Y0081059D02*
X0009371Y0081059D01*
X0009371Y0076335D02*
X0011733Y0076335D01*
X0053820Y0061374D02*
X0056182Y0061374D01*
X0056182Y0056650D02*
X0053820Y0056650D01*
X0065946Y0056020D02*
X0065946Y0053657D01*
X0070670Y0053657D02*
X0070670Y0056020D01*
X0076128Y0065532D02*
X0079228Y0065532D01*
X0076128Y0065532D02*
X0076128Y0068632D01*
X0082928Y0058932D02*
X0082928Y0055032D01*
X0089450Y0048224D02*
X0091812Y0048224D01*
X0091812Y0043500D02*
X0089450Y0043500D01*
X0102481Y0032870D02*
X0104843Y0032870D01*
X0104843Y0028146D02*
X0102481Y0028146D01*
X0102528Y0054832D02*
X0102528Y0058932D01*
X0111928Y0066932D02*
X0114128Y0069132D01*
X0115528Y0068632D02*
X0115528Y0065532D01*
X0112428Y0065532D01*
X0122028Y0088232D02*
X0126028Y0088232D01*
X0134646Y0089248D02*
X0134646Y0086886D01*
X0139371Y0086886D02*
X0139371Y0089248D01*
X0137835Y0098185D02*
X0135473Y0098185D01*
X0135473Y0102909D02*
X0137835Y0102909D01*
X0144804Y0106295D02*
X0147166Y0106295D01*
X0147166Y0111020D02*
X0144804Y0111020D01*
X0154725Y0100311D02*
X0154725Y0097949D01*
X0159450Y0097949D02*
X0159450Y0100311D01*
X0138269Y0066689D02*
X0135906Y0066689D01*
X0135906Y0061965D02*
X0138269Y0061965D01*
X0152206Y0048028D02*
X0154568Y0048028D01*
X0154568Y0043303D02*
X0152206Y0043303D01*
X0151103Y0038579D02*
X0148741Y0038579D01*
X0148741Y0033854D02*
X0151103Y0033854D01*
X0138150Y0031256D02*
X0135788Y0031256D01*
X0135788Y0026531D02*
X0138150Y0026531D01*
X0115528Y0101832D02*
X0115528Y0104932D01*
X0112428Y0104932D01*
X0104728Y0111532D02*
X0104728Y0115432D01*
X0085028Y0115532D02*
X0085028Y0111532D01*
X0079228Y0104932D02*
X0076128Y0104932D01*
X0076128Y0101832D01*
X0070276Y0116846D02*
X0070276Y0119209D01*
X0065552Y0119209D02*
X0065552Y0116846D01*
X0065628Y0086232D02*
X0069528Y0086232D01*
D13*
X0038898Y0108933D02*
X0037087Y0108933D01*
X0038008Y0107713D01*
X0037087Y0108933D02*
X0035276Y0108933D01*
X0036228Y0107713D02*
X0036987Y0108872D01*
X0029292Y0119097D02*
X0028132Y0119857D01*
X0028072Y0119957D02*
X0029292Y0120877D01*
X0028072Y0121768D02*
X0028072Y0119957D01*
X0028072Y0118146D01*
X0027678Y0128264D02*
X0027678Y0130075D01*
X0028898Y0130995D01*
X0027678Y0131886D02*
X0027678Y0130075D01*
X0027739Y0129975D02*
X0028898Y0129215D01*
X0012639Y0145941D02*
X0010828Y0145941D01*
X0009907Y0147161D01*
X0009017Y0145941D02*
X0010828Y0145941D01*
X0010928Y0146002D02*
X0011687Y0147161D01*
X0027560Y0156157D02*
X0027560Y0161157D01*
X0030060Y0163657D01*
X0035060Y0163657D01*
X0037560Y0161157D01*
X0040060Y0163657D01*
X0045060Y0163657D01*
X0047560Y0161157D01*
X0050060Y0163657D01*
X0055060Y0163657D01*
X0057560Y0161157D01*
X0057560Y0156157D01*
X0055060Y0153657D01*
X0050060Y0153657D01*
X0047560Y0156157D01*
X0045060Y0153657D01*
X0040060Y0153657D01*
X0037560Y0156157D01*
X0035060Y0153657D01*
X0030060Y0153657D01*
X0027560Y0156157D01*
X0029942Y0164287D02*
X0027442Y0166787D01*
X0027442Y0171787D01*
X0029942Y0174287D01*
X0034942Y0174287D01*
X0037442Y0171787D01*
X0039942Y0174287D01*
X0044942Y0174287D01*
X0047442Y0171787D01*
X0049942Y0174287D01*
X0054942Y0174287D01*
X0057442Y0171787D01*
X0057442Y0166787D01*
X0054942Y0164287D01*
X0049942Y0164287D01*
X0047442Y0166787D01*
X0044942Y0164287D01*
X0039942Y0164287D01*
X0037442Y0166787D01*
X0034942Y0164287D01*
X0029942Y0164287D01*
X0114548Y0055941D02*
X0112048Y0053441D01*
X0112048Y0048441D01*
X0114548Y0045941D01*
X0119548Y0045941D01*
X0122048Y0048441D01*
X0124548Y0045941D01*
X0129548Y0045941D01*
X0132048Y0048441D01*
X0134548Y0045941D01*
X0139548Y0045941D01*
X0142048Y0048441D01*
X0142048Y0053441D01*
X0139548Y0055941D01*
X0134548Y0055941D01*
X0132048Y0053441D01*
X0129548Y0055941D01*
X0124548Y0055941D01*
X0122048Y0053441D01*
X0119548Y0055941D01*
X0114548Y0055941D01*
X0114666Y0044760D02*
X0119666Y0044760D01*
X0122166Y0042260D01*
X0124666Y0044760D01*
X0129666Y0044760D01*
X0132166Y0042260D01*
X0134666Y0044760D01*
X0139666Y0044760D01*
X0142166Y0042260D01*
X0142166Y0037260D01*
X0139666Y0034760D01*
X0134666Y0034760D01*
X0132166Y0037260D01*
X0129666Y0034760D01*
X0124666Y0034760D01*
X0122166Y0037260D01*
X0119666Y0034760D01*
X0114666Y0034760D01*
X0112166Y0037260D01*
X0112166Y0042260D01*
X0114666Y0044760D01*
D14*
X0068465Y0032752D02*
X0068468Y0032997D01*
X0068477Y0033243D01*
X0068492Y0033488D01*
X0068513Y0033732D01*
X0068540Y0033976D01*
X0068573Y0034219D01*
X0068612Y0034462D01*
X0068657Y0034703D01*
X0068708Y0034943D01*
X0068765Y0035182D01*
X0068827Y0035419D01*
X0068896Y0035655D01*
X0068970Y0035889D01*
X0069050Y0036121D01*
X0069135Y0036351D01*
X0069226Y0036579D01*
X0069323Y0036804D01*
X0069425Y0037028D01*
X0069533Y0037248D01*
X0069646Y0037466D01*
X0069764Y0037681D01*
X0069888Y0037893D01*
X0070016Y0038102D01*
X0070150Y0038308D01*
X0070289Y0038510D01*
X0070433Y0038709D01*
X0070582Y0038904D01*
X0070735Y0039096D01*
X0070893Y0039284D01*
X0071055Y0039468D01*
X0071223Y0039647D01*
X0071394Y0039823D01*
X0071570Y0039994D01*
X0071749Y0040162D01*
X0071933Y0040324D01*
X0072121Y0040482D01*
X0072313Y0040635D01*
X0072508Y0040784D01*
X0072707Y0040928D01*
X0072909Y0041067D01*
X0073115Y0041201D01*
X0073324Y0041329D01*
X0073536Y0041453D01*
X0073751Y0041571D01*
X0073969Y0041684D01*
X0074189Y0041792D01*
X0074413Y0041894D01*
X0074638Y0041991D01*
X0074866Y0042082D01*
X0075096Y0042167D01*
X0075328Y0042247D01*
X0075562Y0042321D01*
X0075798Y0042390D01*
X0076035Y0042452D01*
X0076274Y0042509D01*
X0076514Y0042560D01*
X0076755Y0042605D01*
X0076998Y0042644D01*
X0077241Y0042677D01*
X0077485Y0042704D01*
X0077729Y0042725D01*
X0077974Y0042740D01*
X0078220Y0042749D01*
X0078465Y0042752D01*
X0078710Y0042749D01*
X0078956Y0042740D01*
X0079201Y0042725D01*
X0079445Y0042704D01*
X0079689Y0042677D01*
X0079932Y0042644D01*
X0080175Y0042605D01*
X0080416Y0042560D01*
X0080656Y0042509D01*
X0080895Y0042452D01*
X0081132Y0042390D01*
X0081368Y0042321D01*
X0081602Y0042247D01*
X0081834Y0042167D01*
X0082064Y0042082D01*
X0082292Y0041991D01*
X0082517Y0041894D01*
X0082741Y0041792D01*
X0082961Y0041684D01*
X0083179Y0041571D01*
X0083394Y0041453D01*
X0083606Y0041329D01*
X0083815Y0041201D01*
X0084021Y0041067D01*
X0084223Y0040928D01*
X0084422Y0040784D01*
X0084617Y0040635D01*
X0084809Y0040482D01*
X0084997Y0040324D01*
X0085181Y0040162D01*
X0085360Y0039994D01*
X0085536Y0039823D01*
X0085707Y0039647D01*
X0085875Y0039468D01*
X0086037Y0039284D01*
X0086195Y0039096D01*
X0086348Y0038904D01*
X0086497Y0038709D01*
X0086641Y0038510D01*
X0086780Y0038308D01*
X0086914Y0038102D01*
X0087042Y0037893D01*
X0087166Y0037681D01*
X0087284Y0037466D01*
X0087397Y0037248D01*
X0087505Y0037028D01*
X0087607Y0036804D01*
X0087704Y0036579D01*
X0087795Y0036351D01*
X0087880Y0036121D01*
X0087960Y0035889D01*
X0088034Y0035655D01*
X0088103Y0035419D01*
X0088165Y0035182D01*
X0088222Y0034943D01*
X0088273Y0034703D01*
X0088318Y0034462D01*
X0088357Y0034219D01*
X0088390Y0033976D01*
X0088417Y0033732D01*
X0088438Y0033488D01*
X0088453Y0033243D01*
X0088462Y0032997D01*
X0088465Y0032752D01*
X0088462Y0032507D01*
X0088453Y0032261D01*
X0088438Y0032016D01*
X0088417Y0031772D01*
X0088390Y0031528D01*
X0088357Y0031285D01*
X0088318Y0031042D01*
X0088273Y0030801D01*
X0088222Y0030561D01*
X0088165Y0030322D01*
X0088103Y0030085D01*
X0088034Y0029849D01*
X0087960Y0029615D01*
X0087880Y0029383D01*
X0087795Y0029153D01*
X0087704Y0028925D01*
X0087607Y0028700D01*
X0087505Y0028476D01*
X0087397Y0028256D01*
X0087284Y0028038D01*
X0087166Y0027823D01*
X0087042Y0027611D01*
X0086914Y0027402D01*
X0086780Y0027196D01*
X0086641Y0026994D01*
X0086497Y0026795D01*
X0086348Y0026600D01*
X0086195Y0026408D01*
X0086037Y0026220D01*
X0085875Y0026036D01*
X0085707Y0025857D01*
X0085536Y0025681D01*
X0085360Y0025510D01*
X0085181Y0025342D01*
X0084997Y0025180D01*
X0084809Y0025022D01*
X0084617Y0024869D01*
X0084422Y0024720D01*
X0084223Y0024576D01*
X0084021Y0024437D01*
X0083815Y0024303D01*
X0083606Y0024175D01*
X0083394Y0024051D01*
X0083179Y0023933D01*
X0082961Y0023820D01*
X0082741Y0023712D01*
X0082517Y0023610D01*
X0082292Y0023513D01*
X0082064Y0023422D01*
X0081834Y0023337D01*
X0081602Y0023257D01*
X0081368Y0023183D01*
X0081132Y0023114D01*
X0080895Y0023052D01*
X0080656Y0022995D01*
X0080416Y0022944D01*
X0080175Y0022899D01*
X0079932Y0022860D01*
X0079689Y0022827D01*
X0079445Y0022800D01*
X0079201Y0022779D01*
X0078956Y0022764D01*
X0078710Y0022755D01*
X0078465Y0022752D01*
X0078220Y0022755D01*
X0077974Y0022764D01*
X0077729Y0022779D01*
X0077485Y0022800D01*
X0077241Y0022827D01*
X0076998Y0022860D01*
X0076755Y0022899D01*
X0076514Y0022944D01*
X0076274Y0022995D01*
X0076035Y0023052D01*
X0075798Y0023114D01*
X0075562Y0023183D01*
X0075328Y0023257D01*
X0075096Y0023337D01*
X0074866Y0023422D01*
X0074638Y0023513D01*
X0074413Y0023610D01*
X0074189Y0023712D01*
X0073969Y0023820D01*
X0073751Y0023933D01*
X0073536Y0024051D01*
X0073324Y0024175D01*
X0073115Y0024303D01*
X0072909Y0024437D01*
X0072707Y0024576D01*
X0072508Y0024720D01*
X0072313Y0024869D01*
X0072121Y0025022D01*
X0071933Y0025180D01*
X0071749Y0025342D01*
X0071570Y0025510D01*
X0071394Y0025681D01*
X0071223Y0025857D01*
X0071055Y0026036D01*
X0070893Y0026220D01*
X0070735Y0026408D01*
X0070582Y0026600D01*
X0070433Y0026795D01*
X0070289Y0026994D01*
X0070150Y0027196D01*
X0070016Y0027402D01*
X0069888Y0027611D01*
X0069764Y0027823D01*
X0069646Y0028038D01*
X0069533Y0028256D01*
X0069425Y0028476D01*
X0069323Y0028700D01*
X0069226Y0028925D01*
X0069135Y0029153D01*
X0069050Y0029383D01*
X0068970Y0029615D01*
X0068896Y0029849D01*
X0068827Y0030085D01*
X0068765Y0030322D01*
X0068708Y0030561D01*
X0068657Y0030801D01*
X0068612Y0031042D01*
X0068573Y0031285D01*
X0068540Y0031528D01*
X0068513Y0031772D01*
X0068492Y0032016D01*
X0068477Y0032261D01*
X0068468Y0032507D01*
X0068465Y0032752D01*
X0147009Y0072161D02*
X0147012Y0072406D01*
X0147021Y0072652D01*
X0147036Y0072897D01*
X0147057Y0073141D01*
X0147084Y0073385D01*
X0147117Y0073628D01*
X0147156Y0073871D01*
X0147201Y0074112D01*
X0147252Y0074352D01*
X0147309Y0074591D01*
X0147371Y0074828D01*
X0147440Y0075064D01*
X0147514Y0075298D01*
X0147594Y0075530D01*
X0147679Y0075760D01*
X0147770Y0075988D01*
X0147867Y0076213D01*
X0147969Y0076437D01*
X0148077Y0076657D01*
X0148190Y0076875D01*
X0148308Y0077090D01*
X0148432Y0077302D01*
X0148560Y0077511D01*
X0148694Y0077717D01*
X0148833Y0077919D01*
X0148977Y0078118D01*
X0149126Y0078313D01*
X0149279Y0078505D01*
X0149437Y0078693D01*
X0149599Y0078877D01*
X0149767Y0079056D01*
X0149938Y0079232D01*
X0150114Y0079403D01*
X0150293Y0079571D01*
X0150477Y0079733D01*
X0150665Y0079891D01*
X0150857Y0080044D01*
X0151052Y0080193D01*
X0151251Y0080337D01*
X0151453Y0080476D01*
X0151659Y0080610D01*
X0151868Y0080738D01*
X0152080Y0080862D01*
X0152295Y0080980D01*
X0152513Y0081093D01*
X0152733Y0081201D01*
X0152957Y0081303D01*
X0153182Y0081400D01*
X0153410Y0081491D01*
X0153640Y0081576D01*
X0153872Y0081656D01*
X0154106Y0081730D01*
X0154342Y0081799D01*
X0154579Y0081861D01*
X0154818Y0081918D01*
X0155058Y0081969D01*
X0155299Y0082014D01*
X0155542Y0082053D01*
X0155785Y0082086D01*
X0156029Y0082113D01*
X0156273Y0082134D01*
X0156518Y0082149D01*
X0156764Y0082158D01*
X0157009Y0082161D01*
X0157254Y0082158D01*
X0157500Y0082149D01*
X0157745Y0082134D01*
X0157989Y0082113D01*
X0158233Y0082086D01*
X0158476Y0082053D01*
X0158719Y0082014D01*
X0158960Y0081969D01*
X0159200Y0081918D01*
X0159439Y0081861D01*
X0159676Y0081799D01*
X0159912Y0081730D01*
X0160146Y0081656D01*
X0160378Y0081576D01*
X0160608Y0081491D01*
X0160836Y0081400D01*
X0161061Y0081303D01*
X0161285Y0081201D01*
X0161505Y0081093D01*
X0161723Y0080980D01*
X0161938Y0080862D01*
X0162150Y0080738D01*
X0162359Y0080610D01*
X0162565Y0080476D01*
X0162767Y0080337D01*
X0162966Y0080193D01*
X0163161Y0080044D01*
X0163353Y0079891D01*
X0163541Y0079733D01*
X0163725Y0079571D01*
X0163904Y0079403D01*
X0164080Y0079232D01*
X0164251Y0079056D01*
X0164419Y0078877D01*
X0164581Y0078693D01*
X0164739Y0078505D01*
X0164892Y0078313D01*
X0165041Y0078118D01*
X0165185Y0077919D01*
X0165324Y0077717D01*
X0165458Y0077511D01*
X0165586Y0077302D01*
X0165710Y0077090D01*
X0165828Y0076875D01*
X0165941Y0076657D01*
X0166049Y0076437D01*
X0166151Y0076213D01*
X0166248Y0075988D01*
X0166339Y0075760D01*
X0166424Y0075530D01*
X0166504Y0075298D01*
X0166578Y0075064D01*
X0166647Y0074828D01*
X0166709Y0074591D01*
X0166766Y0074352D01*
X0166817Y0074112D01*
X0166862Y0073871D01*
X0166901Y0073628D01*
X0166934Y0073385D01*
X0166961Y0073141D01*
X0166982Y0072897D01*
X0166997Y0072652D01*
X0167006Y0072406D01*
X0167009Y0072161D01*
X0167006Y0071916D01*
X0166997Y0071670D01*
X0166982Y0071425D01*
X0166961Y0071181D01*
X0166934Y0070937D01*
X0166901Y0070694D01*
X0166862Y0070451D01*
X0166817Y0070210D01*
X0166766Y0069970D01*
X0166709Y0069731D01*
X0166647Y0069494D01*
X0166578Y0069258D01*
X0166504Y0069024D01*
X0166424Y0068792D01*
X0166339Y0068562D01*
X0166248Y0068334D01*
X0166151Y0068109D01*
X0166049Y0067885D01*
X0165941Y0067665D01*
X0165828Y0067447D01*
X0165710Y0067232D01*
X0165586Y0067020D01*
X0165458Y0066811D01*
X0165324Y0066605D01*
X0165185Y0066403D01*
X0165041Y0066204D01*
X0164892Y0066009D01*
X0164739Y0065817D01*
X0164581Y0065629D01*
X0164419Y0065445D01*
X0164251Y0065266D01*
X0164080Y0065090D01*
X0163904Y0064919D01*
X0163725Y0064751D01*
X0163541Y0064589D01*
X0163353Y0064431D01*
X0163161Y0064278D01*
X0162966Y0064129D01*
X0162767Y0063985D01*
X0162565Y0063846D01*
X0162359Y0063712D01*
X0162150Y0063584D01*
X0161938Y0063460D01*
X0161723Y0063342D01*
X0161505Y0063229D01*
X0161285Y0063121D01*
X0161061Y0063019D01*
X0160836Y0062922D01*
X0160608Y0062831D01*
X0160378Y0062746D01*
X0160146Y0062666D01*
X0159912Y0062592D01*
X0159676Y0062523D01*
X0159439Y0062461D01*
X0159200Y0062404D01*
X0158960Y0062353D01*
X0158719Y0062308D01*
X0158476Y0062269D01*
X0158233Y0062236D01*
X0157989Y0062209D01*
X0157745Y0062188D01*
X0157500Y0062173D01*
X0157254Y0062164D01*
X0157009Y0062161D01*
X0156764Y0062164D01*
X0156518Y0062173D01*
X0156273Y0062188D01*
X0156029Y0062209D01*
X0155785Y0062236D01*
X0155542Y0062269D01*
X0155299Y0062308D01*
X0155058Y0062353D01*
X0154818Y0062404D01*
X0154579Y0062461D01*
X0154342Y0062523D01*
X0154106Y0062592D01*
X0153872Y0062666D01*
X0153640Y0062746D01*
X0153410Y0062831D01*
X0153182Y0062922D01*
X0152957Y0063019D01*
X0152733Y0063121D01*
X0152513Y0063229D01*
X0152295Y0063342D01*
X0152080Y0063460D01*
X0151868Y0063584D01*
X0151659Y0063712D01*
X0151453Y0063846D01*
X0151251Y0063985D01*
X0151052Y0064129D01*
X0150857Y0064278D01*
X0150665Y0064431D01*
X0150477Y0064589D01*
X0150293Y0064751D01*
X0150114Y0064919D01*
X0149938Y0065090D01*
X0149767Y0065266D01*
X0149599Y0065445D01*
X0149437Y0065629D01*
X0149279Y0065817D01*
X0149126Y0066009D01*
X0148977Y0066204D01*
X0148833Y0066403D01*
X0148694Y0066605D01*
X0148560Y0066811D01*
X0148432Y0067020D01*
X0148308Y0067232D01*
X0148190Y0067447D01*
X0148077Y0067665D01*
X0147969Y0067885D01*
X0147867Y0068109D01*
X0147770Y0068334D01*
X0147679Y0068562D01*
X0147594Y0068792D01*
X0147514Y0069024D01*
X0147440Y0069258D01*
X0147371Y0069494D01*
X0147309Y0069731D01*
X0147252Y0069970D01*
X0147201Y0070210D01*
X0147156Y0070451D01*
X0147117Y0070694D01*
X0147084Y0070937D01*
X0147057Y0071181D01*
X0147036Y0071425D01*
X0147021Y0071670D01*
X0147012Y0071916D01*
X0147009Y0072161D01*
D15*
X0047678Y0049012D02*
X0047678Y0025390D01*
X0061457Y0025390D01*
X0061457Y0049012D01*
X0047678Y0049012D01*
D16*
X0072053Y0123712D02*
X0071964Y0149303D01*
X0085743Y0149351D01*
X0085833Y0123760D01*
X0072053Y0123712D01*
X0066281Y0154610D02*
X0066283Y0154728D01*
X0066289Y0154846D01*
X0066299Y0154964D01*
X0066313Y0155081D01*
X0066331Y0155198D01*
X0066353Y0155314D01*
X0066378Y0155430D01*
X0066408Y0155544D01*
X0066441Y0155657D01*
X0066479Y0155770D01*
X0066520Y0155880D01*
X0066565Y0155990D01*
X0066613Y0156098D01*
X0066665Y0156204D01*
X0066721Y0156308D01*
X0066780Y0156410D01*
X0066842Y0156511D01*
X0066908Y0156609D01*
X0066977Y0156705D01*
X0067050Y0156798D01*
X0067125Y0156889D01*
X0067204Y0156978D01*
X0067285Y0157063D01*
X0067369Y0157146D01*
X0067456Y0157226D01*
X0067546Y0157303D01*
X0067638Y0157377D01*
X0067733Y0157448D01*
X0067830Y0157515D01*
X0067929Y0157579D01*
X0068030Y0157640D01*
X0068134Y0157698D01*
X0068239Y0157751D01*
X0068346Y0157802D01*
X0068455Y0157848D01*
X0068565Y0157891D01*
X0068676Y0157930D01*
X0068789Y0157966D01*
X0068903Y0157997D01*
X0069018Y0158025D01*
X0069134Y0158049D01*
X0069250Y0158069D01*
X0069367Y0158085D01*
X0069485Y0158097D01*
X0069603Y0158105D01*
X0069721Y0158109D01*
X0069839Y0158109D01*
X0069957Y0158105D01*
X0070075Y0158097D01*
X0070193Y0158085D01*
X0070310Y0158069D01*
X0070426Y0158049D01*
X0070542Y0158025D01*
X0070657Y0157997D01*
X0070771Y0157966D01*
X0070884Y0157930D01*
X0070995Y0157891D01*
X0071105Y0157848D01*
X0071214Y0157802D01*
X0071321Y0157751D01*
X0071426Y0157698D01*
X0071529Y0157640D01*
X0071631Y0157579D01*
X0071730Y0157515D01*
X0071827Y0157448D01*
X0071922Y0157377D01*
X0072014Y0157303D01*
X0072104Y0157226D01*
X0072191Y0157146D01*
X0072275Y0157063D01*
X0072356Y0156978D01*
X0072435Y0156889D01*
X0072510Y0156798D01*
X0072583Y0156705D01*
X0072652Y0156609D01*
X0072718Y0156511D01*
X0072780Y0156410D01*
X0072839Y0156308D01*
X0072895Y0156204D01*
X0072947Y0156098D01*
X0072995Y0155990D01*
X0073040Y0155880D01*
X0073081Y0155770D01*
X0073119Y0155657D01*
X0073152Y0155544D01*
X0073182Y0155430D01*
X0073207Y0155314D01*
X0073229Y0155198D01*
X0073247Y0155081D01*
X0073261Y0154964D01*
X0073271Y0154846D01*
X0073277Y0154728D01*
X0073279Y0154610D01*
X0073277Y0154492D01*
X0073271Y0154374D01*
X0073261Y0154256D01*
X0073247Y0154139D01*
X0073229Y0154022D01*
X0073207Y0153906D01*
X0073182Y0153790D01*
X0073152Y0153676D01*
X0073119Y0153563D01*
X0073081Y0153450D01*
X0073040Y0153340D01*
X0072995Y0153230D01*
X0072947Y0153122D01*
X0072895Y0153016D01*
X0072839Y0152912D01*
X0072780Y0152810D01*
X0072718Y0152709D01*
X0072652Y0152611D01*
X0072583Y0152515D01*
X0072510Y0152422D01*
X0072435Y0152331D01*
X0072356Y0152242D01*
X0072275Y0152157D01*
X0072191Y0152074D01*
X0072104Y0151994D01*
X0072014Y0151917D01*
X0071922Y0151843D01*
X0071827Y0151772D01*
X0071730Y0151705D01*
X0071631Y0151641D01*
X0071530Y0151580D01*
X0071426Y0151522D01*
X0071321Y0151469D01*
X0071214Y0151418D01*
X0071105Y0151372D01*
X0070995Y0151329D01*
X0070884Y0151290D01*
X0070771Y0151254D01*
X0070657Y0151223D01*
X0070542Y0151195D01*
X0070426Y0151171D01*
X0070310Y0151151D01*
X0070193Y0151135D01*
X0070075Y0151123D01*
X0069957Y0151115D01*
X0069839Y0151111D01*
X0069721Y0151111D01*
X0069603Y0151115D01*
X0069485Y0151123D01*
X0069367Y0151135D01*
X0069250Y0151151D01*
X0069134Y0151171D01*
X0069018Y0151195D01*
X0068903Y0151223D01*
X0068789Y0151254D01*
X0068676Y0151290D01*
X0068565Y0151329D01*
X0068455Y0151372D01*
X0068346Y0151418D01*
X0068239Y0151469D01*
X0068134Y0151522D01*
X0068030Y0151580D01*
X0067929Y0151641D01*
X0067830Y0151705D01*
X0067733Y0151772D01*
X0067638Y0151843D01*
X0067546Y0151917D01*
X0067456Y0151994D01*
X0067369Y0152074D01*
X0067285Y0152157D01*
X0067204Y0152242D01*
X0067125Y0152331D01*
X0067050Y0152422D01*
X0066977Y0152515D01*
X0066908Y0152611D01*
X0066842Y0152709D01*
X0066780Y0152810D01*
X0066721Y0152912D01*
X0066665Y0153016D01*
X0066613Y0153122D01*
X0066565Y0153230D01*
X0066520Y0153340D01*
X0066479Y0153450D01*
X0066441Y0153563D01*
X0066408Y0153676D01*
X0066378Y0153790D01*
X0066353Y0153906D01*
X0066331Y0154022D01*
X0066313Y0154139D01*
X0066299Y0154256D01*
X0066289Y0154374D01*
X0066283Y0154492D01*
X0066281Y0154610D01*
D17*
X0099985Y0158972D02*
X0099985Y0147130D01*
X0104922Y0147130D01*
X0104922Y0123539D01*
X0109103Y0123539D01*
X0121922Y0123539D02*
X0134103Y0123539D01*
X0146922Y0123539D02*
X0156103Y0123539D01*
X0156227Y0123541D01*
X0156350Y0123547D01*
X0156474Y0123556D01*
X0156596Y0123570D01*
X0156719Y0123587D01*
X0156841Y0123609D01*
X0156962Y0123634D01*
X0157082Y0123663D01*
X0157201Y0123695D01*
X0157320Y0123732D01*
X0157437Y0123772D01*
X0157552Y0123815D01*
X0157667Y0123863D01*
X0157779Y0123914D01*
X0157890Y0123968D01*
X0158000Y0124026D01*
X0158107Y0124087D01*
X0158213Y0124152D01*
X0158316Y0124220D01*
X0158417Y0124291D01*
X0158516Y0124365D01*
X0158613Y0124442D01*
X0158707Y0124523D01*
X0158798Y0124606D01*
X0158887Y0124692D01*
X0158973Y0124781D01*
X0159056Y0124872D01*
X0159137Y0124966D01*
X0159214Y0125063D01*
X0159288Y0125162D01*
X0159359Y0125263D01*
X0159427Y0125366D01*
X0159492Y0125472D01*
X0159553Y0125579D01*
X0159611Y0125689D01*
X0159665Y0125800D01*
X0159716Y0125912D01*
X0159764Y0126027D01*
X0159807Y0126142D01*
X0159847Y0126259D01*
X0159884Y0126378D01*
X0159916Y0126497D01*
X0159945Y0126617D01*
X0159970Y0126738D01*
X0159992Y0126860D01*
X0160009Y0126983D01*
X0160023Y0127105D01*
X0160032Y0127229D01*
X0160038Y0127352D01*
X0160040Y0127476D01*
X0160040Y0155035D01*
X0160038Y0155159D01*
X0160032Y0155282D01*
X0160023Y0155406D01*
X0160009Y0155528D01*
X0159992Y0155651D01*
X0159970Y0155773D01*
X0159945Y0155894D01*
X0159916Y0156014D01*
X0159884Y0156133D01*
X0159847Y0156252D01*
X0159807Y0156369D01*
X0159764Y0156484D01*
X0159716Y0156599D01*
X0159665Y0156711D01*
X0159611Y0156822D01*
X0159553Y0156932D01*
X0159492Y0157039D01*
X0159427Y0157145D01*
X0159359Y0157248D01*
X0159288Y0157349D01*
X0159214Y0157448D01*
X0159137Y0157545D01*
X0159056Y0157639D01*
X0158973Y0157730D01*
X0158887Y0157819D01*
X0158798Y0157905D01*
X0158707Y0157988D01*
X0158613Y0158069D01*
X0158516Y0158146D01*
X0158417Y0158220D01*
X0158316Y0158291D01*
X0158213Y0158359D01*
X0158107Y0158424D01*
X0158000Y0158485D01*
X0157890Y0158543D01*
X0157779Y0158597D01*
X0157667Y0158648D01*
X0157552Y0158696D01*
X0157437Y0158739D01*
X0157320Y0158779D01*
X0157201Y0158816D01*
X0157082Y0158848D01*
X0156962Y0158877D01*
X0156841Y0158902D01*
X0156719Y0158924D01*
X0156596Y0158941D01*
X0156474Y0158955D01*
X0156350Y0158964D01*
X0156227Y0158970D01*
X0156103Y0158972D01*
X0146985Y0158972D01*
X0134103Y0158972D02*
X0121985Y0158972D01*
X0109103Y0158972D02*
X0099985Y0158972D01*
D18*
X0139066Y0128273D02*
X0142333Y0128273D01*
X0140700Y0129906D02*
X0140700Y0126639D01*
M02*
